%TF.GenerationSoftware,KiCad,Pcbnew,7.0.7*%
%TF.CreationDate,2023-09-18T12:00:32+02:00*%
%TF.ProjectId,AT90S4433_evaluation_board,41543930-5334-4343-9333-5f6576616c75,rev?*%
%TF.SameCoordinates,Original*%
%TF.FileFunction,Copper,L1,Top*%
%TF.FilePolarity,Positive*%
%FSLAX46Y46*%
G04 Gerber Fmt 4.6, Leading zero omitted, Abs format (unit mm)*
G04 Created by KiCad (PCBNEW 7.0.7) date 2023-09-18 12:00:32*
%MOMM*%
%LPD*%
G01*
G04 APERTURE LIST*
G04 Aperture macros list*
%AMRoundRect*
0 Rectangle with rounded corners*
0 $1 Rounding radius*
0 $2 $3 $4 $5 $6 $7 $8 $9 X,Y pos of 4 corners*
0 Add a 4 corners polygon primitive as box body*
4,1,4,$2,$3,$4,$5,$6,$7,$8,$9,$2,$3,0*
0 Add four circle primitives for the rounded corners*
1,1,$1+$1,$2,$3*
1,1,$1+$1,$4,$5*
1,1,$1+$1,$6,$7*
1,1,$1+$1,$8,$9*
0 Add four rect primitives between the rounded corners*
20,1,$1+$1,$2,$3,$4,$5,0*
20,1,$1+$1,$4,$5,$6,$7,0*
20,1,$1+$1,$6,$7,$8,$9,0*
20,1,$1+$1,$8,$9,$2,$3,0*%
%AMRotRect*
0 Rectangle, with rotation*
0 The origin of the aperture is its center*
0 $1 length*
0 $2 width*
0 $3 Rotation angle, in degrees counterclockwise*
0 Add horizontal line*
21,1,$1,$2,0,0,$3*%
G04 Aperture macros list end*
%TA.AperFunction,ComponentPad*%
%ADD10C,2.000000*%
%TD*%
%TA.AperFunction,ComponentPad*%
%ADD11C,1.500000*%
%TD*%
%TA.AperFunction,SMDPad,CuDef*%
%ADD12RoundRect,0.250000X-0.375000X-0.625000X0.375000X-0.625000X0.375000X0.625000X-0.375000X0.625000X0*%
%TD*%
%TA.AperFunction,SMDPad,CuDef*%
%ADD13RoundRect,0.125000X-0.530330X0.353553X0.353553X-0.530330X0.530330X-0.353553X-0.353553X0.530330X0*%
%TD*%
%TA.AperFunction,SMDPad,CuDef*%
%ADD14RoundRect,0.125000X-0.530330X-0.353553X-0.353553X-0.530330X0.530330X0.353553X0.353553X0.530330X0*%
%TD*%
%TA.AperFunction,SMDPad,CuDef*%
%ADD15RoundRect,0.250000X-1.425000X0.425000X-1.425000X-0.425000X1.425000X-0.425000X1.425000X0.425000X0*%
%TD*%
%TA.AperFunction,ComponentPad*%
%ADD16C,1.397000*%
%TD*%
%TA.AperFunction,SMDPad,CuDef*%
%ADD17RoundRect,0.250000X-0.262500X-0.450000X0.262500X-0.450000X0.262500X0.450000X-0.262500X0.450000X0*%
%TD*%
%TA.AperFunction,SMDPad,CuDef*%
%ADD18RoundRect,0.250000X-0.250000X-0.475000X0.250000X-0.475000X0.250000X0.475000X-0.250000X0.475000X0*%
%TD*%
%TA.AperFunction,ComponentPad*%
%ADD19RotRect,1.600000X1.600000X225.000000*%
%TD*%
%TA.AperFunction,ComponentPad*%
%ADD20C,1.600000*%
%TD*%
%TA.AperFunction,SMDPad,CuDef*%
%ADD21RoundRect,0.218750X0.218750X0.381250X-0.218750X0.381250X-0.218750X-0.381250X0.218750X-0.381250X0*%
%TD*%
%TA.AperFunction,ComponentPad*%
%ADD22R,2.000000X2.000000*%
%TD*%
%TA.AperFunction,SMDPad,CuDef*%
%ADD23RoundRect,0.250000X0.262500X0.450000X-0.262500X0.450000X-0.262500X-0.450000X0.262500X-0.450000X0*%
%TD*%
%TA.AperFunction,SMDPad,CuDef*%
%ADD24RoundRect,0.250000X0.250000X0.475000X-0.250000X0.475000X-0.250000X-0.475000X0.250000X-0.475000X0*%
%TD*%
%TA.AperFunction,SMDPad,CuDef*%
%ADD25RoundRect,0.250000X0.450000X-0.262500X0.450000X0.262500X-0.450000X0.262500X-0.450000X-0.262500X0*%
%TD*%
%TA.AperFunction,ViaPad*%
%ADD26C,0.800000*%
%TD*%
%TA.AperFunction,Conductor*%
%ADD27C,0.500000*%
%TD*%
%TA.AperFunction,Conductor*%
%ADD28C,0.300000*%
%TD*%
G04 APERTURE END LIST*
D10*
%TO.P,JP8,1,A*%
%TO.N,Net-(JP8-A)*%
X140218000Y-92202000D03*
%TO.P,JP8,2,B*%
%TO.N,/PC5(BTN)*%
X137678000Y-92202000D03*
%TD*%
D11*
%TO.P,Y1,1,1*%
%TO.N,/XTAL2*%
X110109000Y-90334001D03*
%TO.P,Y1,2,2*%
%TO.N,/XTAL1*%
X110109000Y-85434001D03*
%TD*%
D10*
%TO.P,JP7,1,A*%
%TO.N,Net-(D1-A)*%
X147076000Y-92202000D03*
%TO.P,JP7,2,B*%
%TO.N,/PC4(LED)*%
X144536000Y-92202000D03*
%TD*%
%TO.P,JP9,1,A*%
%TO.N,Net-(JP9-A)*%
X138176000Y-85217000D03*
%TO.P,JP9,2,C*%
%TO.N,Net-(JP9-C)*%
X135636000Y-85217000D03*
%TO.P,JP9,3,B*%
%TO.N,/EXT_RESET*%
X133096000Y-85217000D03*
%TD*%
D12*
%TO.P,D1,1,K*%
%TO.N,Net-(D1-K)*%
X152270000Y-91694000D03*
%TO.P,D1,2,A*%
%TO.N,Net-(D1-A)*%
X155070000Y-91694000D03*
%TD*%
D13*
%TO.P,U1,1,PD3*%
%TO.N,/PD3*%
X123566344Y-82711887D03*
%TO.P,U1,2,PD4*%
%TO.N,/PD4*%
X123000659Y-83277573D03*
%TO.P,U1,3*%
%TO.N,unconnected-(U1-Pad3)*%
X122434973Y-83843258D03*
%TO.P,U1,4,VCC*%
%TO.N,VCC*%
X121869288Y-84408943D03*
%TO.P,U1,5,GND*%
%TO.N,GND*%
X121303602Y-84974629D03*
%TO.P,U1,6*%
%TO.N,unconnected-(U1-Pad6)*%
X120737917Y-85540314D03*
%TO.P,U1,7,XTAL1*%
%TO.N,/XTAL1*%
X120172232Y-86106000D03*
%TO.P,U1,8,XTAL2*%
%TO.N,/XTAL2*%
X119606546Y-86671685D03*
D14*
%TO.P,U1,9,PD5*%
%TO.N,/PD5*%
X119606546Y-88616229D03*
%TO.P,U1,10,PD6*%
%TO.N,/PD6(AIN0)*%
X120172232Y-89181914D03*
%TO.P,U1,11,PD7*%
%TO.N,/PD7(AIN1)*%
X120737917Y-89747600D03*
%TO.P,U1,12,PB0*%
%TO.N,/PB0*%
X121303602Y-90313285D03*
%TO.P,U1,13,PB1*%
%TO.N,/PB1*%
X121869288Y-90878971D03*
%TO.P,U1,14,PB2*%
%TO.N,/PB2(SS)*%
X122434973Y-91444656D03*
%TO.P,U1,15,PB3*%
%TO.N,/PB3(MOSI)*%
X123000659Y-92010341D03*
%TO.P,U1,16,PB4*%
%TO.N,/PB4(MISO)*%
X123566344Y-92576027D03*
D13*
%TO.P,U1,17,PB5*%
%TO.N,/PB5(SCK)*%
X125510888Y-92576027D03*
%TO.P,U1,18,AVCC*%
%TO.N,Net-(U1-AVCC)*%
X126076573Y-92010341D03*
%TO.P,U1,19*%
%TO.N,unconnected-(U1-Pad19)*%
X126642259Y-91444656D03*
%TO.P,U1,20,AREF*%
%TO.N,VCC*%
X127207944Y-90878971D03*
%TO.P,U1,21,AGND*%
%TO.N,GND*%
X127773630Y-90313285D03*
%TO.P,U1,22*%
%TO.N,unconnected-(U1-Pad22)*%
X128339315Y-89747600D03*
%TO.P,U1,23,PC0*%
%TO.N,/PC0*%
X128905000Y-89181914D03*
%TO.P,U1,24,PC1*%
%TO.N,/PC1*%
X129470686Y-88616229D03*
D14*
%TO.P,U1,25,PC2*%
%TO.N,/PC2*%
X129470686Y-86671685D03*
%TO.P,U1,26,PC3*%
%TO.N,/PC3*%
X128905000Y-86106000D03*
%TO.P,U1,27,PC4*%
%TO.N,/PC4(LED)*%
X128339315Y-85540314D03*
%TO.P,U1,28,PC5*%
%TO.N,/PC5(BTN)*%
X127773630Y-84974629D03*
%TO.P,U1,29,RESET*%
%TO.N,Net-(JP9-C)*%
X127207944Y-84408943D03*
%TO.P,U1,30,PD0*%
%TO.N,/PD0(RXD)*%
X126642259Y-83843258D03*
%TO.P,U1,31,PD1*%
%TO.N,/PD1(TXD)*%
X126076573Y-83277573D03*
%TO.P,U1,32,PD2*%
%TO.N,/PD2*%
X125510888Y-82711887D03*
%TD*%
D15*
%TO.P,D3,1,K*%
%TO.N,Net-(D3-K)*%
X105079800Y-89149600D03*
%TO.P,D3,2,A*%
%TO.N,GND*%
X105079800Y-94949600D03*
%TD*%
D16*
%TO.P,SW1,1,1*%
%TO.N,VCC*%
X145796000Y-79756000D03*
X153416000Y-79756000D03*
%TO.P,SW1,2,2*%
%TO.N,Net-(JP8-A)*%
X145796000Y-84836000D03*
X153416000Y-84836000D03*
%TD*%
D12*
%TO.P,D2,1,K*%
%TO.N,Net-(D2-K)*%
X152270000Y-95758000D03*
%TO.P,D2,2,A*%
%TO.N,VCC*%
X155070000Y-95758000D03*
%TD*%
D17*
%TO.P,R2,1*%
%TO.N,GND*%
X147804500Y-87884000D03*
%TO.P,R2,2*%
%TO.N,Net-(D1-K)*%
X149629500Y-87884000D03*
%TD*%
D18*
%TO.P,C2,1*%
%TO.N,GND*%
X116652000Y-92456000D03*
%TO.P,C2,2*%
%TO.N,/XTAL2*%
X118552000Y-92456000D03*
%TD*%
D17*
%TO.P,R4,1*%
%TO.N,GND*%
X146407500Y-95758000D03*
%TO.P,R4,2*%
%TO.N,Net-(D2-K)*%
X148232500Y-95758000D03*
%TD*%
D10*
%TO.P,JP3,1*%
%TO.N,/PD0(RXD)*%
X139700000Y-76200000D03*
%TO.P,JP3,2*%
%TO.N,/PD1(TXD)*%
X137160000Y-76200000D03*
%TO.P,JP3,3*%
%TO.N,/PD2*%
X134620000Y-76200000D03*
%TO.P,JP3,4*%
%TO.N,/PD3*%
X132080000Y-76200000D03*
%TO.P,JP3,5*%
%TO.N,/PD4*%
X129540000Y-76200000D03*
%TO.P,JP3,6*%
%TO.N,/PD5*%
X127000000Y-76200000D03*
%TD*%
D19*
%TO.P,C6,1*%
%TO.N,VCC*%
X103595143Y-79919857D03*
D20*
%TO.P,C6,2*%
%TO.N,GND*%
X101827376Y-81687624D03*
%TD*%
D21*
%TO.P,L1,1,1*%
%TO.N,VCC*%
X130246900Y-93472000D03*
%TO.P,L1,2,2*%
%TO.N,Net-(U1-AVCC)*%
X128121900Y-93472000D03*
%TD*%
D10*
%TO.P,JP4,1*%
%TO.N,/PB0*%
X109220000Y-99060000D03*
%TO.P,JP4,2*%
%TO.N,/PB1*%
X111760000Y-99060000D03*
%TO.P,JP4,3*%
%TO.N,/PB2(SS)*%
X114300000Y-99060000D03*
%TO.P,JP4,4*%
%TO.N,/PB3(MOSI)*%
X116840000Y-99060000D03*
%TO.P,JP4,5*%
%TO.N,/PB4(MISO)*%
X119380000Y-99060000D03*
%TO.P,JP4,6*%
%TO.N,/PB5(SCK)*%
X121920000Y-99060000D03*
%TD*%
D18*
%TO.P,C1,1*%
%TO.N,GND*%
X114239000Y-90297000D03*
%TO.P,C1,2*%
%TO.N,/XTAL1*%
X116139000Y-90297000D03*
%TD*%
D10*
%TO.P,TP3,1,1*%
%TO.N,GND*%
X100863400Y-89204800D03*
D22*
%TO.P,TP3,2,2*%
%TO.N,VCC*%
X100863400Y-91744800D03*
%TD*%
D18*
%TO.P,C5,1*%
%TO.N,GND*%
X114432000Y-85217000D03*
%TO.P,C5,2*%
%TO.N,VCC*%
X116332000Y-85217000D03*
%TD*%
D23*
%TO.P,R3,1*%
%TO.N,GND*%
X143152500Y-87884000D03*
%TO.P,R3,2*%
%TO.N,Net-(JP8-A)*%
X141327500Y-87884000D03*
%TD*%
D24*
%TO.P,C3,1*%
%TO.N,GND*%
X133487200Y-90779600D03*
%TO.P,C3,2*%
%TO.N,Net-(U1-AVCC)*%
X131587200Y-90779600D03*
%TD*%
D10*
%TO.P,JP1,1*%
%TO.N,/PD6(AIN0)*%
X121920000Y-76200000D03*
%TO.P,JP1,2*%
%TO.N,/PD7(AIN1)*%
X119380000Y-76200000D03*
%TO.P,JP1,3*%
%TO.N,unconnected-(JP1-Pad3)*%
X116840000Y-76200000D03*
%TO.P,JP1,4*%
%TO.N,/EXT_RESET*%
X114300000Y-76200000D03*
%TO.P,JP1,5*%
%TO.N,VCC*%
X111760000Y-76200000D03*
%TO.P,JP1,6*%
%TO.N,GND*%
X109220000Y-76200000D03*
%TD*%
D18*
%TO.P,C4,1*%
%TO.N,GND*%
X118176000Y-82931000D03*
%TO.P,C4,2*%
%TO.N,VCC*%
X120076000Y-82931000D03*
%TD*%
D10*
%TO.P,JP2,1*%
%TO.N,/PC0*%
X127000000Y-99060000D03*
%TO.P,JP2,2*%
%TO.N,/PC1*%
X129540000Y-99060000D03*
%TO.P,JP2,3*%
%TO.N,/PC2*%
X132080000Y-99060000D03*
%TO.P,JP2,4*%
%TO.N,/PC3*%
X134620000Y-99060000D03*
%TO.P,JP2,5*%
%TO.N,/PC4(LED)*%
X137160000Y-99060000D03*
%TO.P,JP2,6*%
%TO.N,/PC5(BTN)*%
X139700000Y-99060000D03*
%TD*%
D23*
%TO.P,R1,1*%
%TO.N,VCC*%
X140866500Y-82423000D03*
%TO.P,R1,2*%
%TO.N,Net-(JP9-A)*%
X139041500Y-82423000D03*
%TD*%
D25*
%TO.P,R5,1*%
%TO.N,Net-(D3-K)*%
X106019600Y-87094700D03*
%TO.P,R5,2*%
%TO.N,VCC*%
X106019600Y-85269700D03*
%TD*%
D26*
%TO.N,/PD6(AIN0)*%
X117500400Y-81381600D03*
X122072400Y-87325200D03*
X117043200Y-80518000D03*
%TO.N,/PD7(AIN1)*%
X121869200Y-88595200D03*
X114884200Y-78638400D03*
X114198400Y-79679800D03*
%TO.N,VCC*%
X130208087Y-91692141D03*
X130911600Y-95631000D03*
X115300000Y-83500000D03*
X155498800Y-94030800D03*
X102870000Y-86918800D03*
X143510000Y-79756000D03*
X124790200Y-96300000D03*
X124800000Y-97200000D03*
X129895600Y-95783400D03*
X103530400Y-86233000D03*
X129000000Y-91744800D03*
X156260800Y-93421200D03*
X125500000Y-95700000D03*
X124800000Y-98200000D03*
X151282400Y-79756000D03*
X113500000Y-82800000D03*
X142341600Y-79806800D03*
X128879600Y-95758000D03*
X141630400Y-80467200D03*
X104267000Y-85496400D03*
X114500000Y-82804000D03*
%TO.N,/PC0*%
X126390400Y-89712800D03*
%TO.N,/PC1*%
X126593600Y-88442800D03*
%TO.N,/PC2*%
X132181600Y-88747600D03*
%TO.N,/PC3*%
X135559873Y-89325027D03*
%TO.N,/PC4(LED)*%
X126796800Y-87071200D03*
%TO.N,/PC5(BTN)*%
X126695200Y-86055200D03*
%TO.N,/PD5*%
X122021600Y-81330800D03*
X121310400Y-81889600D03*
X123748800Y-84429600D03*
%TO.N,/PB0*%
X120142000Y-91440000D03*
%TD*%
D27*
%TO.N,VCC*%
X130155428Y-91744800D02*
X130208087Y-91692141D01*
X129000000Y-91744800D02*
X130155428Y-91744800D01*
X127881903Y-91552930D02*
X127207944Y-90878971D01*
X128808130Y-91552930D02*
X127881903Y-91552930D01*
X129000000Y-91744800D02*
X128808130Y-91552930D01*
X114500000Y-82804000D02*
X113504000Y-82804000D01*
X113504000Y-82804000D02*
X113500000Y-82800000D01*
X114604000Y-82804000D02*
X115300000Y-83500000D01*
X114500000Y-82804000D02*
X114604000Y-82804000D01*
X116332000Y-84532000D02*
X116332000Y-85217000D01*
X115300000Y-83500000D02*
X116332000Y-84532000D01*
D28*
%TO.N,/PD6(AIN0)*%
X117043200Y-80518000D02*
X121361200Y-76200000D01*
X120172232Y-89181914D02*
X120172232Y-89174568D01*
X120172232Y-89174568D02*
X122021600Y-87325200D01*
X117500400Y-81381600D02*
X117043200Y-80924400D01*
X122072400Y-87325200D02*
X122072400Y-87274400D01*
X122021600Y-87325200D02*
X122072400Y-87325200D01*
X122072400Y-87274400D02*
X122021600Y-87325200D01*
X117043200Y-80924400D02*
X117043200Y-80518000D01*
X121361200Y-76200000D02*
X121920000Y-76200000D01*
%TO.N,/PD7(AIN1)*%
X114884200Y-78638400D02*
X116941600Y-78638400D01*
X116941600Y-78638400D02*
X119380000Y-76200000D01*
X121920000Y-88595200D02*
X121869200Y-88646000D01*
X121869200Y-88646000D02*
X121869200Y-88595200D01*
X120802400Y-89712800D02*
X121869200Y-88646000D01*
X118922800Y-76200000D02*
X119380000Y-76200000D01*
X120737917Y-89747600D02*
X120767600Y-89747600D01*
X120767600Y-89747600D02*
X120802400Y-89712800D01*
X121869200Y-88595200D02*
X121920000Y-88595200D01*
D27*
%TO.N,VCC*%
X103530400Y-86207600D02*
X103530400Y-86233000D01*
X142392400Y-79756000D02*
X143510000Y-79756000D01*
X156260800Y-93421200D02*
X156260800Y-93319600D01*
X103530400Y-86233000D02*
X103505000Y-86233000D01*
X124800000Y-98200000D02*
X124800000Y-98288200D01*
X125500000Y-95700000D02*
X125507200Y-95707200D01*
X102819200Y-86918800D02*
X102819200Y-86918800D01*
X121869288Y-84408943D02*
X120391345Y-82931000D01*
X155070000Y-94510400D02*
X155498800Y-94081600D01*
X155070000Y-94510400D02*
X155070000Y-95758000D01*
X124900000Y-96300000D02*
X125500000Y-95700000D01*
X140866500Y-82423000D02*
X140866500Y-81281900D01*
X156260800Y-93319600D02*
X156159200Y-93421200D01*
X124790200Y-97190200D02*
X124790200Y-96300000D01*
X102870000Y-86918800D02*
X102819200Y-86918800D01*
X104468300Y-85269700D02*
X104267000Y-85471000D01*
X124800000Y-98200000D02*
X124800000Y-97200000D01*
X118901000Y-84106000D02*
X117570000Y-84106000D01*
X130759200Y-95783400D02*
X130911600Y-95631000D01*
X106019600Y-85269700D02*
X104468300Y-85269700D01*
X141681200Y-80467200D02*
X141630400Y-80467200D01*
X124790200Y-96300000D02*
X124900000Y-96300000D01*
X155498800Y-94081600D02*
X155498800Y-94030800D01*
X140866500Y-81281900D02*
X141630400Y-80518000D01*
X104267000Y-85471000D02*
X104267000Y-85496400D01*
X142341600Y-79806800D02*
X141681200Y-80467200D01*
X143510000Y-79756000D02*
X151282400Y-79756000D01*
X117570000Y-84106000D02*
X116459000Y-85217000D01*
X141630400Y-80518000D02*
X141630400Y-80467200D01*
X102870000Y-86868000D02*
X102870000Y-86918800D01*
X116459000Y-85217000D02*
X116332000Y-85217000D01*
X130208087Y-91692141D02*
X130208087Y-93378087D01*
X128828800Y-95707200D02*
X128879600Y-95758000D01*
X130246900Y-93416900D02*
X130246900Y-93472000D01*
X156159200Y-93421200D02*
X156260800Y-93421200D01*
X104267000Y-85496400D02*
X104241600Y-85496400D01*
X151282400Y-79756000D02*
X153416000Y-79756000D01*
X103505000Y-86233000D02*
X102870000Y-86868000D01*
X124800000Y-97200000D02*
X124790200Y-97190200D01*
X120076000Y-82931000D02*
X118901000Y-84106000D01*
X129895600Y-95783400D02*
X130759200Y-95783400D01*
X104241600Y-85496400D02*
X103530400Y-86207600D01*
X155498800Y-94030800D02*
X155549600Y-94030800D01*
X120391345Y-82931000D02*
X120076000Y-82931000D01*
X129895600Y-95783400D02*
X128905000Y-95783400D01*
X128905000Y-95783400D02*
X128879600Y-95758000D01*
X142341600Y-79806800D02*
X142392400Y-79756000D01*
X125507200Y-95707200D02*
X128828800Y-95707200D01*
X155549600Y-94030800D02*
X156159200Y-93421200D01*
X130208087Y-93378087D02*
X130246900Y-93416900D01*
%TO.N,GND*%
X131047251Y-89604600D02*
X132312200Y-89604600D01*
X132312200Y-89604600D02*
X133487200Y-90779600D01*
X117348000Y-85915949D02*
X116871949Y-86392000D01*
X118186200Y-82931000D02*
X118211600Y-82905600D01*
X120763957Y-84434984D02*
X119561966Y-84434984D01*
X116871949Y-86392000D02*
X115607000Y-86392000D01*
X118211600Y-82905600D02*
X118160800Y-82956400D01*
X118176000Y-82931000D02*
X118186200Y-82931000D01*
X127773630Y-90313285D02*
X128313275Y-90852930D01*
X118160800Y-82956400D02*
X117297200Y-82956400D01*
X129845216Y-90852930D02*
X129845216Y-90806635D01*
X129845216Y-90806635D02*
X131047251Y-89604600D01*
X117886000Y-84806000D02*
X117348000Y-85344000D01*
X128313275Y-90852930D02*
X129845216Y-90852930D01*
X117297200Y-82956400D02*
X116636800Y-82296000D01*
X121303602Y-84974629D02*
X120763957Y-84434984D01*
X119561966Y-84434984D02*
X119190949Y-84806000D01*
X119190949Y-84806000D02*
X117886000Y-84806000D01*
X117348000Y-85344000D02*
X117348000Y-85915949D01*
X115607000Y-86392000D02*
X114432000Y-85217000D01*
D28*
%TO.N,/PC0*%
X126390400Y-89712800D02*
X126390400Y-89814400D01*
X126492000Y-89712800D02*
X126390400Y-89712800D01*
X126390400Y-89814400D02*
X126390400Y-89814400D01*
X127462530Y-88742270D02*
X126492000Y-89712800D01*
X128905000Y-89181914D02*
X128465356Y-88742270D01*
X128465356Y-88742270D02*
X127462530Y-88742270D01*
%TO.N,/PC1*%
X129031041Y-88176584D02*
X126859816Y-88176584D01*
X126593600Y-88442800D02*
X126542800Y-88493600D01*
X129470686Y-88616229D02*
X129031041Y-88176584D01*
X126859816Y-88176584D02*
X126593600Y-88442800D01*
%TO.N,/PC2*%
X132161221Y-88755100D02*
X132181600Y-88747600D01*
X129470686Y-86697086D02*
X129470686Y-86671685D01*
X132176221Y-88755100D02*
X131528700Y-88755100D01*
X131528700Y-88755100D02*
X129470686Y-86697086D01*
X132181600Y-88747600D02*
X132176221Y-88755100D01*
X132168721Y-88755100D02*
X132161221Y-88755100D01*
%TO.N,/PC3*%
X135559873Y-89325027D02*
X135553027Y-89325027D01*
X132246862Y-87267000D02*
X130646217Y-85666355D01*
X130646217Y-85666355D02*
X129344645Y-85666355D01*
X129344645Y-85666355D02*
X128905000Y-86106000D01*
X135553027Y-89325027D02*
X133495000Y-87267000D01*
X133495000Y-87267000D02*
X132246862Y-87267000D01*
%TO.N,/PC4(LED)*%
X137160000Y-99060000D02*
X144018000Y-92202000D01*
X144018000Y-92202000D02*
X144536000Y-92202000D01*
X128339315Y-85540314D02*
X128327686Y-85540314D01*
X128327686Y-85540314D02*
X126796800Y-87071200D01*
X126796800Y-87071200D02*
X126847600Y-87020400D01*
%TO.N,/PC5(BTN)*%
X126746000Y-86002259D02*
X126695200Y-86055200D01*
X127773630Y-84974629D02*
X126746000Y-86002259D01*
X126695200Y-86055200D02*
X126746000Y-86004400D01*
%TO.N,/PD0(RXD)*%
X126642259Y-83843258D02*
X127376717Y-83108800D01*
X132791200Y-83108800D02*
X139700000Y-76200000D01*
X127376717Y-83108800D02*
X132791200Y-83108800D01*
%TO.N,/PD1(TXD)*%
X127007346Y-82346800D02*
X131013200Y-82346800D01*
X126076573Y-83277573D02*
X127007346Y-82346800D01*
X131013200Y-82346800D02*
X137160000Y-76200000D01*
%TO.N,/PD2*%
X125510888Y-82711887D02*
X126790375Y-81432400D01*
X129387600Y-81432400D02*
X134620000Y-76200000D01*
X126790375Y-81432400D02*
X129387600Y-81432400D01*
%TO.N,/PD3*%
X123566344Y-82711887D02*
X125760231Y-80518000D01*
X127762000Y-80518000D02*
X132080000Y-76200000D01*
X125760231Y-80518000D02*
X127762000Y-80518000D01*
%TO.N,/PD4*%
X122561014Y-82837928D02*
X122561014Y-82161582D01*
X122561014Y-82161582D02*
X124864996Y-79857600D01*
X124864996Y-79857600D02*
X125933200Y-79857600D01*
X125933200Y-79857600D02*
X125933200Y-79806800D01*
X125933200Y-79806800D02*
X129540000Y-76200000D01*
X123000659Y-83277573D02*
X122561014Y-82837928D01*
%TO.N,/PD5*%
X123748800Y-84473975D02*
X119606546Y-88616229D01*
X121681913Y-86547287D02*
X121675487Y-86547287D01*
X121310400Y-81889600D02*
X127000000Y-76200000D01*
X123748800Y-84429600D02*
X123748800Y-84473975D01*
X123748800Y-84480400D02*
X121681913Y-86547287D01*
X123748800Y-84429600D02*
X123748800Y-84480400D01*
%TO.N,/PB0*%
X121303602Y-90313285D02*
X120176887Y-91440000D01*
X120176887Y-91440000D02*
X120142000Y-91440000D01*
%TO.N,/PB1*%
X121869288Y-90878971D02*
X115038259Y-97710000D01*
X113110000Y-97710000D02*
X111760000Y-99060000D01*
X115038259Y-97710000D02*
X113110000Y-97710000D01*
%TO.N,/PB2(SS)*%
X122434973Y-91444656D02*
X114819629Y-99060000D01*
X114819629Y-99060000D02*
X114300000Y-99060000D01*
%TO.N,/PB3(MOSI)*%
X116840000Y-98171000D02*
X116840000Y-99060000D01*
X123000659Y-92010341D02*
X116840000Y-98171000D01*
%TO.N,/PB4(MISO)*%
X119380000Y-96762371D02*
X119380000Y-99060000D01*
X123566344Y-92576027D02*
X119380000Y-96762371D01*
%TO.N,/PB5(SCK)*%
X125510888Y-92576027D02*
X121920000Y-96166915D01*
X121920000Y-96166915D02*
X121920000Y-99060000D01*
%TO.N,Net-(D2-K)*%
X148232500Y-95758000D02*
X152270000Y-95758000D01*
%TO.N,Net-(D1-A)*%
X148076000Y-93202000D02*
X153562000Y-93202000D01*
X147076000Y-92202000D02*
X148076000Y-93202000D01*
X153562000Y-93202000D02*
X155070000Y-91694000D01*
%TO.N,Net-(JP8-A)*%
X140218000Y-92202000D02*
X140218000Y-88993500D01*
X145796000Y-84836000D02*
X153416000Y-84836000D01*
X143764000Y-84836000D02*
X145796000Y-84836000D01*
X140218000Y-88993500D02*
X141327500Y-87884000D01*
X141327500Y-87884000D02*
X141327500Y-87272500D01*
X141327500Y-87272500D02*
X143764000Y-84836000D01*
D27*
%TO.N,Net-(JP9-A)*%
X139041500Y-84351500D02*
X138176000Y-85217000D01*
X139041500Y-82423000D02*
X139041500Y-84351500D01*
%TO.N,Net-(JP9-C)*%
X127747588Y-83869299D02*
X127207944Y-84408943D01*
X132495390Y-86667000D02*
X131646000Y-85817610D01*
X130554499Y-83869299D02*
X127747588Y-83869299D01*
X131646000Y-85817610D02*
X131646000Y-84960800D01*
X131646000Y-84960800D02*
X130554499Y-83869299D01*
X134186000Y-86667000D02*
X132495390Y-86667000D01*
X135636000Y-85217000D02*
X134186000Y-86667000D01*
D28*
%TO.N,/XTAL1*%
X118803645Y-85666355D02*
X116139000Y-88331000D01*
X112904999Y-88230000D02*
X110109000Y-85434001D01*
X114072000Y-88230000D02*
X112904999Y-88230000D01*
X116139000Y-88331000D02*
X116139000Y-90297000D01*
X119732587Y-85666355D02*
X118803645Y-85666355D01*
X120172232Y-86106000D02*
X119732587Y-85666355D01*
X116139000Y-90297000D02*
X114072000Y-88230000D01*
%TO.N,/XTAL2*%
X110109000Y-93548200D02*
X110109000Y-90334001D01*
X116941600Y-94843600D02*
X111404400Y-94843600D01*
X111404400Y-94843600D02*
X110109000Y-93548200D01*
X118552000Y-92456000D02*
X118552000Y-93233200D01*
X118552000Y-93233200D02*
X116941600Y-94843600D01*
X119606546Y-86671685D02*
X118552000Y-87726231D01*
X118552000Y-87726231D02*
X118552000Y-92456000D01*
D27*
%TO.N,Net-(U1-AVCC)*%
X129167600Y-94522000D02*
X130742655Y-94522000D01*
X130742655Y-94522000D02*
X131587200Y-93677455D01*
X128121900Y-93472000D02*
X128121900Y-93476300D01*
X131587200Y-93677455D02*
X131587200Y-90779600D01*
X127538232Y-93472000D02*
X128121900Y-93472000D01*
X126076573Y-92010341D02*
X127538232Y-93472000D01*
X128121900Y-93476300D02*
X129167600Y-94522000D01*
D28*
%TO.N,Net-(D1-K)*%
X149629500Y-89053500D02*
X152270000Y-91694000D01*
X149629500Y-87884000D02*
X149629500Y-89053500D01*
D27*
%TO.N,Net-(D3-K)*%
X105079800Y-88034500D02*
X106019600Y-87094700D01*
X105079800Y-89149600D02*
X105079800Y-88034500D01*
%TD*%
%TA.AperFunction,Conductor*%
%TO.N,GND*%
G36*
X142284639Y-73730485D02*
G01*
X142330394Y-73783289D01*
X142341600Y-73834800D01*
X142341600Y-77978000D01*
X156594000Y-77978000D01*
X156661039Y-77997685D01*
X156706794Y-78050489D01*
X156718000Y-78102000D01*
X156718000Y-92448094D01*
X156698315Y-92515133D01*
X156645511Y-92560888D01*
X156576353Y-92570832D01*
X156543572Y-92561377D01*
X156540607Y-92560057D01*
X156540602Y-92560055D01*
X156377661Y-92525422D01*
X156355446Y-92520700D01*
X156355445Y-92520700D01*
X156317317Y-92520700D01*
X156250278Y-92501015D01*
X156204523Y-92448211D01*
X156193959Y-92384100D01*
X156194819Y-92375669D01*
X156195500Y-92369009D01*
X156195499Y-91018992D01*
X156184999Y-90916203D01*
X156129814Y-90749666D01*
X156037712Y-90600344D01*
X155913656Y-90476288D01*
X155796886Y-90404264D01*
X155764336Y-90384187D01*
X155764331Y-90384185D01*
X155759005Y-90382420D01*
X155597797Y-90329001D01*
X155597795Y-90329000D01*
X155495010Y-90318500D01*
X154644998Y-90318500D01*
X154644980Y-90318501D01*
X154542203Y-90329000D01*
X154542200Y-90329001D01*
X154375668Y-90384185D01*
X154375663Y-90384187D01*
X154226342Y-90476289D01*
X154102289Y-90600342D01*
X154010187Y-90749663D01*
X154010185Y-90749668D01*
X153985829Y-90823169D01*
X153955001Y-90916203D01*
X153955001Y-90916204D01*
X153955000Y-90916204D01*
X153944500Y-91018983D01*
X153944499Y-91018996D01*
X153944500Y-91848191D01*
X153924815Y-91915230D01*
X153908181Y-91935872D01*
X153607180Y-92236872D01*
X153545857Y-92270357D01*
X153476165Y-92265373D01*
X153420232Y-92223501D01*
X153395815Y-92158037D01*
X153395499Y-92149214D01*
X153395499Y-91018992D01*
X153384999Y-90916203D01*
X153329814Y-90749666D01*
X153237712Y-90600344D01*
X153113656Y-90476288D01*
X152996886Y-90404264D01*
X152964336Y-90384187D01*
X152964331Y-90384185D01*
X152959005Y-90382420D01*
X152797797Y-90329001D01*
X152797795Y-90329000D01*
X152695016Y-90318500D01*
X151865808Y-90318500D01*
X151798769Y-90298815D01*
X151778127Y-90282181D01*
X150479338Y-88983391D01*
X150445853Y-88922068D01*
X150450837Y-88852376D01*
X150479342Y-88808025D01*
X150484712Y-88802656D01*
X150576814Y-88653334D01*
X150631999Y-88486797D01*
X150642500Y-88384009D01*
X150642499Y-87383992D01*
X150637373Y-87333816D01*
X150631999Y-87281203D01*
X150631998Y-87281200D01*
X150627108Y-87266442D01*
X150576814Y-87114666D01*
X150484712Y-86965344D01*
X150360656Y-86841288D01*
X150211334Y-86749186D01*
X150044797Y-86694001D01*
X150044795Y-86694000D01*
X149942010Y-86683500D01*
X149316998Y-86683500D01*
X149316980Y-86683501D01*
X149214203Y-86694000D01*
X149214200Y-86694001D01*
X149047668Y-86749185D01*
X149047663Y-86749187D01*
X148898345Y-86841287D01*
X148804327Y-86935305D01*
X148743003Y-86968789D01*
X148673312Y-86963805D01*
X148628965Y-86935304D01*
X148535345Y-86841684D01*
X148386124Y-86749643D01*
X148386119Y-86749641D01*
X148219697Y-86694494D01*
X148219690Y-86694493D01*
X148116986Y-86684000D01*
X148054500Y-86684000D01*
X148054500Y-89083999D01*
X148116972Y-89083999D01*
X148116986Y-89083998D01*
X148219697Y-89073505D01*
X148386119Y-89018358D01*
X148386124Y-89018356D01*
X148535342Y-88926317D01*
X148628964Y-88832695D01*
X148690287Y-88799210D01*
X148759979Y-88804194D01*
X148804327Y-88832695D01*
X148898345Y-88926713D01*
X148919453Y-88939732D01*
X148966179Y-88991679D01*
X148978298Y-89041374D01*
X148979000Y-89063701D01*
X148979000Y-89094420D01*
X148979001Y-89094440D01*
X148979918Y-89101706D01*
X148980376Y-89107524D01*
X148981902Y-89156067D01*
X148981903Y-89156070D01*
X148987823Y-89176448D01*
X148991768Y-89195496D01*
X148994428Y-89216554D01*
X148994431Y-89216564D01*
X149012313Y-89261730D01*
X149014205Y-89267258D01*
X149027754Y-89313895D01*
X149027755Y-89313897D01*
X149038560Y-89332166D01*
X149047117Y-89349634D01*
X149052726Y-89363800D01*
X149054932Y-89369372D01*
X149083483Y-89408670D01*
X149086691Y-89413553D01*
X149099948Y-89435970D01*
X149111419Y-89455365D01*
X149111423Y-89455369D01*
X149126425Y-89470371D01*
X149139063Y-89485169D01*
X149151533Y-89502333D01*
X149151536Y-89502336D01*
X149151537Y-89502337D01*
X149188976Y-89533309D01*
X149193276Y-89537222D01*
X150154840Y-90498786D01*
X151108181Y-91452127D01*
X151141666Y-91513450D01*
X151144500Y-91539808D01*
X151144500Y-92369001D01*
X151144501Y-92369017D01*
X151149189Y-92414898D01*
X151136420Y-92483591D01*
X151088539Y-92534475D01*
X151025831Y-92551500D01*
X148687383Y-92551500D01*
X148620344Y-92531815D01*
X148574589Y-92479011D01*
X148563807Y-92417260D01*
X148581643Y-92202006D01*
X148581643Y-92201994D01*
X148561109Y-91954187D01*
X148561107Y-91954175D01*
X148500063Y-91713118D01*
X148400173Y-91485393D01*
X148264166Y-91277217D01*
X148199744Y-91207236D01*
X148095744Y-91094262D01*
X147899509Y-90941526D01*
X147899507Y-90941525D01*
X147899506Y-90941524D01*
X147680811Y-90823172D01*
X147680802Y-90823169D01*
X147445616Y-90742429D01*
X147200335Y-90701500D01*
X146951665Y-90701500D01*
X146706383Y-90742429D01*
X146471197Y-90823169D01*
X146471188Y-90823172D01*
X146252493Y-90941524D01*
X146056257Y-91094261D01*
X145897230Y-91267010D01*
X145837342Y-91303001D01*
X145767504Y-91300900D01*
X145714770Y-91267010D01*
X145659744Y-91207236D01*
X145555744Y-91094262D01*
X145359509Y-90941526D01*
X145359507Y-90941525D01*
X145359506Y-90941524D01*
X145140811Y-90823172D01*
X145140802Y-90823169D01*
X144905616Y-90742429D01*
X144660335Y-90701500D01*
X144411665Y-90701500D01*
X144166383Y-90742429D01*
X143931197Y-90823169D01*
X143931188Y-90823172D01*
X143712493Y-90941524D01*
X143516257Y-91094261D01*
X143347833Y-91277217D01*
X143211826Y-91485393D01*
X143111936Y-91713118D01*
X143050892Y-91954175D01*
X143050890Y-91954187D01*
X143030357Y-92201994D01*
X143030357Y-92202001D01*
X143030791Y-92207242D01*
X143016707Y-92275677D01*
X142994895Y-92305157D01*
X137710909Y-97589143D01*
X137649586Y-97622628D01*
X137582967Y-97618744D01*
X137529613Y-97600428D01*
X137284335Y-97559500D01*
X137035665Y-97559500D01*
X136790383Y-97600429D01*
X136555197Y-97681169D01*
X136555188Y-97681172D01*
X136336493Y-97799524D01*
X136140257Y-97952261D01*
X135981230Y-98125010D01*
X135921342Y-98161001D01*
X135851504Y-98158900D01*
X135798770Y-98125010D01*
X135728132Y-98048277D01*
X135639744Y-97952262D01*
X135443509Y-97799526D01*
X135443507Y-97799525D01*
X135443506Y-97799524D01*
X135224811Y-97681172D01*
X135224802Y-97681169D01*
X134989616Y-97600429D01*
X134744335Y-97559500D01*
X134495665Y-97559500D01*
X134250383Y-97600429D01*
X134015197Y-97681169D01*
X134015188Y-97681172D01*
X133796493Y-97799524D01*
X133600255Y-97952262D01*
X133600252Y-97952265D01*
X133441228Y-98125010D01*
X133381341Y-98161001D01*
X133311503Y-98158900D01*
X133258770Y-98125011D01*
X133099744Y-97952262D01*
X132903509Y-97799526D01*
X132903507Y-97799525D01*
X132903506Y-97799524D01*
X132684811Y-97681172D01*
X132684802Y-97681169D01*
X132449616Y-97600429D01*
X132204335Y-97559500D01*
X131955665Y-97559500D01*
X131710383Y-97600429D01*
X131475197Y-97681169D01*
X131475188Y-97681172D01*
X131256493Y-97799524D01*
X131060255Y-97952262D01*
X131060252Y-97952265D01*
X130901228Y-98125010D01*
X130841341Y-98161001D01*
X130771503Y-98158900D01*
X130718770Y-98125011D01*
X130559744Y-97952262D01*
X130363509Y-97799526D01*
X130363507Y-97799525D01*
X130363506Y-97799524D01*
X130144811Y-97681172D01*
X130144802Y-97681169D01*
X129909616Y-97600429D01*
X129664335Y-97559500D01*
X129415665Y-97559500D01*
X129170383Y-97600429D01*
X128935197Y-97681169D01*
X128935188Y-97681172D01*
X128716493Y-97799524D01*
X128520257Y-97952261D01*
X128361230Y-98125010D01*
X128301342Y-98161001D01*
X128231504Y-98158900D01*
X128178770Y-98125010D01*
X128108132Y-98048277D01*
X128019744Y-97952262D01*
X127823509Y-97799526D01*
X127823507Y-97799525D01*
X127823506Y-97799524D01*
X127604811Y-97681172D01*
X127604802Y-97681169D01*
X127369616Y-97600429D01*
X127124335Y-97559500D01*
X126875665Y-97559500D01*
X126630383Y-97600429D01*
X126395197Y-97681169D01*
X126395188Y-97681172D01*
X126176493Y-97799524D01*
X125980255Y-97952262D01*
X125980252Y-97952265D01*
X125891867Y-98048277D01*
X125831980Y-98084268D01*
X125762142Y-98082167D01*
X125704526Y-98042643D01*
X125682707Y-98002612D01*
X125627181Y-97831722D01*
X125627180Y-97831721D01*
X125627179Y-97831716D01*
X125586928Y-97761999D01*
X125570455Y-97694098D01*
X125586929Y-97637998D01*
X125627179Y-97568284D01*
X125638376Y-97533822D01*
X125685674Y-97388256D01*
X125705460Y-97200000D01*
X125685674Y-97011744D01*
X125627179Y-96831716D01*
X125610896Y-96803512D01*
X125594423Y-96735612D01*
X125610894Y-96679514D01*
X125617379Y-96668284D01*
X125619872Y-96660608D01*
X125650134Y-96611231D01*
X125652788Y-96608578D01*
X125714115Y-96575107D01*
X125714482Y-96575027D01*
X125779803Y-96561144D01*
X125952730Y-96484151D01*
X125953284Y-96483748D01*
X125956542Y-96481382D01*
X126022348Y-96457902D01*
X126029427Y-96457700D01*
X128270343Y-96457700D01*
X128337382Y-96477385D01*
X128343228Y-96481382D01*
X128426865Y-96542148D01*
X128426870Y-96542151D01*
X128599792Y-96619142D01*
X128599797Y-96619144D01*
X128784954Y-96658500D01*
X128784955Y-96658500D01*
X128974244Y-96658500D01*
X128974246Y-96658500D01*
X129159403Y-96619144D01*
X129313792Y-96550404D01*
X129383038Y-96541119D01*
X129437114Y-96563369D01*
X129442866Y-96567549D01*
X129442870Y-96567551D01*
X129615792Y-96644542D01*
X129615797Y-96644544D01*
X129800954Y-96683900D01*
X129800955Y-96683900D01*
X129990244Y-96683900D01*
X129990246Y-96683900D01*
X130175403Y-96644544D01*
X130348330Y-96567551D01*
X130357153Y-96561141D01*
X130362052Y-96557582D01*
X130427858Y-96534102D01*
X130434937Y-96533900D01*
X130695495Y-96533900D01*
X130713465Y-96535209D01*
X130737223Y-96538689D01*
X130789268Y-96534135D01*
X130794670Y-96533900D01*
X130802902Y-96533900D01*
X130802909Y-96533900D01*
X130819857Y-96531918D01*
X130827059Y-96531500D01*
X131006244Y-96531500D01*
X131006246Y-96531500D01*
X131191403Y-96492144D01*
X131364330Y-96415151D01*
X131517471Y-96303888D01*
X131644133Y-96163216D01*
X131738779Y-95999284D01*
X131797274Y-95819256D01*
X131817060Y-95631000D01*
X131797274Y-95442744D01*
X131738779Y-95262716D01*
X131644133Y-95098784D01*
X131525343Y-94966855D01*
X131495116Y-94903868D01*
X131503741Y-94834533D01*
X131529812Y-94796209D01*
X132072842Y-94253179D01*
X132086471Y-94241402D01*
X132105730Y-94227065D01*
X132129943Y-94198208D01*
X132139301Y-94187056D01*
X132142961Y-94183061D01*
X132148790Y-94177233D01*
X132169141Y-94151494D01*
X132175148Y-94144334D01*
X132218502Y-94092669D01*
X132218506Y-94092660D01*
X132222474Y-94086630D01*
X132222525Y-94086663D01*
X132226572Y-94080311D01*
X132226520Y-94080279D01*
X132230312Y-94074130D01*
X132262775Y-94004513D01*
X132284734Y-93960789D01*
X132297240Y-93935888D01*
X132297242Y-93935876D01*
X132299709Y-93929101D01*
X132299767Y-93929122D01*
X132302243Y-93922001D01*
X132302186Y-93921983D01*
X132304457Y-93915128D01*
X132319992Y-93839889D01*
X132337700Y-93765177D01*
X132338539Y-93758000D01*
X132338600Y-93758007D01*
X132339366Y-93750515D01*
X132339304Y-93750510D01*
X132339932Y-93743318D01*
X132339934Y-93743311D01*
X132337700Y-93666538D01*
X132337700Y-92202005D01*
X136172357Y-92202005D01*
X136192890Y-92449812D01*
X136192892Y-92449824D01*
X136253936Y-92690881D01*
X136353826Y-92918606D01*
X136489833Y-93126782D01*
X136489836Y-93126785D01*
X136658256Y-93309738D01*
X136854491Y-93462474D01*
X137073190Y-93580828D01*
X137308386Y-93661571D01*
X137553665Y-93702500D01*
X137802335Y-93702500D01*
X138047614Y-93661571D01*
X138282810Y-93580828D01*
X138501509Y-93462474D01*
X138697744Y-93309738D01*
X138856772Y-93136986D01*
X138916656Y-93100999D01*
X138986494Y-93103099D01*
X139039228Y-93136989D01*
X139190736Y-93301569D01*
X139198256Y-93309738D01*
X139394491Y-93462474D01*
X139613190Y-93580828D01*
X139848386Y-93661571D01*
X140093665Y-93702500D01*
X140342335Y-93702500D01*
X140587614Y-93661571D01*
X140822810Y-93580828D01*
X141041509Y-93462474D01*
X141237744Y-93309738D01*
X141406164Y-93126785D01*
X141542173Y-92918607D01*
X141642063Y-92690881D01*
X141703108Y-92449821D01*
X141703109Y-92449812D01*
X141723643Y-92202005D01*
X141723643Y-92201994D01*
X141703109Y-91954187D01*
X141703107Y-91954175D01*
X141642063Y-91713118D01*
X141542173Y-91485393D01*
X141406166Y-91277217D01*
X141341744Y-91207236D01*
X141237744Y-91094262D01*
X141041509Y-90941526D01*
X141041508Y-90941525D01*
X141041505Y-90941523D01*
X141041498Y-90941519D01*
X140933482Y-90883063D01*
X140883891Y-90833844D01*
X140868500Y-90774009D01*
X140868500Y-89314307D01*
X140888185Y-89247268D01*
X140904815Y-89226630D01*
X141010627Y-89120817D01*
X141071950Y-89087333D01*
X141098308Y-89084499D01*
X141640002Y-89084499D01*
X141640008Y-89084499D01*
X141742797Y-89073999D01*
X141909334Y-89018814D01*
X142058656Y-88926712D01*
X142152675Y-88832692D01*
X142213994Y-88799210D01*
X142283686Y-88804194D01*
X142328034Y-88832695D01*
X142421654Y-88926315D01*
X142570875Y-89018356D01*
X142570880Y-89018358D01*
X142737302Y-89073505D01*
X142737309Y-89073506D01*
X142840019Y-89083999D01*
X142902499Y-89083998D01*
X142902500Y-89083998D01*
X142902500Y-88134000D01*
X143402500Y-88134000D01*
X143402500Y-89083999D01*
X143464972Y-89083999D01*
X143464986Y-89083998D01*
X143567697Y-89073505D01*
X143734119Y-89018358D01*
X143734124Y-89018356D01*
X143883345Y-88926315D01*
X144007315Y-88802345D01*
X144099356Y-88653124D01*
X144099358Y-88653119D01*
X144154505Y-88486697D01*
X144154506Y-88486690D01*
X144164999Y-88383986D01*
X144165000Y-88383973D01*
X144165000Y-88134000D01*
X146792001Y-88134000D01*
X146792001Y-88383986D01*
X146802494Y-88486697D01*
X146857641Y-88653119D01*
X146857643Y-88653124D01*
X146949684Y-88802345D01*
X147073654Y-88926315D01*
X147222875Y-89018356D01*
X147222880Y-89018358D01*
X147389302Y-89073505D01*
X147389309Y-89073506D01*
X147492019Y-89083999D01*
X147554499Y-89083998D01*
X147554500Y-89083998D01*
X147554500Y-88134000D01*
X146792001Y-88134000D01*
X144165000Y-88134000D01*
X143402500Y-88134000D01*
X142902500Y-88134000D01*
X142902500Y-86684000D01*
X143402500Y-86684000D01*
X143402500Y-87634000D01*
X144164999Y-87634000D01*
X146792000Y-87634000D01*
X147554500Y-87634000D01*
X147554500Y-86684000D01*
X147554499Y-86683999D01*
X147492028Y-86684000D01*
X147492011Y-86684001D01*
X147389302Y-86694494D01*
X147222880Y-86749641D01*
X147222875Y-86749643D01*
X147073654Y-86841684D01*
X146949684Y-86965654D01*
X146857643Y-87114875D01*
X146857641Y-87114880D01*
X146802494Y-87281302D01*
X146802493Y-87281309D01*
X146792000Y-87384013D01*
X146792000Y-87634000D01*
X144164999Y-87634000D01*
X144164999Y-87384028D01*
X144164998Y-87384013D01*
X144154505Y-87281302D01*
X144099358Y-87114880D01*
X144099356Y-87114875D01*
X144007315Y-86965654D01*
X143883345Y-86841684D01*
X143734124Y-86749643D01*
X143734119Y-86749641D01*
X143567697Y-86694494D01*
X143567690Y-86694493D01*
X143464986Y-86684000D01*
X143402500Y-86684000D01*
X142902500Y-86684000D01*
X142902500Y-86668806D01*
X142922185Y-86601767D01*
X142938813Y-86581132D01*
X143997126Y-85522819D01*
X144058450Y-85489334D01*
X144084808Y-85486500D01*
X144723017Y-85486500D01*
X144790056Y-85506185D01*
X144821970Y-85535773D01*
X144906132Y-85647222D01*
X144906134Y-85647224D01*
X144906138Y-85647228D01*
X145070344Y-85796921D01*
X145070346Y-85796923D01*
X145259266Y-85913897D01*
X145259272Y-85913900D01*
X145278498Y-85921348D01*
X145466472Y-85994170D01*
X145684896Y-86035000D01*
X145684899Y-86035000D01*
X145907101Y-86035000D01*
X145907104Y-86035000D01*
X146125528Y-85994170D01*
X146332730Y-85913899D01*
X146521655Y-85796922D01*
X146685868Y-85647222D01*
X146770029Y-85535773D01*
X146826137Y-85494137D01*
X146868983Y-85486500D01*
X152343017Y-85486500D01*
X152410056Y-85506185D01*
X152441970Y-85535773D01*
X152526132Y-85647222D01*
X152526134Y-85647224D01*
X152526138Y-85647228D01*
X152690344Y-85796921D01*
X152690346Y-85796923D01*
X152879266Y-85913897D01*
X152879272Y-85913900D01*
X152898498Y-85921348D01*
X153086472Y-85994170D01*
X153304896Y-86035000D01*
X153304899Y-86035000D01*
X153527101Y-86035000D01*
X153527104Y-86035000D01*
X153745528Y-85994170D01*
X153952730Y-85913899D01*
X154141655Y-85796922D01*
X154300658Y-85651972D01*
X154305866Y-85647224D01*
X154305870Y-85647219D01*
X154439778Y-85469896D01*
X154538824Y-85270984D01*
X154599634Y-85057260D01*
X154620137Y-84836000D01*
X154612571Y-84754356D01*
X154599634Y-84614740D01*
X154599633Y-84614738D01*
X154596024Y-84602055D01*
X154538824Y-84401016D01*
X154537181Y-84397717D01*
X154479566Y-84282010D01*
X154439778Y-84202104D01*
X154333460Y-84061316D01*
X154305866Y-84024775D01*
X154141655Y-83875078D01*
X154141653Y-83875076D01*
X153952733Y-83758102D01*
X153952727Y-83758099D01*
X153816420Y-83705294D01*
X153745528Y-83677830D01*
X153527104Y-83637000D01*
X153304896Y-83637000D01*
X153086472Y-83677830D01*
X153047657Y-83692867D01*
X152879272Y-83758099D01*
X152879266Y-83758102D01*
X152690346Y-83875076D01*
X152690344Y-83875078D01*
X152526138Y-84024771D01*
X152526130Y-84024780D01*
X152441971Y-84136226D01*
X152385863Y-84177863D01*
X152343017Y-84185500D01*
X146868983Y-84185500D01*
X146801944Y-84165815D01*
X146770029Y-84136226D01*
X146749666Y-84109261D01*
X146685868Y-84024778D01*
X146685863Y-84024774D01*
X146685861Y-84024771D01*
X146521655Y-83875078D01*
X146521653Y-83875076D01*
X146332733Y-83758102D01*
X146332727Y-83758099D01*
X146196420Y-83705294D01*
X146125528Y-83677830D01*
X145907104Y-83637000D01*
X145684896Y-83637000D01*
X145466472Y-83677830D01*
X145427657Y-83692867D01*
X145259272Y-83758099D01*
X145259266Y-83758102D01*
X145070346Y-83875076D01*
X145070344Y-83875078D01*
X144906138Y-84024771D01*
X144906130Y-84024780D01*
X144821971Y-84136226D01*
X144765863Y-84177863D01*
X144723017Y-84185500D01*
X143849504Y-84185500D01*
X143833493Y-84183732D01*
X143833471Y-84183974D01*
X143825704Y-84183240D01*
X143825703Y-84183240D01*
X143753796Y-84185500D01*
X143723075Y-84185500D01*
X143723071Y-84185500D01*
X143723061Y-84185501D01*
X143715793Y-84186419D01*
X143709976Y-84186876D01*
X143661435Y-84188402D01*
X143661424Y-84188404D01*
X143641048Y-84194323D01*
X143622008Y-84198266D01*
X143600947Y-84200927D01*
X143600939Y-84200929D01*
X143555775Y-84218811D01*
X143550247Y-84220703D01*
X143503602Y-84234255D01*
X143485332Y-84245060D01*
X143467863Y-84253618D01*
X143448128Y-84261432D01*
X143448126Y-84261433D01*
X143408839Y-84289977D01*
X143403956Y-84293184D01*
X143362132Y-84317919D01*
X143347126Y-84332926D01*
X143332336Y-84345558D01*
X143315167Y-84358032D01*
X143315165Y-84358034D01*
X143284194Y-84395470D01*
X143280262Y-84399791D01*
X141025648Y-86654404D01*
X140964325Y-86687889D01*
X140950571Y-86690081D01*
X140912204Y-86694000D01*
X140912203Y-86694001D01*
X140874022Y-86706653D01*
X140745668Y-86749185D01*
X140745663Y-86749187D01*
X140596342Y-86841289D01*
X140472289Y-86965342D01*
X140380187Y-87114663D01*
X140380185Y-87114668D01*
X140377329Y-87123287D01*
X140325001Y-87281203D01*
X140325001Y-87281204D01*
X140325000Y-87281204D01*
X140314500Y-87383983D01*
X140314500Y-87925690D01*
X140294815Y-87992729D01*
X140278181Y-88013371D01*
X139818483Y-88473069D01*
X139805910Y-88483143D01*
X139806065Y-88483330D01*
X139800059Y-88488298D01*
X139794487Y-88494232D01*
X139750809Y-88540744D01*
X139739949Y-88551604D01*
X139729088Y-88562465D01*
X139729078Y-88562477D01*
X139724587Y-88568265D01*
X139720801Y-88572697D01*
X139687552Y-88608106D01*
X139677322Y-88626713D01*
X139666646Y-88642964D01*
X139653640Y-88659732D01*
X139653636Y-88659738D01*
X139634348Y-88704311D01*
X139631777Y-88709558D01*
X139608372Y-88752130D01*
X139608372Y-88752131D01*
X139603091Y-88772699D01*
X139596791Y-88791101D01*
X139588364Y-88810573D01*
X139580766Y-88858547D01*
X139579581Y-88864270D01*
X139567500Y-88911318D01*
X139567500Y-88932544D01*
X139565973Y-88951944D01*
X139565163Y-88957061D01*
X139562653Y-88972905D01*
X139564357Y-88990931D01*
X139567225Y-89021267D01*
X139567500Y-89027106D01*
X139567500Y-90774009D01*
X139547815Y-90841048D01*
X139502518Y-90883063D01*
X139394501Y-90941519D01*
X139394494Y-90941523D01*
X139198255Y-91094262D01*
X139198252Y-91094265D01*
X139039228Y-91267010D01*
X138979341Y-91303001D01*
X138909503Y-91300900D01*
X138856770Y-91267011D01*
X138697744Y-91094262D01*
X138501509Y-90941526D01*
X138501507Y-90941525D01*
X138501506Y-90941524D01*
X138282811Y-90823172D01*
X138282802Y-90823169D01*
X138047616Y-90742429D01*
X137802335Y-90701500D01*
X137553665Y-90701500D01*
X137308383Y-90742429D01*
X137073197Y-90823169D01*
X137073188Y-90823172D01*
X136854493Y-90941524D01*
X136658257Y-91094261D01*
X136489833Y-91277217D01*
X136353826Y-91485393D01*
X136253936Y-91713118D01*
X136192892Y-91954175D01*
X136192890Y-91954187D01*
X136172357Y-92201994D01*
X136172357Y-92202005D01*
X132337700Y-92202005D01*
X132337700Y-91866826D01*
X132357384Y-91799791D01*
X132374009Y-91779158D01*
X132429912Y-91723256D01*
X132431952Y-91719947D01*
X132433945Y-91718155D01*
X132434393Y-91717589D01*
X132434489Y-91717665D01*
X132483894Y-91673223D01*
X132552856Y-91661995D01*
X132616940Y-91689834D01*
X132643029Y-91719939D01*
X132644881Y-91722941D01*
X132644883Y-91722944D01*
X132768854Y-91846915D01*
X132918075Y-91938956D01*
X132918080Y-91938958D01*
X133084502Y-91994105D01*
X133084509Y-91994106D01*
X133187219Y-92004599D01*
X133237199Y-92004598D01*
X133237200Y-92004598D01*
X133237200Y-91029600D01*
X133737200Y-91029600D01*
X133737200Y-92004599D01*
X133787172Y-92004599D01*
X133787186Y-92004598D01*
X133889897Y-91994105D01*
X134056319Y-91938958D01*
X134056324Y-91938956D01*
X134205545Y-91846915D01*
X134329515Y-91722945D01*
X134421556Y-91573724D01*
X134421558Y-91573719D01*
X134476705Y-91407297D01*
X134476706Y-91407290D01*
X134487199Y-91304586D01*
X134487200Y-91304573D01*
X134487200Y-91029600D01*
X133737200Y-91029600D01*
X133237200Y-91029600D01*
X133237200Y-90529600D01*
X133737199Y-90529600D01*
X134487199Y-90529600D01*
X134487199Y-90254628D01*
X134487198Y-90254613D01*
X134476705Y-90151902D01*
X134421558Y-89985480D01*
X134421556Y-89985475D01*
X134329515Y-89836254D01*
X134205545Y-89712284D01*
X134056324Y-89620243D01*
X134056319Y-89620241D01*
X133889897Y-89565094D01*
X133889890Y-89565093D01*
X133787186Y-89554600D01*
X133737200Y-89554600D01*
X133737199Y-90529600D01*
X133237200Y-90529600D01*
X133237200Y-89554600D01*
X133237199Y-89554599D01*
X133187229Y-89554600D01*
X133187211Y-89554601D01*
X133084502Y-89565094D01*
X132920042Y-89619591D01*
X132850214Y-89621993D01*
X132790172Y-89586261D01*
X132758979Y-89523741D01*
X132766540Y-89454281D01*
X132788886Y-89418915D01*
X132914133Y-89279816D01*
X133008779Y-89115884D01*
X133067274Y-88935856D01*
X133087060Y-88747600D01*
X133067274Y-88559344D01*
X133008779Y-88379316D01*
X132914133Y-88215384D01*
X132832274Y-88124471D01*
X132802045Y-88061481D01*
X132810670Y-87992146D01*
X132855411Y-87938480D01*
X132922064Y-87917522D01*
X132924425Y-87917500D01*
X133174192Y-87917500D01*
X133241231Y-87937185D01*
X133261873Y-87953819D01*
X134625868Y-89317814D01*
X134659353Y-89379137D01*
X134661507Y-89392528D01*
X134674199Y-89513283D01*
X134674200Y-89513286D01*
X134732691Y-89693304D01*
X134732694Y-89693311D01*
X134827340Y-89857243D01*
X134948916Y-89992266D01*
X134954002Y-89997915D01*
X135107138Y-90109175D01*
X135107143Y-90109178D01*
X135280065Y-90186169D01*
X135280070Y-90186171D01*
X135465227Y-90225527D01*
X135465228Y-90225527D01*
X135654517Y-90225527D01*
X135654519Y-90225527D01*
X135839676Y-90186171D01*
X136012603Y-90109178D01*
X136165744Y-89997915D01*
X136292406Y-89857243D01*
X136387052Y-89693311D01*
X136445547Y-89513283D01*
X136465333Y-89325027D01*
X136445547Y-89136771D01*
X136387052Y-88956743D01*
X136292406Y-88792811D01*
X136165744Y-88652139D01*
X136159965Y-88647940D01*
X136012607Y-88540878D01*
X136012602Y-88540875D01*
X135839680Y-88463884D01*
X135839675Y-88463882D01*
X135693874Y-88432892D01*
X135654519Y-88424527D01*
X135654518Y-88424527D01*
X135623835Y-88424527D01*
X135556796Y-88404842D01*
X135536154Y-88388208D01*
X134612777Y-87464831D01*
X134579292Y-87403508D01*
X134584276Y-87333816D01*
X134626148Y-87277883D01*
X134635338Y-87271626D01*
X134654656Y-87259712D01*
X134654661Y-87259706D01*
X134660325Y-87255229D01*
X134660362Y-87255277D01*
X134666204Y-87250518D01*
X134666164Y-87250471D01*
X134671686Y-87245836D01*
X134671696Y-87245830D01*
X134702991Y-87212659D01*
X134724386Y-87189982D01*
X135076699Y-86837668D01*
X135196752Y-86717614D01*
X135258073Y-86684131D01*
X135304840Y-86682988D01*
X135511665Y-86717500D01*
X135760335Y-86717500D01*
X136005614Y-86676571D01*
X136240810Y-86595828D01*
X136459509Y-86477474D01*
X136655744Y-86324738D01*
X136814771Y-86151988D01*
X136874657Y-86115999D01*
X136944495Y-86118099D01*
X136997228Y-86151988D01*
X137156256Y-86324738D01*
X137352491Y-86477474D01*
X137352493Y-86477475D01*
X137568340Y-86594286D01*
X137571190Y-86595828D01*
X137806386Y-86676571D01*
X138051665Y-86717500D01*
X138300335Y-86717500D01*
X138545614Y-86676571D01*
X138780810Y-86595828D01*
X138999509Y-86477474D01*
X139195744Y-86324738D01*
X139364164Y-86141785D01*
X139500173Y-85933607D01*
X139600063Y-85705881D01*
X139661108Y-85464821D01*
X139662391Y-85449335D01*
X139681643Y-85217005D01*
X139681643Y-85216994D01*
X139661109Y-84969187D01*
X139661106Y-84969170D01*
X139650930Y-84928989D01*
X139640014Y-84885882D01*
X139642638Y-84816065D01*
X139665236Y-84775730D01*
X139672801Y-84766715D01*
X139676767Y-84760685D01*
X139676818Y-84760719D01*
X139680872Y-84754356D01*
X139680820Y-84754324D01*
X139684612Y-84748175D01*
X139717075Y-84678558D01*
X139736699Y-84639484D01*
X139751540Y-84609933D01*
X139751542Y-84609921D01*
X139754009Y-84603146D01*
X139754067Y-84603167D01*
X139756543Y-84596046D01*
X139756486Y-84596028D01*
X139758757Y-84589173D01*
X139774292Y-84513934D01*
X139791998Y-84439228D01*
X139792000Y-84439221D01*
X139792000Y-84439210D01*
X139792838Y-84432048D01*
X139792898Y-84432055D01*
X139793664Y-84424555D01*
X139793605Y-84424550D01*
X139794234Y-84417360D01*
X139794150Y-84414489D01*
X139792000Y-84340582D01*
X139792000Y-83497729D01*
X139811685Y-83430691D01*
X139828319Y-83410049D01*
X139866319Y-83372049D01*
X139927642Y-83338564D01*
X139997334Y-83343548D01*
X140041681Y-83372048D01*
X140135344Y-83465712D01*
X140284666Y-83557814D01*
X140451203Y-83612999D01*
X140553991Y-83623500D01*
X141179008Y-83623499D01*
X141179016Y-83623498D01*
X141179019Y-83623498D01*
X141235302Y-83617748D01*
X141281797Y-83612999D01*
X141448334Y-83557814D01*
X141597656Y-83465712D01*
X141721712Y-83341656D01*
X141813814Y-83192334D01*
X141868999Y-83025797D01*
X141879500Y-82923009D01*
X141879499Y-81922992D01*
X141878561Y-81913814D01*
X141868999Y-81820203D01*
X141868998Y-81820200D01*
X141852907Y-81771641D01*
X141813814Y-81653666D01*
X141766968Y-81577716D01*
X141748529Y-81510326D01*
X141769452Y-81443663D01*
X141784823Y-81424944D01*
X141847684Y-81362082D01*
X141904294Y-81331171D01*
X141904028Y-81330350D01*
X141908398Y-81328930D01*
X141909005Y-81328599D01*
X141909164Y-81328564D01*
X141910203Y-81328344D01*
X142083130Y-81251351D01*
X142236271Y-81140088D01*
X142362933Y-80999416D01*
X142457579Y-80835484D01*
X142481777Y-80761007D01*
X142521213Y-80703332D01*
X142573928Y-80678035D01*
X142593072Y-80673965D01*
X142621403Y-80667944D01*
X142621406Y-80667942D01*
X142621408Y-80667942D01*
X142735500Y-80617144D01*
X142794330Y-80590951D01*
X142822865Y-80570219D01*
X142877972Y-80530182D01*
X142943778Y-80506702D01*
X142950857Y-80506500D01*
X142970663Y-80506500D01*
X143037702Y-80526185D01*
X143043548Y-80530182D01*
X143057265Y-80540148D01*
X143057270Y-80540151D01*
X143230192Y-80617142D01*
X143230197Y-80617144D01*
X143415354Y-80656500D01*
X143415355Y-80656500D01*
X143604644Y-80656500D01*
X143604646Y-80656500D01*
X143789803Y-80617144D01*
X143962730Y-80540151D01*
X143970939Y-80534187D01*
X143976452Y-80530182D01*
X144042258Y-80506702D01*
X144049337Y-80506500D01*
X144798532Y-80506500D01*
X144865571Y-80526185D01*
X144897485Y-80555772D01*
X144906132Y-80567223D01*
X145070344Y-80716921D01*
X145070346Y-80716923D01*
X145259266Y-80833897D01*
X145259272Y-80833900D01*
X145263361Y-80835484D01*
X145466472Y-80914170D01*
X145684896Y-80955000D01*
X145684899Y-80955000D01*
X145907101Y-80955000D01*
X145907104Y-80955000D01*
X146125528Y-80914170D01*
X146332730Y-80833899D01*
X146521655Y-80716922D01*
X146675474Y-80576697D01*
X146685867Y-80567223D01*
X146694515Y-80555772D01*
X146750624Y-80514137D01*
X146793468Y-80506500D01*
X150743063Y-80506500D01*
X150810102Y-80526185D01*
X150815948Y-80530182D01*
X150829665Y-80540148D01*
X150829670Y-80540151D01*
X151002592Y-80617142D01*
X151002597Y-80617144D01*
X151187754Y-80656500D01*
X151187755Y-80656500D01*
X151377044Y-80656500D01*
X151377046Y-80656500D01*
X151562203Y-80617144D01*
X151735130Y-80540151D01*
X151743339Y-80534187D01*
X151748852Y-80530182D01*
X151814658Y-80506702D01*
X151821737Y-80506500D01*
X152418532Y-80506500D01*
X152485571Y-80526185D01*
X152517485Y-80555772D01*
X152526132Y-80567223D01*
X152690344Y-80716921D01*
X152690346Y-80716923D01*
X152879266Y-80833897D01*
X152879272Y-80833900D01*
X152883361Y-80835484D01*
X153086472Y-80914170D01*
X153304896Y-80955000D01*
X153304899Y-80955000D01*
X153527101Y-80955000D01*
X153527104Y-80955000D01*
X153745528Y-80914170D01*
X153952730Y-80833899D01*
X154141655Y-80716922D01*
X154291522Y-80580300D01*
X154305866Y-80567224D01*
X154305868Y-80567222D01*
X154439778Y-80389896D01*
X154538824Y-80190984D01*
X154599634Y-79977260D01*
X154620137Y-79756000D01*
X154617343Y-79725853D01*
X154599634Y-79534740D01*
X154599633Y-79534738D01*
X154590610Y-79503026D01*
X154538824Y-79321016D01*
X154534624Y-79312582D01*
X154464016Y-79170781D01*
X154439778Y-79122104D01*
X154351723Y-79005500D01*
X154305866Y-78944775D01*
X154141655Y-78795078D01*
X154141653Y-78795076D01*
X153952733Y-78678102D01*
X153952727Y-78678099D01*
X153845080Y-78636397D01*
X153745528Y-78597830D01*
X153527104Y-78557000D01*
X153304896Y-78557000D01*
X153086472Y-78597830D01*
X153036695Y-78617113D01*
X152879272Y-78678099D01*
X152879266Y-78678102D01*
X152690346Y-78795076D01*
X152690344Y-78795078D01*
X152526132Y-78944776D01*
X152517485Y-78956228D01*
X152461376Y-78997863D01*
X152418532Y-79005500D01*
X151821737Y-79005500D01*
X151754698Y-78985815D01*
X151748852Y-78981818D01*
X151735134Y-78971851D01*
X151735129Y-78971848D01*
X151562207Y-78894857D01*
X151562202Y-78894855D01*
X151416400Y-78863865D01*
X151377046Y-78855500D01*
X151187754Y-78855500D01*
X151155297Y-78862398D01*
X151002597Y-78894855D01*
X151002592Y-78894857D01*
X150829670Y-78971848D01*
X150829665Y-78971851D01*
X150815948Y-78981818D01*
X150750142Y-79005298D01*
X150743063Y-79005500D01*
X146793468Y-79005500D01*
X146726429Y-78985815D01*
X146694515Y-78956228D01*
X146685867Y-78944776D01*
X146521655Y-78795078D01*
X146521653Y-78795076D01*
X146332733Y-78678102D01*
X146332727Y-78678099D01*
X146225080Y-78636397D01*
X146125528Y-78597830D01*
X145907104Y-78557000D01*
X145684896Y-78557000D01*
X145466472Y-78597830D01*
X145416695Y-78617113D01*
X145259272Y-78678099D01*
X145259266Y-78678102D01*
X145070346Y-78795076D01*
X145070344Y-78795078D01*
X144906132Y-78944776D01*
X144897485Y-78956228D01*
X144841376Y-78997863D01*
X144798532Y-79005500D01*
X144049337Y-79005500D01*
X143982298Y-78985815D01*
X143976452Y-78981818D01*
X143962734Y-78971851D01*
X143962729Y-78971848D01*
X143789807Y-78894857D01*
X143789802Y-78894855D01*
X143644000Y-78863865D01*
X143604646Y-78855500D01*
X143415354Y-78855500D01*
X143382897Y-78862398D01*
X143230197Y-78894855D01*
X143230192Y-78894857D01*
X143057270Y-78971848D01*
X143057265Y-78971851D01*
X143043548Y-78981818D01*
X142977742Y-79005298D01*
X142970663Y-79005500D01*
X142782170Y-79005500D01*
X142731734Y-78994779D01*
X142621407Y-78945657D01*
X142621402Y-78945655D01*
X142475600Y-78914665D01*
X142436246Y-78906300D01*
X142246954Y-78906300D01*
X142214497Y-78913198D01*
X142061797Y-78945655D01*
X142061792Y-78945657D01*
X141888870Y-79022648D01*
X141888865Y-79022651D01*
X141735729Y-79133911D01*
X141609066Y-79274585D01*
X141514421Y-79438515D01*
X141514419Y-79438519D01*
X141490221Y-79512993D01*
X141450783Y-79570668D01*
X141398073Y-79595964D01*
X141350594Y-79606056D01*
X141350592Y-79606057D01*
X141177670Y-79683048D01*
X141177665Y-79683051D01*
X141024529Y-79794311D01*
X140897866Y-79934985D01*
X140803221Y-80098915D01*
X140803218Y-80098922D01*
X140744727Y-80278939D01*
X140744725Y-80278950D01*
X140741873Y-80306080D01*
X140715288Y-80370694D01*
X140706234Y-80380797D01*
X140380858Y-80706172D01*
X140367229Y-80717951D01*
X140347968Y-80732290D01*
X140314398Y-80772297D01*
X140310753Y-80776276D01*
X140304909Y-80782122D01*
X140284559Y-80807859D01*
X140235195Y-80866689D01*
X140231229Y-80872719D01*
X140231182Y-80872688D01*
X140227130Y-80879047D01*
X140227179Y-80879077D01*
X140223389Y-80885221D01*
X140190924Y-80954841D01*
X140156460Y-81023466D01*
X140153988Y-81030257D01*
X140153932Y-81030236D01*
X140151460Y-81037350D01*
X140151515Y-81037369D01*
X140149242Y-81044227D01*
X140141474Y-81081845D01*
X140133707Y-81119465D01*
X140122086Y-81168500D01*
X140115998Y-81194186D01*
X140115161Y-81201354D01*
X140115101Y-81201347D01*
X140114335Y-81208845D01*
X140114395Y-81208851D01*
X140113765Y-81216040D01*
X140116000Y-81292816D01*
X140116000Y-81348270D01*
X140096315Y-81415309D01*
X140079681Y-81435951D01*
X140041681Y-81473951D01*
X139980358Y-81507436D01*
X139910666Y-81502452D01*
X139866319Y-81473951D01*
X139772657Y-81380289D01*
X139772656Y-81380288D01*
X139679888Y-81323069D01*
X139623336Y-81288187D01*
X139623331Y-81288185D01*
X139621638Y-81287624D01*
X139456797Y-81233001D01*
X139456795Y-81233000D01*
X139354010Y-81222500D01*
X138728998Y-81222500D01*
X138728980Y-81222501D01*
X138626203Y-81233000D01*
X138626200Y-81233001D01*
X138459668Y-81288185D01*
X138459663Y-81288187D01*
X138310342Y-81380289D01*
X138186289Y-81504342D01*
X138094187Y-81653663D01*
X138094185Y-81653668D01*
X138073530Y-81716001D01*
X138039001Y-81820203D01*
X138039001Y-81820204D01*
X138039000Y-81820204D01*
X138028500Y-81922983D01*
X138028500Y-82923001D01*
X138028501Y-82923019D01*
X138039000Y-83025796D01*
X138039001Y-83025799D01*
X138071555Y-83124039D01*
X138094186Y-83192334D01*
X138180465Y-83332216D01*
X138186289Y-83341657D01*
X138254681Y-83410048D01*
X138288166Y-83471371D01*
X138291000Y-83497730D01*
X138291000Y-83592500D01*
X138271315Y-83659539D01*
X138218511Y-83705294D01*
X138167000Y-83716500D01*
X138051665Y-83716500D01*
X137806383Y-83757429D01*
X137571197Y-83838169D01*
X137571188Y-83838172D01*
X137352493Y-83956524D01*
X137156257Y-84109261D01*
X136997230Y-84282010D01*
X136937342Y-84318001D01*
X136867504Y-84315900D01*
X136814770Y-84282010D01*
X136761398Y-84224033D01*
X136655744Y-84109262D01*
X136459509Y-83956526D01*
X136459507Y-83956525D01*
X136459506Y-83956524D01*
X136240811Y-83838172D01*
X136240802Y-83838169D01*
X136005616Y-83757429D01*
X135760335Y-83716500D01*
X135511665Y-83716500D01*
X135266383Y-83757429D01*
X135031197Y-83838169D01*
X135031188Y-83838172D01*
X134812493Y-83956524D01*
X134616257Y-84109261D01*
X134457230Y-84282010D01*
X134397342Y-84318001D01*
X134327504Y-84315900D01*
X134274770Y-84282010D01*
X134221398Y-84224033D01*
X134115744Y-84109262D01*
X133919509Y-83956526D01*
X133919507Y-83956525D01*
X133919506Y-83956524D01*
X133700811Y-83838172D01*
X133700802Y-83838169D01*
X133465617Y-83757429D01*
X133357772Y-83739433D01*
X133294887Y-83708982D01*
X133258447Y-83649367D01*
X133260023Y-83579515D01*
X133290499Y-83529445D01*
X139149091Y-77670853D01*
X139210412Y-77637370D01*
X139277032Y-77641254D01*
X139301520Y-77649661D01*
X139330385Y-77659571D01*
X139575665Y-77700500D01*
X139824335Y-77700500D01*
X140069614Y-77659571D01*
X140304810Y-77578828D01*
X140523509Y-77460474D01*
X140719744Y-77307738D01*
X140888164Y-77124785D01*
X141024173Y-76916607D01*
X141124063Y-76688881D01*
X141185108Y-76447821D01*
X141185116Y-76447729D01*
X141205643Y-76200005D01*
X141205643Y-76199994D01*
X141185109Y-75952187D01*
X141185107Y-75952175D01*
X141124063Y-75711118D01*
X141024173Y-75483393D01*
X140888166Y-75275217D01*
X140851530Y-75235420D01*
X140719744Y-75092262D01*
X140523509Y-74939526D01*
X140523507Y-74939525D01*
X140523506Y-74939524D01*
X140304811Y-74821172D01*
X140304802Y-74821169D01*
X140069616Y-74740429D01*
X139824335Y-74699500D01*
X139575665Y-74699500D01*
X139330383Y-74740429D01*
X139095197Y-74821169D01*
X139095188Y-74821172D01*
X138876493Y-74939524D01*
X138680257Y-75092261D01*
X138521230Y-75265010D01*
X138461342Y-75301001D01*
X138391504Y-75298900D01*
X138338770Y-75265010D01*
X138299108Y-75221926D01*
X138179744Y-75092262D01*
X137983509Y-74939526D01*
X137983507Y-74939525D01*
X137983506Y-74939524D01*
X137764811Y-74821172D01*
X137764802Y-74821169D01*
X137529616Y-74740429D01*
X137284335Y-74699500D01*
X137035665Y-74699500D01*
X136790383Y-74740429D01*
X136555197Y-74821169D01*
X136555188Y-74821172D01*
X136336493Y-74939524D01*
X136140257Y-75092261D01*
X135981230Y-75265010D01*
X135921342Y-75301001D01*
X135851504Y-75298900D01*
X135798770Y-75265010D01*
X135759108Y-75221926D01*
X135639744Y-75092262D01*
X135443509Y-74939526D01*
X135443507Y-74939525D01*
X135443506Y-74939524D01*
X135224811Y-74821172D01*
X135224802Y-74821169D01*
X134989616Y-74740429D01*
X134744335Y-74699500D01*
X134495665Y-74699500D01*
X134250383Y-74740429D01*
X134015197Y-74821169D01*
X134015188Y-74821172D01*
X133796493Y-74939524D01*
X133600255Y-75092262D01*
X133600252Y-75092265D01*
X133441228Y-75265010D01*
X133381341Y-75301001D01*
X133311503Y-75298900D01*
X133258770Y-75265011D01*
X133099744Y-75092262D01*
X132903509Y-74939526D01*
X132903507Y-74939525D01*
X132903506Y-74939524D01*
X132684811Y-74821172D01*
X132684802Y-74821169D01*
X132449616Y-74740429D01*
X132204335Y-74699500D01*
X131955665Y-74699500D01*
X131710383Y-74740429D01*
X131475197Y-74821169D01*
X131475188Y-74821172D01*
X131256493Y-74939524D01*
X131060257Y-75092261D01*
X130901230Y-75265010D01*
X130841342Y-75301001D01*
X130771504Y-75298900D01*
X130718770Y-75265010D01*
X130679108Y-75221926D01*
X130559744Y-75092262D01*
X130363509Y-74939526D01*
X130363507Y-74939525D01*
X130363506Y-74939524D01*
X130144811Y-74821172D01*
X130144802Y-74821169D01*
X129909616Y-74740429D01*
X129664335Y-74699500D01*
X129415665Y-74699500D01*
X129170383Y-74740429D01*
X128935197Y-74821169D01*
X128935188Y-74821172D01*
X128716493Y-74939524D01*
X128520257Y-75092261D01*
X128361230Y-75265010D01*
X128301342Y-75301001D01*
X128231504Y-75298900D01*
X128178770Y-75265010D01*
X128139108Y-75221926D01*
X128019744Y-75092262D01*
X127823509Y-74939526D01*
X127823507Y-74939525D01*
X127823506Y-74939524D01*
X127604811Y-74821172D01*
X127604802Y-74821169D01*
X127369616Y-74740429D01*
X127124335Y-74699500D01*
X126875665Y-74699500D01*
X126630383Y-74740429D01*
X126395197Y-74821169D01*
X126395188Y-74821172D01*
X126176493Y-74939524D01*
X125980257Y-75092261D01*
X125811833Y-75275217D01*
X125675826Y-75483393D01*
X125575936Y-75711118D01*
X125514892Y-75952175D01*
X125514890Y-75952187D01*
X125494357Y-76199994D01*
X125494357Y-76200005D01*
X125514890Y-76447812D01*
X125514892Y-76447824D01*
X125561719Y-76632737D01*
X125559094Y-76702557D01*
X125529194Y-76750858D01*
X121854887Y-80425165D01*
X121793564Y-80458650D01*
X121792989Y-80458774D01*
X121741794Y-80469656D01*
X121741792Y-80469657D01*
X121568870Y-80546648D01*
X121568865Y-80546651D01*
X121415729Y-80657911D01*
X121289065Y-80798585D01*
X121201545Y-80950175D01*
X121150978Y-80998391D01*
X121119940Y-81009465D01*
X121030596Y-81028456D01*
X121030592Y-81028457D01*
X120857670Y-81105448D01*
X120857665Y-81105451D01*
X120704529Y-81216711D01*
X120577866Y-81357385D01*
X120483221Y-81521315D01*
X120483219Y-81521319D01*
X120451215Y-81619819D01*
X120411777Y-81677494D01*
X120347418Y-81704692D01*
X120333284Y-81705500D01*
X119775998Y-81705500D01*
X119775980Y-81705501D01*
X119673203Y-81716000D01*
X119673200Y-81716001D01*
X119506668Y-81771185D01*
X119506663Y-81771187D01*
X119357342Y-81863289D01*
X119233288Y-81987343D01*
X119233283Y-81987349D01*
X119231241Y-81990661D01*
X119229247Y-81992453D01*
X119228807Y-81993011D01*
X119228711Y-81992935D01*
X119179291Y-82037383D01*
X119110328Y-82048602D01*
X119046247Y-82020755D01*
X119020168Y-81990656D01*
X119018319Y-81987659D01*
X119018316Y-81987655D01*
X118894345Y-81863684D01*
X118745124Y-81771643D01*
X118745119Y-81771641D01*
X118578697Y-81716494D01*
X118578689Y-81716493D01*
X118496588Y-81708105D01*
X118431896Y-81681708D01*
X118391745Y-81624527D01*
X118385870Y-81571785D01*
X118386072Y-81569861D01*
X118386074Y-81569856D01*
X118405860Y-81381600D01*
X118386074Y-81193344D01*
X118327579Y-81013316D01*
X118232933Y-80849384D01*
X118113663Y-80716922D01*
X118106273Y-80708714D01*
X118106272Y-80708713D01*
X118106271Y-80708712D01*
X118030368Y-80653565D01*
X117987705Y-80598239D01*
X117981726Y-80528626D01*
X118014331Y-80466830D01*
X118015501Y-80465643D01*
X120981915Y-77499229D01*
X121043236Y-77465746D01*
X121112928Y-77470730D01*
X121128611Y-77477857D01*
X121209122Y-77521427D01*
X121315190Y-77578828D01*
X121529017Y-77652235D01*
X121548964Y-77659083D01*
X121550386Y-77659571D01*
X121795665Y-77700500D01*
X122044335Y-77700500D01*
X122289614Y-77659571D01*
X122524810Y-77578828D01*
X122743509Y-77460474D01*
X122939744Y-77307738D01*
X123108164Y-77124785D01*
X123244173Y-76916607D01*
X123344063Y-76688881D01*
X123405108Y-76447821D01*
X123405116Y-76447729D01*
X123425643Y-76200005D01*
X123425643Y-76199994D01*
X123405109Y-75952187D01*
X123405107Y-75952175D01*
X123344063Y-75711118D01*
X123244173Y-75483393D01*
X123108166Y-75275217D01*
X123071530Y-75235420D01*
X122939744Y-75092262D01*
X122743509Y-74939526D01*
X122743507Y-74939525D01*
X122743506Y-74939524D01*
X122524811Y-74821172D01*
X122524802Y-74821169D01*
X122289616Y-74740429D01*
X122044335Y-74699500D01*
X121795665Y-74699500D01*
X121550383Y-74740429D01*
X121315197Y-74821169D01*
X121315188Y-74821172D01*
X121096493Y-74939524D01*
X120900257Y-75092261D01*
X120741230Y-75265010D01*
X120681342Y-75301001D01*
X120611504Y-75298900D01*
X120558770Y-75265010D01*
X120519108Y-75221926D01*
X120399744Y-75092262D01*
X120203509Y-74939526D01*
X120203507Y-74939525D01*
X120203506Y-74939524D01*
X119984811Y-74821172D01*
X119984802Y-74821169D01*
X119749616Y-74740429D01*
X119504335Y-74699500D01*
X119255665Y-74699500D01*
X119010383Y-74740429D01*
X118775197Y-74821169D01*
X118775188Y-74821172D01*
X118556493Y-74939524D01*
X118360257Y-75092261D01*
X118201230Y-75265010D01*
X118141342Y-75301001D01*
X118071504Y-75298900D01*
X118018770Y-75265010D01*
X117979108Y-75221926D01*
X117859744Y-75092262D01*
X117663509Y-74939526D01*
X117663507Y-74939525D01*
X117663506Y-74939524D01*
X117444811Y-74821172D01*
X117444802Y-74821169D01*
X117209616Y-74740429D01*
X116964335Y-74699500D01*
X116715665Y-74699500D01*
X116470383Y-74740429D01*
X116235197Y-74821169D01*
X116235188Y-74821172D01*
X116016493Y-74939524D01*
X115820257Y-75092261D01*
X115661230Y-75265010D01*
X115601342Y-75301001D01*
X115531504Y-75298900D01*
X115478770Y-75265010D01*
X115439108Y-75221926D01*
X115319744Y-75092262D01*
X115123509Y-74939526D01*
X115123507Y-74939525D01*
X115123506Y-74939524D01*
X114904811Y-74821172D01*
X114904802Y-74821169D01*
X114669616Y-74740429D01*
X114424335Y-74699500D01*
X114175665Y-74699500D01*
X113930383Y-74740429D01*
X113695197Y-74821169D01*
X113695188Y-74821172D01*
X113476493Y-74939524D01*
X113280257Y-75092261D01*
X113121230Y-75265010D01*
X113061342Y-75301001D01*
X112991504Y-75298900D01*
X112938770Y-75265010D01*
X112899108Y-75221926D01*
X112779744Y-75092262D01*
X112583509Y-74939526D01*
X112583507Y-74939525D01*
X112583506Y-74939524D01*
X112364811Y-74821172D01*
X112364802Y-74821169D01*
X112129616Y-74740429D01*
X111884335Y-74699500D01*
X111635665Y-74699500D01*
X111390383Y-74740429D01*
X111155197Y-74821169D01*
X111155188Y-74821172D01*
X110936493Y-74939524D01*
X110740257Y-75092261D01*
X110571837Y-75275213D01*
X110571829Y-75275224D01*
X110571455Y-75275797D01*
X110571242Y-75275978D01*
X110568690Y-75279258D01*
X110568014Y-75278732D01*
X110518304Y-75321147D01*
X110454865Y-75331302D01*
X110443434Y-75330116D01*
X109828949Y-75944602D01*
X109767626Y-75978087D01*
X109697934Y-75973103D01*
X109642001Y-75931231D01*
X109636953Y-75923961D01*
X109601761Y-75869202D01*
X109486398Y-75769241D01*
X109488698Y-75766585D01*
X109453960Y-75726428D01*
X109444074Y-75657261D01*
X109473152Y-75593729D01*
X109479116Y-75587329D01*
X110090056Y-74976389D01*
X110043229Y-74939943D01*
X109824614Y-74821635D01*
X109824603Y-74821630D01*
X109589493Y-74740916D01*
X109344293Y-74700000D01*
X109095707Y-74700000D01*
X108850506Y-74740916D01*
X108615396Y-74821630D01*
X108615390Y-74821632D01*
X108396761Y-74939949D01*
X108349942Y-74976388D01*
X108349942Y-74976390D01*
X108960883Y-75587330D01*
X108994368Y-75648653D01*
X108989384Y-75718344D01*
X108952358Y-75767805D01*
X108953602Y-75769241D01*
X108838238Y-75869202D01*
X108803046Y-75923962D01*
X108750242Y-75969717D01*
X108681083Y-75979660D01*
X108617528Y-75950634D01*
X108611050Y-75944603D01*
X107996564Y-75330116D01*
X107896267Y-75483632D01*
X107796412Y-75711282D01*
X107735387Y-75952261D01*
X107735385Y-75952270D01*
X107714858Y-76199994D01*
X107714858Y-76200005D01*
X107735385Y-76447729D01*
X107735387Y-76447738D01*
X107796412Y-76688717D01*
X107896266Y-76916364D01*
X107996564Y-77069882D01*
X108611050Y-76455395D01*
X108672373Y-76421910D01*
X108742064Y-76426894D01*
X108797998Y-76468765D01*
X108803039Y-76476025D01*
X108838239Y-76530797D01*
X108838239Y-76530798D01*
X108953602Y-76630759D01*
X108951293Y-76633422D01*
X108986006Y-76673499D01*
X108995935Y-76742660D01*
X108966898Y-76806210D01*
X108960882Y-76812669D01*
X108349942Y-77423609D01*
X108396768Y-77460055D01*
X108396770Y-77460056D01*
X108615385Y-77578364D01*
X108615396Y-77578369D01*
X108850506Y-77659083D01*
X109095707Y-77700000D01*
X109344293Y-77700000D01*
X109589493Y-77659083D01*
X109824603Y-77578369D01*
X109824614Y-77578364D01*
X110043228Y-77460057D01*
X110043231Y-77460055D01*
X110090056Y-77423609D01*
X109479116Y-76812669D01*
X109445631Y-76751346D01*
X109450615Y-76681654D01*
X109487641Y-76632193D01*
X109486398Y-76630759D01*
X109493100Y-76624952D01*
X109601761Y-76530798D01*
X109636954Y-76476037D01*
X109689755Y-76430283D01*
X109758914Y-76420339D01*
X109822470Y-76449363D01*
X109828949Y-76455396D01*
X110443434Y-77069882D01*
X110454861Y-77068697D01*
X110523573Y-77081360D01*
X110568092Y-77121194D01*
X110568683Y-77120735D01*
X110571218Y-77123992D01*
X110571456Y-77124205D01*
X110571831Y-77124780D01*
X110571836Y-77124785D01*
X110740256Y-77307738D01*
X110936491Y-77460474D01*
X110968612Y-77477857D01*
X111155182Y-77578824D01*
X111155190Y-77578828D01*
X111369017Y-77652235D01*
X111388964Y-77659083D01*
X111390386Y-77659571D01*
X111635665Y-77700500D01*
X111884335Y-77700500D01*
X112129614Y-77659571D01*
X112364810Y-77578828D01*
X112583509Y-77460474D01*
X112779744Y-77307738D01*
X112938772Y-77134986D01*
X112998656Y-77098999D01*
X113068494Y-77101099D01*
X113121228Y-77134989D01*
X113280252Y-77307734D01*
X113280256Y-77307738D01*
X113476491Y-77460474D01*
X113508612Y-77477857D01*
X113695182Y-77578824D01*
X113695190Y-77578828D01*
X113909017Y-77652235D01*
X113928964Y-77659083D01*
X113930386Y-77659571D01*
X114175665Y-77700500D01*
X114261454Y-77700500D01*
X114328493Y-77720185D01*
X114374248Y-77772989D01*
X114384192Y-77842147D01*
X114355167Y-77905703D01*
X114334340Y-77924818D01*
X114278327Y-77965513D01*
X114151666Y-78106185D01*
X114057021Y-78270115D01*
X114057018Y-78270122D01*
X113998527Y-78450140D01*
X113998526Y-78450144D01*
X113983004Y-78597830D01*
X113978740Y-78638401D01*
X113984732Y-78695422D01*
X113972161Y-78764152D01*
X113924428Y-78815174D01*
X113911848Y-78821660D01*
X113745667Y-78895650D01*
X113745665Y-78895651D01*
X113592529Y-79006911D01*
X113465866Y-79147585D01*
X113371221Y-79311515D01*
X113371218Y-79311522D01*
X113312727Y-79491540D01*
X113312726Y-79491544D01*
X113292940Y-79679800D01*
X113312726Y-79868056D01*
X113312727Y-79868059D01*
X113371218Y-80048077D01*
X113371221Y-80048084D01*
X113465867Y-80212016D01*
X113571870Y-80329744D01*
X113592529Y-80352688D01*
X113745665Y-80463948D01*
X113745670Y-80463951D01*
X113918592Y-80540942D01*
X113918597Y-80540944D01*
X114103754Y-80580300D01*
X114103755Y-80580300D01*
X114293044Y-80580300D01*
X114293046Y-80580300D01*
X114478203Y-80540944D01*
X114651130Y-80463951D01*
X114804271Y-80352688D01*
X114930933Y-80212016D01*
X115025579Y-80048084D01*
X115084074Y-79868056D01*
X115103860Y-79679800D01*
X115097866Y-79622776D01*
X115110435Y-79554051D01*
X115158167Y-79503026D01*
X115170728Y-79496549D01*
X115336930Y-79422551D01*
X115488289Y-79312582D01*
X115554096Y-79289102D01*
X115561175Y-79288900D01*
X116856095Y-79288900D01*
X116872105Y-79290667D01*
X116872128Y-79290426D01*
X116879889Y-79291158D01*
X116879896Y-79291160D01*
X116951803Y-79288900D01*
X116982525Y-79288900D01*
X116989790Y-79287981D01*
X116995616Y-79287522D01*
X117044169Y-79285997D01*
X117044169Y-79285996D01*
X117051968Y-79285752D01*
X117052074Y-79289127D01*
X117106113Y-79296088D01*
X117159583Y-79341062D01*
X117180251Y-79407805D01*
X117161553Y-79475126D01*
X117143946Y-79497307D01*
X117060071Y-79581182D01*
X116998751Y-79614666D01*
X116972392Y-79617500D01*
X116948554Y-79617500D01*
X116923709Y-79622781D01*
X116763397Y-79656855D01*
X116763392Y-79656857D01*
X116590470Y-79733848D01*
X116590465Y-79733851D01*
X116437329Y-79845111D01*
X116310666Y-79985785D01*
X116216021Y-80149715D01*
X116216018Y-80149722D01*
X116165215Y-80306080D01*
X116157526Y-80329744D01*
X116137740Y-80518000D01*
X116157526Y-80706256D01*
X116157527Y-80706259D01*
X116216018Y-80886277D01*
X116216021Y-80886284D01*
X116310667Y-81050216D01*
X116426461Y-81178818D01*
X116441678Y-81195718D01*
X116440295Y-81196962D01*
X116466294Y-81234368D01*
X116468629Y-81240267D01*
X116468631Y-81240270D01*
X116497183Y-81279570D01*
X116500388Y-81284449D01*
X116525119Y-81326265D01*
X116525123Y-81326269D01*
X116540125Y-81341271D01*
X116552763Y-81356069D01*
X116565228Y-81373226D01*
X116565232Y-81373230D01*
X116565237Y-81373237D01*
X116565242Y-81373241D01*
X116569118Y-81377368D01*
X116600666Y-81439710D01*
X116602054Y-81449292D01*
X116611163Y-81535957D01*
X116614726Y-81569857D01*
X116614727Y-81569860D01*
X116673218Y-81749877D01*
X116673221Y-81749884D01*
X116767867Y-81913816D01*
X116863339Y-82019848D01*
X116894529Y-82054488D01*
X117047665Y-82165748D01*
X117047667Y-82165749D01*
X117047670Y-82165751D01*
X117111847Y-82194325D01*
X117165081Y-82239572D01*
X117185403Y-82306421D01*
X117184767Y-82320204D01*
X117176000Y-82406011D01*
X117176000Y-82406026D01*
X117175999Y-82680999D01*
X117176000Y-82681000D01*
X118302000Y-82681000D01*
X118369039Y-82700685D01*
X118414794Y-82753489D01*
X118426000Y-82805000D01*
X118426000Y-83057000D01*
X118406315Y-83124039D01*
X118353511Y-83169794D01*
X118302000Y-83181000D01*
X117176001Y-83181000D01*
X117176001Y-83398031D01*
X117156316Y-83465070D01*
X117117101Y-83503568D01*
X117101346Y-83513285D01*
X117095682Y-83517765D01*
X117095646Y-83517719D01*
X117089798Y-83522484D01*
X117089835Y-83522528D01*
X117084310Y-83527164D01*
X117084304Y-83527169D01*
X117084304Y-83527170D01*
X117065518Y-83547082D01*
X117031614Y-83583017D01*
X116825680Y-83788950D01*
X116764357Y-83822435D01*
X116694665Y-83817451D01*
X116650318Y-83788950D01*
X116212770Y-83351402D01*
X116182521Y-83302041D01*
X116146874Y-83192331D01*
X116127181Y-83131721D01*
X116127178Y-83131715D01*
X116032533Y-82967784D01*
X115905871Y-82827112D01*
X115905870Y-82827111D01*
X115752734Y-82715851D01*
X115752729Y-82715848D01*
X115579807Y-82638857D01*
X115579803Y-82638856D01*
X115514670Y-82625011D01*
X115453188Y-82591818D01*
X115452771Y-82591402D01*
X115362714Y-82501345D01*
X115332464Y-82451981D01*
X115327179Y-82435716D01*
X115232533Y-82271784D01*
X115105871Y-82131112D01*
X115103895Y-82129676D01*
X114952734Y-82019851D01*
X114952729Y-82019848D01*
X114779807Y-81942857D01*
X114779802Y-81942855D01*
X114634000Y-81911865D01*
X114594646Y-81903500D01*
X114405354Y-81903500D01*
X114372897Y-81910398D01*
X114220197Y-81942855D01*
X114220192Y-81942857D01*
X114054927Y-82016439D01*
X113985677Y-82025724D01*
X113954055Y-82016439D01*
X113779807Y-81938857D01*
X113779802Y-81938855D01*
X113634001Y-81907865D01*
X113594646Y-81899500D01*
X113405354Y-81899500D01*
X113372897Y-81906398D01*
X113220197Y-81938855D01*
X113220192Y-81938857D01*
X113047270Y-82015848D01*
X113047265Y-82015851D01*
X112894129Y-82127111D01*
X112767466Y-82267785D01*
X112672821Y-82431715D01*
X112672818Y-82431722D01*
X112620800Y-82591818D01*
X112614326Y-82611744D01*
X112594540Y-82800000D01*
X112614326Y-82988256D01*
X112614327Y-82988259D01*
X112672818Y-83168277D01*
X112672821Y-83168284D01*
X112767467Y-83332216D01*
X112870249Y-83446367D01*
X112894129Y-83472888D01*
X113047265Y-83584148D01*
X113047270Y-83584151D01*
X113220192Y-83661142D01*
X113220197Y-83661144D01*
X113405354Y-83700500D01*
X113405355Y-83700500D01*
X113594644Y-83700500D01*
X113594646Y-83700500D01*
X113779803Y-83661144D01*
X113945074Y-83587559D01*
X114014321Y-83578275D01*
X114045945Y-83587560D01*
X114047266Y-83588148D01*
X114047270Y-83588151D01*
X114220197Y-83665144D01*
X114350638Y-83692869D01*
X114412115Y-83726059D01*
X114442784Y-83775840D01*
X114472818Y-83868278D01*
X114472821Y-83868284D01*
X114567464Y-84032212D01*
X114567465Y-84032214D01*
X114567467Y-84032216D01*
X114650151Y-84124046D01*
X114680380Y-84187035D01*
X114682000Y-84207016D01*
X114682000Y-86441999D01*
X114731972Y-86441999D01*
X114731986Y-86441998D01*
X114834697Y-86431505D01*
X115001119Y-86376358D01*
X115001124Y-86376356D01*
X115150345Y-86284315D01*
X115274318Y-86160342D01*
X115276165Y-86157348D01*
X115277969Y-86155724D01*
X115278798Y-86154677D01*
X115278976Y-86154818D01*
X115328110Y-86110621D01*
X115397073Y-86099396D01*
X115461156Y-86127236D01*
X115487243Y-86157341D01*
X115489288Y-86160656D01*
X115613344Y-86284712D01*
X115762666Y-86376814D01*
X115929203Y-86431999D01*
X116031991Y-86442500D01*
X116632008Y-86442499D01*
X116632016Y-86442498D01*
X116632019Y-86442498D01*
X116688302Y-86436748D01*
X116734797Y-86431999D01*
X116811349Y-86406631D01*
X116881175Y-86404230D01*
X116941218Y-86439961D01*
X116972411Y-86502481D01*
X116964851Y-86571941D01*
X116938033Y-86612019D01*
X115739483Y-87810569D01*
X115726910Y-87820643D01*
X115727065Y-87820830D01*
X115721059Y-87825798D01*
X115696627Y-87851816D01*
X115671809Y-87878244D01*
X115660949Y-87889104D01*
X115650088Y-87899965D01*
X115650078Y-87899977D01*
X115645587Y-87905765D01*
X115641801Y-87910197D01*
X115608552Y-87945606D01*
X115598322Y-87964213D01*
X115587646Y-87980464D01*
X115574640Y-87997232D01*
X115574636Y-87997238D01*
X115555348Y-88041811D01*
X115552777Y-88047058D01*
X115529372Y-88089630D01*
X115529372Y-88089631D01*
X115524091Y-88110199D01*
X115517791Y-88128601D01*
X115509364Y-88148073D01*
X115501766Y-88196047D01*
X115500581Y-88201770D01*
X115488500Y-88248818D01*
X115488500Y-88270044D01*
X115486973Y-88289444D01*
X115483653Y-88310403D01*
X115488225Y-88358768D01*
X115488500Y-88364607D01*
X115488499Y-88427193D01*
X115468813Y-88494232D01*
X115416009Y-88539986D01*
X115346850Y-88549929D01*
X115283295Y-88520903D01*
X115276818Y-88514872D01*
X114592434Y-87830488D01*
X114582361Y-87817914D01*
X114582174Y-87818070D01*
X114577201Y-87812059D01*
X114524756Y-87762810D01*
X114503035Y-87741089D01*
X114497240Y-87736594D01*
X114492798Y-87732799D01*
X114457396Y-87699554D01*
X114457388Y-87699548D01*
X114438792Y-87689325D01*
X114422531Y-87678644D01*
X114419813Y-87676536D01*
X114405764Y-87665638D01*
X114405763Y-87665637D01*
X114375966Y-87652743D01*
X114361178Y-87646343D01*
X114355956Y-87643786D01*
X114313368Y-87620373D01*
X114313365Y-87620372D01*
X114292801Y-87615092D01*
X114274396Y-87608790D01*
X114254927Y-87600365D01*
X114254921Y-87600363D01*
X114206951Y-87592766D01*
X114201236Y-87591582D01*
X114184772Y-87587355D01*
X114154180Y-87579500D01*
X114154177Y-87579500D01*
X114132955Y-87579500D01*
X114113555Y-87577973D01*
X114092596Y-87574653D01*
X114092595Y-87574653D01*
X114068786Y-87576903D01*
X114044230Y-87579225D01*
X114038392Y-87579500D01*
X113225807Y-87579500D01*
X113158768Y-87559815D01*
X113138126Y-87543181D01*
X111375060Y-85780115D01*
X111341575Y-85718792D01*
X111342966Y-85660340D01*
X111345206Y-85651980D01*
X111345207Y-85651978D01*
X111361390Y-85467000D01*
X113432001Y-85467000D01*
X113432001Y-85741986D01*
X113442494Y-85844697D01*
X113497641Y-86011119D01*
X113497643Y-86011124D01*
X113589684Y-86160345D01*
X113713654Y-86284315D01*
X113862875Y-86376356D01*
X113862880Y-86376358D01*
X114029302Y-86431505D01*
X114029309Y-86431506D01*
X114132019Y-86441999D01*
X114181999Y-86441998D01*
X114182000Y-86441998D01*
X114182000Y-85467000D01*
X113432001Y-85467000D01*
X111361390Y-85467000D01*
X111361581Y-85464821D01*
X111364277Y-85434003D01*
X111364277Y-85433998D01*
X111358035Y-85362658D01*
X111345207Y-85216024D01*
X111303857Y-85061703D01*
X111288577Y-85004678D01*
X111288576Y-85004677D01*
X111288575Y-85004671D01*
X111271008Y-84966999D01*
X113431999Y-84966999D01*
X113432000Y-84967000D01*
X114182000Y-84967000D01*
X114182000Y-83992000D01*
X114181999Y-83991999D01*
X114132029Y-83992000D01*
X114132011Y-83992001D01*
X114029302Y-84002494D01*
X113862880Y-84057641D01*
X113862875Y-84057643D01*
X113713654Y-84149684D01*
X113589684Y-84273654D01*
X113497643Y-84422875D01*
X113497641Y-84422880D01*
X113442494Y-84589302D01*
X113442493Y-84589309D01*
X113432000Y-84692013D01*
X113432000Y-84692026D01*
X113431999Y-84966999D01*
X111271008Y-84966999D01*
X111196102Y-84806363D01*
X111196100Y-84806360D01*
X111196099Y-84806358D01*
X111070599Y-84627125D01*
X111004202Y-84560728D01*
X110915877Y-84472403D01*
X110752546Y-84358037D01*
X110736638Y-84346898D01*
X110597484Y-84282010D01*
X110538330Y-84254426D01*
X110538326Y-84254425D01*
X110538322Y-84254423D01*
X110326977Y-84197794D01*
X110109002Y-84178724D01*
X110108998Y-84178724D01*
X109998354Y-84188404D01*
X109891023Y-84197794D01*
X109891020Y-84197794D01*
X109679677Y-84254423D01*
X109679670Y-84254425D01*
X109679670Y-84254426D01*
X109674791Y-84256701D01*
X109481361Y-84346899D01*
X109481357Y-84346901D01*
X109302121Y-84472403D01*
X109147402Y-84627122D01*
X109021900Y-84806358D01*
X109021898Y-84806362D01*
X108929426Y-85004669D01*
X108929422Y-85004678D01*
X108872793Y-85216021D01*
X108872793Y-85216024D01*
X108868025Y-85270518D01*
X108853723Y-85433998D01*
X108853723Y-85434003D01*
X108856610Y-85467000D01*
X108872792Y-85651972D01*
X108872793Y-85651976D01*
X108872793Y-85651980D01*
X108929422Y-85863323D01*
X108929424Y-85863327D01*
X108929425Y-85863331D01*
X108953006Y-85913900D01*
X109021897Y-86061639D01*
X109035817Y-86081519D01*
X109147402Y-86240878D01*
X109302123Y-86395599D01*
X109481361Y-86521103D01*
X109679670Y-86613576D01*
X109891023Y-86670208D01*
X110073926Y-86686209D01*
X110108998Y-86689278D01*
X110109000Y-86689278D01*
X110109002Y-86689278D01*
X110175033Y-86683501D01*
X110326977Y-86670208D01*
X110335340Y-86667967D01*
X110405189Y-86669630D01*
X110455114Y-86700061D01*
X112384563Y-88629510D01*
X112394634Y-88642080D01*
X112394821Y-88641926D01*
X112399795Y-88647937D01*
X112399797Y-88647940D01*
X112428166Y-88674580D01*
X112452242Y-88697190D01*
X112473965Y-88718912D01*
X112479757Y-88723405D01*
X112484197Y-88727198D01*
X112495371Y-88737690D01*
X112519606Y-88760448D01*
X112538197Y-88770668D01*
X112554462Y-88781352D01*
X112571233Y-88794361D01*
X112571236Y-88794363D01*
X112615826Y-88813658D01*
X112621055Y-88816220D01*
X112663631Y-88839627D01*
X112684192Y-88844905D01*
X112702596Y-88851207D01*
X112722073Y-88859636D01*
X112759926Y-88865630D01*
X112770053Y-88867235D01*
X112775763Y-88868417D01*
X112822822Y-88880500D01*
X112844044Y-88880500D01*
X112863441Y-88882026D01*
X112884404Y-88885347D01*
X112932771Y-88880774D01*
X112938608Y-88880500D01*
X113677458Y-88880500D01*
X113744497Y-88900185D01*
X113790252Y-88952989D01*
X113800196Y-89022147D01*
X113771171Y-89085703D01*
X113716462Y-89122206D01*
X113669880Y-89137641D01*
X113669875Y-89137643D01*
X113520654Y-89229684D01*
X113396684Y-89353654D01*
X113304643Y-89502875D01*
X113304641Y-89502880D01*
X113249494Y-89669302D01*
X113249493Y-89669309D01*
X113239000Y-89772013D01*
X113239000Y-90047000D01*
X114365000Y-90047000D01*
X114432039Y-90066685D01*
X114477794Y-90119489D01*
X114489000Y-90171000D01*
X114488999Y-91521999D01*
X114538972Y-91521999D01*
X114538986Y-91521998D01*
X114641697Y-91511505D01*
X114808119Y-91456358D01*
X114808124Y-91456356D01*
X114957345Y-91364315D01*
X115081318Y-91240342D01*
X115083165Y-91237348D01*
X115084969Y-91235724D01*
X115085798Y-91234677D01*
X115085976Y-91234818D01*
X115135110Y-91190621D01*
X115204073Y-91179396D01*
X115268156Y-91207236D01*
X115294243Y-91237341D01*
X115296288Y-91240656D01*
X115420344Y-91364712D01*
X115569666Y-91456814D01*
X115648687Y-91482999D01*
X115706131Y-91522770D01*
X115732955Y-91587286D01*
X115720640Y-91656062D01*
X115718875Y-91659234D01*
X115717641Y-91661880D01*
X115662494Y-91828302D01*
X115662493Y-91828309D01*
X115652000Y-91931013D01*
X115652000Y-92206000D01*
X116778000Y-92206000D01*
X116845039Y-92225685D01*
X116890794Y-92278489D01*
X116902000Y-92330000D01*
X116902000Y-93680999D01*
X116909111Y-93688110D01*
X116951932Y-93700684D01*
X116997687Y-93753488D01*
X117007631Y-93822646D01*
X116978606Y-93886202D01*
X116972574Y-93892680D01*
X116708473Y-94156781D01*
X116647150Y-94190266D01*
X116620792Y-94193100D01*
X111725208Y-94193100D01*
X111658169Y-94173415D01*
X111637527Y-94156781D01*
X110795819Y-93315073D01*
X110762334Y-93253750D01*
X110759500Y-93227392D01*
X110759500Y-92706000D01*
X115652001Y-92706000D01*
X115652001Y-92980986D01*
X115662494Y-93083697D01*
X115717641Y-93250119D01*
X115717643Y-93250124D01*
X115809684Y-93399345D01*
X115933654Y-93523315D01*
X116082875Y-93615356D01*
X116082880Y-93615358D01*
X116249302Y-93670505D01*
X116249309Y-93670506D01*
X116352019Y-93680999D01*
X116401999Y-93680998D01*
X116402000Y-93680998D01*
X116402000Y-92706000D01*
X115652001Y-92706000D01*
X110759500Y-92706000D01*
X110759500Y-91469645D01*
X110779185Y-91402606D01*
X110812377Y-91368070D01*
X110903042Y-91304586D01*
X110915877Y-91295599D01*
X111070598Y-91140878D01*
X111196102Y-90961640D01*
X111288575Y-90763331D01*
X111345207Y-90551978D01*
X111345643Y-90547000D01*
X113239001Y-90547000D01*
X113239001Y-90821986D01*
X113249494Y-90924697D01*
X113304641Y-91091119D01*
X113304643Y-91091124D01*
X113396684Y-91240345D01*
X113520654Y-91364315D01*
X113669875Y-91456356D01*
X113669880Y-91456358D01*
X113836302Y-91511505D01*
X113836309Y-91511506D01*
X113939019Y-91521999D01*
X113988999Y-91521998D01*
X113989000Y-91521998D01*
X113989000Y-90547000D01*
X113239001Y-90547000D01*
X111345643Y-90547000D01*
X111361805Y-90362255D01*
X111364277Y-90334003D01*
X111364277Y-90333998D01*
X111359554Y-90280017D01*
X111345207Y-90116024D01*
X111294083Y-89925227D01*
X111288577Y-89904678D01*
X111288576Y-89904677D01*
X111288575Y-89904671D01*
X111196102Y-89706363D01*
X111196100Y-89706360D01*
X111196099Y-89706358D01*
X111070599Y-89527125D01*
X110996003Y-89452529D01*
X110915877Y-89372403D01*
X110761696Y-89264444D01*
X110736638Y-89246898D01*
X110585556Y-89176448D01*
X110538330Y-89154426D01*
X110538326Y-89154425D01*
X110538322Y-89154423D01*
X110326977Y-89097794D01*
X110109002Y-89078724D01*
X110108998Y-89078724D01*
X109963681Y-89091437D01*
X109891023Y-89097794D01*
X109891020Y-89097794D01*
X109679677Y-89154423D01*
X109679670Y-89154425D01*
X109679670Y-89154426D01*
X109658512Y-89164292D01*
X109481361Y-89246899D01*
X109481357Y-89246901D01*
X109302121Y-89372403D01*
X109147402Y-89527122D01*
X109021900Y-89706358D01*
X109021898Y-89706362D01*
X108929426Y-89904669D01*
X108929422Y-89904678D01*
X108872793Y-90116021D01*
X108872793Y-90116024D01*
X108869397Y-90154838D01*
X108853723Y-90333998D01*
X108853723Y-90334003D01*
X108858245Y-90385688D01*
X108872357Y-90547000D01*
X108872793Y-90551976D01*
X108872793Y-90551980D01*
X108929422Y-90763323D01*
X108929424Y-90763327D01*
X108929425Y-90763331D01*
X108968859Y-90847898D01*
X109021897Y-90961639D01*
X109043892Y-90993051D01*
X109147402Y-91140878D01*
X109237350Y-91230826D01*
X109302124Y-91295600D01*
X109405623Y-91368070D01*
X109449248Y-91422646D01*
X109458500Y-91469645D01*
X109458500Y-93462694D01*
X109456732Y-93478705D01*
X109456974Y-93478728D01*
X109456240Y-93486494D01*
X109458500Y-93558403D01*
X109458500Y-93589120D01*
X109458501Y-93589140D01*
X109459418Y-93596406D01*
X109459876Y-93602224D01*
X109461402Y-93650767D01*
X109461403Y-93650770D01*
X109467323Y-93671148D01*
X109471268Y-93690196D01*
X109473928Y-93711254D01*
X109473931Y-93711264D01*
X109491813Y-93756430D01*
X109493705Y-93761958D01*
X109507254Y-93808595D01*
X109507255Y-93808597D01*
X109507256Y-93808598D01*
X109515896Y-93823208D01*
X109518060Y-93826866D01*
X109526617Y-93844334D01*
X109530745Y-93854759D01*
X109534432Y-93864072D01*
X109562983Y-93903370D01*
X109566188Y-93908249D01*
X109570257Y-93915128D01*
X109582534Y-93935888D01*
X109590919Y-93950065D01*
X109590923Y-93950069D01*
X109605925Y-93965071D01*
X109618563Y-93979869D01*
X109631033Y-93997033D01*
X109631036Y-93997036D01*
X109631037Y-93997037D01*
X109668476Y-94028009D01*
X109672776Y-94031922D01*
X110303659Y-94662805D01*
X110883964Y-95243110D01*
X110894035Y-95255680D01*
X110894222Y-95255526D01*
X110899196Y-95261537D01*
X110899198Y-95261540D01*
X110927745Y-95288348D01*
X110951643Y-95310790D01*
X110973367Y-95332513D01*
X110979157Y-95337005D01*
X110983597Y-95340797D01*
X111012898Y-95368311D01*
X111019007Y-95374048D01*
X111019009Y-95374049D01*
X111037605Y-95384272D01*
X111053870Y-95394957D01*
X111070632Y-95407960D01*
X111070635Y-95407961D01*
X111070636Y-95407962D01*
X111115223Y-95427256D01*
X111120459Y-95429821D01*
X111163032Y-95453227D01*
X111178740Y-95457259D01*
X111183586Y-95458504D01*
X111201998Y-95464807D01*
X111221473Y-95473235D01*
X111269471Y-95480837D01*
X111275140Y-95482011D01*
X111322223Y-95494100D01*
X111343451Y-95494100D01*
X111362848Y-95495626D01*
X111383803Y-95498945D01*
X111383804Y-95498946D01*
X111383804Y-95498945D01*
X111383805Y-95498946D01*
X111432160Y-95494375D01*
X111437999Y-95494100D01*
X116034851Y-95494100D01*
X116101890Y-95513785D01*
X116147645Y-95566589D01*
X116157589Y-95635747D01*
X116128564Y-95699303D01*
X116122532Y-95705781D01*
X114805132Y-97023181D01*
X114743809Y-97056666D01*
X114717451Y-97059500D01*
X113195504Y-97059500D01*
X113179493Y-97057732D01*
X113179471Y-97057974D01*
X113171704Y-97057240D01*
X113171703Y-97057240D01*
X113099796Y-97059500D01*
X113069075Y-97059500D01*
X113069071Y-97059500D01*
X113069061Y-97059501D01*
X113061793Y-97060419D01*
X113055976Y-97060876D01*
X113007435Y-97062402D01*
X113007424Y-97062404D01*
X112987048Y-97068323D01*
X112968008Y-97072266D01*
X112946947Y-97074927D01*
X112946939Y-97074929D01*
X112901775Y-97092811D01*
X112896247Y-97094703D01*
X112849602Y-97108255D01*
X112831332Y-97119060D01*
X112813863Y-97127618D01*
X112794128Y-97135432D01*
X112794126Y-97135433D01*
X112754839Y-97163977D01*
X112749956Y-97167184D01*
X112708132Y-97191919D01*
X112693126Y-97206926D01*
X112678336Y-97219558D01*
X112661167Y-97232032D01*
X112661165Y-97232034D01*
X112630194Y-97269470D01*
X112626262Y-97273791D01*
X112310909Y-97589143D01*
X112249586Y-97622628D01*
X112182967Y-97618744D01*
X112129613Y-97600428D01*
X111884335Y-97559500D01*
X111635665Y-97559500D01*
X111390383Y-97600429D01*
X111155197Y-97681169D01*
X111155188Y-97681172D01*
X110936493Y-97799524D01*
X110740257Y-97952261D01*
X110581230Y-98125010D01*
X110521342Y-98161001D01*
X110451504Y-98158900D01*
X110398770Y-98125010D01*
X110328132Y-98048277D01*
X110239744Y-97952262D01*
X110043509Y-97799526D01*
X110043507Y-97799525D01*
X110043506Y-97799524D01*
X109824811Y-97681172D01*
X109824802Y-97681169D01*
X109589616Y-97600429D01*
X109344335Y-97559500D01*
X109095665Y-97559500D01*
X108850383Y-97600429D01*
X108615197Y-97681169D01*
X108615188Y-97681172D01*
X108396493Y-97799524D01*
X108200257Y-97952261D01*
X108031833Y-98135217D01*
X107895826Y-98343393D01*
X107795936Y-98571118D01*
X107734892Y-98812175D01*
X107734890Y-98812187D01*
X107714357Y-99059994D01*
X107714357Y-99060005D01*
X107734890Y-99307812D01*
X107734892Y-99307824D01*
X107795936Y-99548881D01*
X107895826Y-99776606D01*
X108031833Y-99984782D01*
X108031836Y-99984785D01*
X108200256Y-100167738D01*
X108396491Y-100320474D01*
X108615190Y-100438828D01*
X108850386Y-100519571D01*
X109095665Y-100560500D01*
X109344335Y-100560500D01*
X109589614Y-100519571D01*
X109824810Y-100438828D01*
X110043509Y-100320474D01*
X110239744Y-100167738D01*
X110398771Y-99994988D01*
X110458657Y-99958999D01*
X110528495Y-99961099D01*
X110581228Y-99994988D01*
X110740256Y-100167738D01*
X110936491Y-100320474D01*
X111155190Y-100438828D01*
X111390386Y-100519571D01*
X111635665Y-100560500D01*
X111884335Y-100560500D01*
X112129614Y-100519571D01*
X112364810Y-100438828D01*
X112583509Y-100320474D01*
X112779744Y-100167738D01*
X112938771Y-99994988D01*
X112998657Y-99958999D01*
X113068495Y-99961099D01*
X113121228Y-99994988D01*
X113280256Y-100167738D01*
X113476491Y-100320474D01*
X113695190Y-100438828D01*
X113930386Y-100519571D01*
X114175665Y-100560500D01*
X114424335Y-100560500D01*
X114669614Y-100519571D01*
X114904810Y-100438828D01*
X115123509Y-100320474D01*
X115319744Y-100167738D01*
X115478771Y-99994988D01*
X115538657Y-99958999D01*
X115608495Y-99961099D01*
X115661228Y-99994988D01*
X115820256Y-100167738D01*
X116016491Y-100320474D01*
X116235190Y-100438828D01*
X116470386Y-100519571D01*
X116715665Y-100560500D01*
X116964335Y-100560500D01*
X117209614Y-100519571D01*
X117444810Y-100438828D01*
X117663509Y-100320474D01*
X117859744Y-100167738D01*
X118018771Y-99994988D01*
X118078657Y-99958999D01*
X118148495Y-99961099D01*
X118201228Y-99994988D01*
X118360256Y-100167738D01*
X118556491Y-100320474D01*
X118775190Y-100438828D01*
X119010386Y-100519571D01*
X119255665Y-100560500D01*
X119504335Y-100560500D01*
X119749614Y-100519571D01*
X119984810Y-100438828D01*
X120203509Y-100320474D01*
X120399744Y-100167738D01*
X120558771Y-99994988D01*
X120618657Y-99958999D01*
X120688495Y-99961099D01*
X120741228Y-99994988D01*
X120900256Y-100167738D01*
X121096491Y-100320474D01*
X121315190Y-100438828D01*
X121550386Y-100519571D01*
X121795665Y-100560500D01*
X122044335Y-100560500D01*
X122289614Y-100519571D01*
X122524810Y-100438828D01*
X122743509Y-100320474D01*
X122939744Y-100167738D01*
X123108164Y-99984785D01*
X123244173Y-99776607D01*
X123344063Y-99548881D01*
X123405108Y-99307821D01*
X123422287Y-99100500D01*
X123425643Y-99060005D01*
X123425643Y-99059994D01*
X123405109Y-98812187D01*
X123405107Y-98812175D01*
X123344063Y-98571118D01*
X123244173Y-98343393D01*
X123108166Y-98135217D01*
X123028132Y-98048277D01*
X122939744Y-97952262D01*
X122743509Y-97799526D01*
X122743508Y-97799525D01*
X122743505Y-97799523D01*
X122743498Y-97799519D01*
X122635482Y-97741063D01*
X122585891Y-97691844D01*
X122570500Y-97632009D01*
X122570500Y-97060419D01*
X122570500Y-96487718D01*
X122590184Y-96420683D01*
X122606813Y-96400046D01*
X125361296Y-93645563D01*
X125422617Y-93612080D01*
X125492309Y-93617064D01*
X125508707Y-93624581D01*
X125575989Y-93661570D01*
X125628059Y-93690196D01*
X125632349Y-93692554D01*
X125785422Y-93731857D01*
X125785425Y-93731857D01*
X125943458Y-93731857D01*
X125943461Y-93731857D01*
X126096534Y-93692554D01*
X126187522Y-93642533D01*
X126235020Y-93616421D01*
X126235021Y-93616420D01*
X126235023Y-93616419D01*
X126262074Y-93593315D01*
X126262075Y-93593314D01*
X126262079Y-93593311D01*
X126262078Y-93593311D01*
X126342445Y-93512943D01*
X126403766Y-93479458D01*
X126473458Y-93484442D01*
X126517807Y-93512943D01*
X126962502Y-93957638D01*
X126974283Y-93971270D01*
X126988620Y-93990528D01*
X127028641Y-94024111D01*
X127032629Y-94027766D01*
X127038448Y-94033585D01*
X127038452Y-94033588D01*
X127038455Y-94033591D01*
X127064191Y-94053940D01*
X127123018Y-94103302D01*
X127123019Y-94103302D01*
X127123021Y-94103304D01*
X127129050Y-94107270D01*
X127129017Y-94107319D01*
X127135379Y-94111372D01*
X127135411Y-94111321D01*
X127141557Y-94115112D01*
X127211170Y-94147574D01*
X127218455Y-94151231D01*
X127220963Y-94152491D01*
X127270857Y-94198208D01*
X127335116Y-94302387D01*
X127335119Y-94302391D01*
X127454008Y-94421280D01*
X127454012Y-94421283D01*
X127597104Y-94509544D01*
X127597107Y-94509545D01*
X127597113Y-94509549D01*
X127756715Y-94562436D01*
X127855226Y-94572500D01*
X128105371Y-94572500D01*
X128172410Y-94592185D01*
X128193052Y-94608819D01*
X128329252Y-94745019D01*
X128362737Y-94806342D01*
X128357753Y-94876034D01*
X128315881Y-94931967D01*
X128250417Y-94956384D01*
X128241571Y-94956700D01*
X126049247Y-94956700D01*
X125982208Y-94937015D01*
X125976362Y-94933018D01*
X125952734Y-94915851D01*
X125952729Y-94915848D01*
X125779807Y-94838857D01*
X125779802Y-94838855D01*
X125626835Y-94806342D01*
X125594646Y-94799500D01*
X125405354Y-94799500D01*
X125373165Y-94806342D01*
X125220197Y-94838855D01*
X125220192Y-94838857D01*
X125047270Y-94915848D01*
X125047265Y-94915851D01*
X124894129Y-95027111D01*
X124767466Y-95167785D01*
X124672821Y-95331715D01*
X124672818Y-95331723D01*
X124669596Y-95341638D01*
X124630155Y-95399311D01*
X124577449Y-95424603D01*
X124510396Y-95438856D01*
X124510392Y-95438857D01*
X124337470Y-95515848D01*
X124337465Y-95515851D01*
X124184329Y-95627111D01*
X124057666Y-95767785D01*
X123963021Y-95931715D01*
X123963018Y-95931722D01*
X123904527Y-96111740D01*
X123904526Y-96111744D01*
X123884740Y-96300000D01*
X123904526Y-96488256D01*
X123904527Y-96488259D01*
X123963020Y-96668283D01*
X123979304Y-96696488D01*
X123995776Y-96764388D01*
X123979306Y-96820482D01*
X123972821Y-96831714D01*
X123972820Y-96831717D01*
X123919605Y-96995497D01*
X123914326Y-97011744D01*
X123894540Y-97200000D01*
X123914326Y-97388256D01*
X123914327Y-97388259D01*
X123972818Y-97568277D01*
X123972821Y-97568284D01*
X124013071Y-97637999D01*
X124029544Y-97705900D01*
X124013071Y-97761999D01*
X123972821Y-97831714D01*
X123917293Y-98002612D01*
X123914326Y-98011744D01*
X123894540Y-98200000D01*
X123914326Y-98388256D01*
X123914327Y-98388259D01*
X123972818Y-98568277D01*
X123972821Y-98568284D01*
X124067467Y-98732216D01*
X124194128Y-98872887D01*
X124194129Y-98872888D01*
X124347265Y-98984148D01*
X124347270Y-98984151D01*
X124520192Y-99061142D01*
X124520197Y-99061144D01*
X124705354Y-99100500D01*
X124705355Y-99100500D01*
X124894644Y-99100500D01*
X124894646Y-99100500D01*
X125079803Y-99061144D01*
X125252730Y-98984151D01*
X125297729Y-98951457D01*
X125363533Y-98927978D01*
X125431587Y-98943803D01*
X125480282Y-98993908D01*
X125492735Y-99054871D01*
X125494357Y-99054871D01*
X125494357Y-99060005D01*
X125514890Y-99307812D01*
X125514892Y-99307824D01*
X125575936Y-99548881D01*
X125675826Y-99776606D01*
X125811833Y-99984782D01*
X125811836Y-99984785D01*
X125980256Y-100167738D01*
X126176491Y-100320474D01*
X126395190Y-100438828D01*
X126630386Y-100519571D01*
X126875665Y-100560500D01*
X127124335Y-100560500D01*
X127369614Y-100519571D01*
X127604810Y-100438828D01*
X127823509Y-100320474D01*
X128019744Y-100167738D01*
X128178771Y-99994988D01*
X128238657Y-99958999D01*
X128308495Y-99961099D01*
X128361228Y-99994988D01*
X128520256Y-100167738D01*
X128716491Y-100320474D01*
X128935190Y-100438828D01*
X129170386Y-100519571D01*
X129415665Y-100560500D01*
X129664335Y-100560500D01*
X129909614Y-100519571D01*
X130144810Y-100438828D01*
X130363509Y-100320474D01*
X130559744Y-100167738D01*
X130718771Y-99994988D01*
X130778657Y-99958999D01*
X130848495Y-99961099D01*
X130901228Y-99994988D01*
X131060256Y-100167738D01*
X131256491Y-100320474D01*
X131475190Y-100438828D01*
X131710386Y-100519571D01*
X131955665Y-100560500D01*
X132204335Y-100560500D01*
X132449614Y-100519571D01*
X132684810Y-100438828D01*
X132903509Y-100320474D01*
X133099744Y-100167738D01*
X133258771Y-99994988D01*
X133318657Y-99958999D01*
X133388495Y-99961099D01*
X133441228Y-99994988D01*
X133600256Y-100167738D01*
X133796491Y-100320474D01*
X134015190Y-100438828D01*
X134250386Y-100519571D01*
X134495665Y-100560500D01*
X134744335Y-100560500D01*
X134989614Y-100519571D01*
X135224810Y-100438828D01*
X135443509Y-100320474D01*
X135639744Y-100167738D01*
X135798771Y-99994988D01*
X135858657Y-99958999D01*
X135928495Y-99961099D01*
X135981228Y-99994988D01*
X136140256Y-100167738D01*
X136336491Y-100320474D01*
X136555190Y-100438828D01*
X136790386Y-100519571D01*
X137035665Y-100560500D01*
X137284335Y-100560500D01*
X137529614Y-100519571D01*
X137764810Y-100438828D01*
X137983509Y-100320474D01*
X138179744Y-100167738D01*
X138338771Y-99994988D01*
X138398657Y-99958999D01*
X138468495Y-99961099D01*
X138521228Y-99994988D01*
X138680256Y-100167738D01*
X138876491Y-100320474D01*
X139095190Y-100438828D01*
X139330386Y-100519571D01*
X139575665Y-100560500D01*
X139824335Y-100560500D01*
X140069614Y-100519571D01*
X140304810Y-100438828D01*
X140523509Y-100320474D01*
X140719744Y-100167738D01*
X140888164Y-99984785D01*
X141024173Y-99776607D01*
X141124063Y-99548881D01*
X141185108Y-99307821D01*
X141202287Y-99100500D01*
X141205643Y-99060005D01*
X141205643Y-99059994D01*
X141185109Y-98812187D01*
X141185107Y-98812175D01*
X141124063Y-98571118D01*
X141024173Y-98343393D01*
X140888166Y-98135217D01*
X140808132Y-98048277D01*
X140719744Y-97952262D01*
X140523509Y-97799526D01*
X140523507Y-97799525D01*
X140523506Y-97799524D01*
X140304811Y-97681172D01*
X140304802Y-97681169D01*
X140069616Y-97600429D01*
X139852935Y-97564272D01*
X139790049Y-97533822D01*
X139753610Y-97474207D01*
X139755185Y-97404355D01*
X139785661Y-97354284D01*
X141131945Y-96008000D01*
X145395001Y-96008000D01*
X145395001Y-96257986D01*
X145405494Y-96360697D01*
X145460641Y-96527119D01*
X145460643Y-96527124D01*
X145552684Y-96676345D01*
X145676654Y-96800315D01*
X145825875Y-96892356D01*
X145825880Y-96892358D01*
X145992302Y-96947505D01*
X145992309Y-96947506D01*
X146095019Y-96957999D01*
X146157499Y-96957998D01*
X146157500Y-96957998D01*
X146157500Y-96008000D01*
X145395001Y-96008000D01*
X141131945Y-96008000D01*
X141631945Y-95508000D01*
X145395000Y-95508000D01*
X146157500Y-95508000D01*
X146157500Y-94558000D01*
X146157499Y-94557999D01*
X146095028Y-94558000D01*
X146095011Y-94558001D01*
X145992302Y-94568494D01*
X145825880Y-94623641D01*
X145825875Y-94623643D01*
X145676654Y-94715684D01*
X145552684Y-94839654D01*
X145460643Y-94988875D01*
X145460641Y-94988880D01*
X145405494Y-95155302D01*
X145405493Y-95155309D01*
X145395000Y-95258013D01*
X145395000Y-95508000D01*
X141631945Y-95508000D01*
X143624389Y-93515555D01*
X143685710Y-93482072D01*
X143755402Y-93487056D01*
X143771074Y-93494177D01*
X143931190Y-93580828D01*
X144166386Y-93661571D01*
X144411665Y-93702500D01*
X144660335Y-93702500D01*
X144905614Y-93661571D01*
X145140810Y-93580828D01*
X145359509Y-93462474D01*
X145555744Y-93309738D01*
X145714772Y-93136986D01*
X145774656Y-93100999D01*
X145844494Y-93103099D01*
X145897228Y-93136989D01*
X146048736Y-93301569D01*
X146056256Y-93309738D01*
X146252491Y-93462474D01*
X146471190Y-93580828D01*
X146706386Y-93661571D01*
X146951665Y-93702500D01*
X147200335Y-93702500D01*
X147445608Y-93661572D01*
X147445607Y-93661572D01*
X147445614Y-93661571D01*
X147498965Y-93643254D01*
X147568762Y-93640105D01*
X147626906Y-93672853D01*
X147644966Y-93690912D01*
X147650758Y-93695405D01*
X147655198Y-93699198D01*
X147668048Y-93711264D01*
X147690607Y-93732448D01*
X147709198Y-93742668D01*
X147725463Y-93753352D01*
X147740708Y-93765177D01*
X147742237Y-93766363D01*
X147786827Y-93785658D01*
X147792056Y-93788220D01*
X147834632Y-93811627D01*
X147855193Y-93816905D01*
X147873597Y-93823207D01*
X147893074Y-93831636D01*
X147927392Y-93837071D01*
X147941054Y-93839235D01*
X147946764Y-93840417D01*
X147993823Y-93852500D01*
X148015045Y-93852500D01*
X148034442Y-93854026D01*
X148055405Y-93857347D01*
X148103772Y-93852774D01*
X148109609Y-93852500D01*
X153476495Y-93852500D01*
X153492505Y-93854267D01*
X153492528Y-93854026D01*
X153500289Y-93854758D01*
X153500296Y-93854760D01*
X153572203Y-93852500D01*
X153602925Y-93852500D01*
X153610190Y-93851581D01*
X153616016Y-93851122D01*
X153664569Y-93849597D01*
X153684956Y-93843673D01*
X153703996Y-93839731D01*
X153725058Y-93837071D01*
X153770235Y-93819183D01*
X153775735Y-93817300D01*
X153822398Y-93803744D01*
X153840665Y-93792939D01*
X153858136Y-93784380D01*
X153877871Y-93776568D01*
X153917177Y-93748010D01*
X153922043Y-93744813D01*
X153963865Y-93720081D01*
X153978870Y-93705075D01*
X153993668Y-93692436D01*
X153995766Y-93690912D01*
X154010837Y-93679963D01*
X154041809Y-93642522D01*
X154045723Y-93638221D01*
X154578128Y-93105816D01*
X154639449Y-93072333D01*
X154665797Y-93069499D01*
X154908264Y-93069499D01*
X154975301Y-93089184D01*
X155021056Y-93141988D01*
X155031000Y-93211146D01*
X155001975Y-93274702D01*
X154981148Y-93293817D01*
X154892927Y-93357913D01*
X154766266Y-93498585D01*
X154671621Y-93662515D01*
X154671618Y-93662522D01*
X154613127Y-93842539D01*
X154613125Y-93842549D01*
X154610556Y-93866986D01*
X154583970Y-93931600D01*
X154561289Y-93953479D01*
X154551469Y-93960789D01*
X154551469Y-93960790D01*
X154517898Y-94000797D01*
X154514253Y-94004776D01*
X154508409Y-94010622D01*
X154488059Y-94036359D01*
X154438695Y-94095189D01*
X154434729Y-94101219D01*
X154434682Y-94101188D01*
X154430630Y-94107547D01*
X154430679Y-94107577D01*
X154426889Y-94113721D01*
X154394424Y-94183341D01*
X154359960Y-94251966D01*
X154357488Y-94258757D01*
X154357432Y-94258736D01*
X154354960Y-94265850D01*
X154355015Y-94265869D01*
X154352742Y-94272727D01*
X154345500Y-94307802D01*
X154337207Y-94347965D01*
X154319831Y-94421283D01*
X154319499Y-94422685D01*
X154318892Y-94427878D01*
X154291555Y-94492178D01*
X154260831Y-94519015D01*
X154226343Y-94540288D01*
X154102289Y-94664342D01*
X154010187Y-94813663D01*
X154010185Y-94813668D01*
X153989519Y-94876034D01*
X153955001Y-94980203D01*
X153955001Y-94980204D01*
X153955000Y-94980204D01*
X153944500Y-95082983D01*
X153944500Y-96433001D01*
X153944501Y-96433018D01*
X153955000Y-96535796D01*
X153955001Y-96535799D01*
X154008249Y-96696488D01*
X154010186Y-96702334D01*
X154102288Y-96851656D01*
X154226344Y-96975712D01*
X154343786Y-97048150D01*
X154390511Y-97100098D01*
X154401734Y-97169060D01*
X154373891Y-97233142D01*
X154315822Y-97271999D01*
X154278471Y-97277689D01*
X153064567Y-97275545D01*
X152997562Y-97255742D01*
X152951901Y-97202857D01*
X152942080Y-97133681D01*
X152971217Y-97070177D01*
X152999688Y-97046007D01*
X153113656Y-96975712D01*
X153237712Y-96851656D01*
X153329814Y-96702334D01*
X153384999Y-96535797D01*
X153395500Y-96433009D01*
X153395499Y-95082992D01*
X153384999Y-94980203D01*
X153329814Y-94813666D01*
X153237712Y-94664344D01*
X153113656Y-94540288D01*
X152964334Y-94448186D01*
X152797797Y-94393001D01*
X152797795Y-94393000D01*
X152695010Y-94382500D01*
X151844998Y-94382500D01*
X151844980Y-94382501D01*
X151742203Y-94393000D01*
X151742200Y-94393001D01*
X151575668Y-94448185D01*
X151575663Y-94448187D01*
X151426342Y-94540289D01*
X151302289Y-94664342D01*
X151210187Y-94813663D01*
X151210185Y-94813668D01*
X151189519Y-94876034D01*
X151159423Y-94966860D01*
X151155001Y-94980204D01*
X151155000Y-94980205D01*
X151153377Y-94996101D01*
X151126982Y-95060793D01*
X151069802Y-95100945D01*
X151030019Y-95107500D01*
X149308733Y-95107500D01*
X149241694Y-95087815D01*
X149195939Y-95035011D01*
X149191028Y-95022506D01*
X149186495Y-95008829D01*
X149179814Y-94988666D01*
X149087712Y-94839344D01*
X148963656Y-94715288D01*
X148814334Y-94623186D01*
X148647797Y-94568001D01*
X148647795Y-94568000D01*
X148545010Y-94557500D01*
X147919998Y-94557500D01*
X147919980Y-94557501D01*
X147817203Y-94568000D01*
X147817200Y-94568001D01*
X147650668Y-94623185D01*
X147650663Y-94623187D01*
X147501345Y-94715287D01*
X147407327Y-94809305D01*
X147346003Y-94842789D01*
X147276312Y-94837805D01*
X147231965Y-94809304D01*
X147138345Y-94715684D01*
X146989124Y-94623643D01*
X146989119Y-94623641D01*
X146822697Y-94568494D01*
X146822690Y-94568493D01*
X146719986Y-94558000D01*
X146657500Y-94558000D01*
X146657500Y-96957999D01*
X146719972Y-96957999D01*
X146719986Y-96957998D01*
X146822697Y-96947505D01*
X146989119Y-96892358D01*
X146989124Y-96892356D01*
X147138342Y-96800317D01*
X147231964Y-96706695D01*
X147293287Y-96673210D01*
X147362979Y-96678194D01*
X147407327Y-96706695D01*
X147501344Y-96800712D01*
X147650666Y-96892814D01*
X147817203Y-96947999D01*
X147919991Y-96958500D01*
X148545008Y-96958499D01*
X148545016Y-96958498D01*
X148545019Y-96958498D01*
X148601302Y-96952748D01*
X148647797Y-96947999D01*
X148814334Y-96892814D01*
X148963656Y-96800712D01*
X149087712Y-96676656D01*
X149179814Y-96527334D01*
X149191028Y-96493494D01*
X149230801Y-96436050D01*
X149295317Y-96409228D01*
X149308733Y-96408500D01*
X151030019Y-96408500D01*
X151097058Y-96428185D01*
X151142813Y-96480989D01*
X151153377Y-96519899D01*
X151155000Y-96535796D01*
X151155001Y-96535799D01*
X151208249Y-96696488D01*
X151210186Y-96702334D01*
X151302288Y-96851656D01*
X151426344Y-96975712D01*
X151535743Y-97043189D01*
X151582468Y-97095137D01*
X151593691Y-97164099D01*
X151565848Y-97228181D01*
X151507779Y-97267038D01*
X151470428Y-97272728D01*
X142341600Y-97256599D01*
X142341600Y-101577687D01*
X142321915Y-101644726D01*
X142269111Y-101690481D01*
X142217688Y-101701687D01*
X106651688Y-101726911D01*
X106584635Y-101707274D01*
X106538842Y-101654502D01*
X106527600Y-101602911D01*
X106527600Y-97282000D01*
X99438000Y-97282000D01*
X99370961Y-97262315D01*
X99325206Y-97209511D01*
X99314000Y-97158000D01*
X99314000Y-95199600D01*
X102904801Y-95199600D01*
X102904801Y-95424586D01*
X102915294Y-95527297D01*
X102970441Y-95693719D01*
X102970443Y-95693724D01*
X103062484Y-95842945D01*
X103186454Y-95966915D01*
X103335675Y-96058956D01*
X103335680Y-96058958D01*
X103502102Y-96114105D01*
X103502109Y-96114106D01*
X103604819Y-96124599D01*
X104829799Y-96124599D01*
X104829800Y-96124598D01*
X104829800Y-95199600D01*
X105329799Y-95199600D01*
X105329799Y-96124598D01*
X105329800Y-96124599D01*
X106554772Y-96124599D01*
X106554786Y-96124598D01*
X106657497Y-96114105D01*
X106823919Y-96058958D01*
X106823924Y-96058956D01*
X106973145Y-95966915D01*
X107097115Y-95842945D01*
X107189156Y-95693724D01*
X107189158Y-95693719D01*
X107244305Y-95527297D01*
X107244306Y-95527290D01*
X107254799Y-95424586D01*
X107254800Y-95424573D01*
X107254800Y-95199600D01*
X105329799Y-95199600D01*
X104829800Y-95199600D01*
X102904801Y-95199600D01*
X99314000Y-95199600D01*
X99314000Y-94699600D01*
X102904800Y-94699600D01*
X104829800Y-94699600D01*
X104829800Y-93774600D01*
X105329799Y-93774600D01*
X105329799Y-94699599D01*
X105329801Y-94699600D01*
X107254799Y-94699600D01*
X107254799Y-94474628D01*
X107254798Y-94474613D01*
X107244305Y-94371902D01*
X107189158Y-94205480D01*
X107189156Y-94205475D01*
X107097115Y-94056254D01*
X106973145Y-93932284D01*
X106823924Y-93840243D01*
X106823919Y-93840241D01*
X106657497Y-93785094D01*
X106657490Y-93785093D01*
X106554786Y-93774600D01*
X105329799Y-93774600D01*
X104829800Y-93774600D01*
X103604828Y-93774600D01*
X103604812Y-93774601D01*
X103502102Y-93785094D01*
X103335680Y-93840241D01*
X103335675Y-93840243D01*
X103186454Y-93932284D01*
X103062484Y-94056254D01*
X102970443Y-94205475D01*
X102970441Y-94205480D01*
X102915294Y-94371902D01*
X102915293Y-94371909D01*
X102904800Y-94474613D01*
X102904800Y-94699600D01*
X99314000Y-94699600D01*
X99314000Y-93206446D01*
X99333685Y-93139407D01*
X99386489Y-93093652D01*
X99455647Y-93083708D01*
X99512311Y-93107180D01*
X99621064Y-93188593D01*
X99621071Y-93188597D01*
X99755917Y-93238891D01*
X99755916Y-93238891D01*
X99762844Y-93239635D01*
X99815527Y-93245300D01*
X101911272Y-93245299D01*
X101970883Y-93238891D01*
X102105731Y-93188596D01*
X102220946Y-93102346D01*
X102307196Y-92987131D01*
X102357491Y-92852283D01*
X102363900Y-92792673D01*
X102363899Y-90696928D01*
X102357491Y-90637317D01*
X102343700Y-90600342D01*
X102307197Y-90502471D01*
X102307193Y-90502464D01*
X102220947Y-90387255D01*
X102220944Y-90387252D01*
X102105733Y-90301004D01*
X102100597Y-90298200D01*
X102051193Y-90248794D01*
X102036342Y-90180521D01*
X102056217Y-90121547D01*
X102187133Y-89921164D01*
X102286987Y-89693517D01*
X102348012Y-89452538D01*
X102348014Y-89452529D01*
X102368541Y-89204805D01*
X102368541Y-89204794D01*
X102348014Y-88957070D01*
X102348012Y-88957061D01*
X102286987Y-88716082D01*
X102187131Y-88488430D01*
X102086834Y-88334916D01*
X101472349Y-88949402D01*
X101411026Y-88982887D01*
X101341334Y-88977903D01*
X101285401Y-88936031D01*
X101280353Y-88928761D01*
X101245161Y-88874002D01*
X101237351Y-88867235D01*
X101136500Y-88779848D01*
X101136499Y-88779847D01*
X101129798Y-88774041D01*
X101132098Y-88771385D01*
X101097360Y-88731228D01*
X101087474Y-88662061D01*
X101116552Y-88598529D01*
X101122516Y-88592129D01*
X101733456Y-87981189D01*
X101686629Y-87944743D01*
X101468014Y-87826435D01*
X101468003Y-87826430D01*
X101232893Y-87745716D01*
X100987693Y-87704800D01*
X100739107Y-87704800D01*
X100493906Y-87745716D01*
X100258796Y-87826430D01*
X100258790Y-87826432D01*
X100040161Y-87944749D01*
X99993342Y-87981188D01*
X99993342Y-87981190D01*
X100604283Y-88592130D01*
X100637768Y-88653453D01*
X100632784Y-88723144D01*
X100595758Y-88772605D01*
X100597002Y-88774041D01*
X100481638Y-88874002D01*
X100446446Y-88928762D01*
X100393642Y-88974517D01*
X100324483Y-88984460D01*
X100260928Y-88955434D01*
X100254450Y-88949403D01*
X99639964Y-88334916D01*
X99541809Y-88485155D01*
X99488662Y-88530511D01*
X99419431Y-88539935D01*
X99356095Y-88510433D01*
X99318764Y-88451373D01*
X99314000Y-88417333D01*
X99314000Y-86918800D01*
X101964540Y-86918800D01*
X101984326Y-87107056D01*
X101984327Y-87107059D01*
X102042818Y-87287077D01*
X102042821Y-87287084D01*
X102137467Y-87451016D01*
X102236010Y-87560459D01*
X102264129Y-87591688D01*
X102417265Y-87702948D01*
X102417270Y-87702951D01*
X102590192Y-87779942D01*
X102590197Y-87779944D01*
X102775354Y-87819300D01*
X102775355Y-87819300D01*
X102964644Y-87819300D01*
X102964646Y-87819300D01*
X103149803Y-87779944D01*
X103322730Y-87702951D01*
X103475871Y-87591688D01*
X103602533Y-87451016D01*
X103697179Y-87287084D01*
X103734404Y-87172516D01*
X103773841Y-87114842D01*
X103804784Y-87097953D01*
X103804266Y-87096788D01*
X103910087Y-87049671D01*
X103983130Y-87017151D01*
X104136271Y-86905888D01*
X104262933Y-86765216D01*
X104357579Y-86601284D01*
X104406490Y-86450750D01*
X104445926Y-86393078D01*
X104498635Y-86367782D01*
X104546803Y-86357544D01*
X104719730Y-86280551D01*
X104770279Y-86243824D01*
X104836082Y-86220345D01*
X104904136Y-86236170D01*
X104952832Y-86286275D01*
X104966708Y-86354752D01*
X104948702Y-86409239D01*
X104884790Y-86512859D01*
X104884785Y-86512868D01*
X104857806Y-86594286D01*
X104829601Y-86679403D01*
X104829601Y-86679404D01*
X104829600Y-86679404D01*
X104819100Y-86782183D01*
X104819099Y-86782196D01*
X104819099Y-87182469D01*
X104799414Y-87249509D01*
X104782780Y-87270150D01*
X104594158Y-87458772D01*
X104580529Y-87470551D01*
X104561268Y-87484890D01*
X104527698Y-87524897D01*
X104524053Y-87528876D01*
X104518209Y-87534722D01*
X104497859Y-87560459D01*
X104448495Y-87619289D01*
X104444529Y-87625319D01*
X104444482Y-87625288D01*
X104440430Y-87631647D01*
X104440479Y-87631677D01*
X104436689Y-87637821D01*
X104404224Y-87707441D01*
X104369760Y-87776066D01*
X104367288Y-87782857D01*
X104367232Y-87782836D01*
X104364760Y-87789950D01*
X104364815Y-87789969D01*
X104362542Y-87796827D01*
X104356561Y-87825798D01*
X104347007Y-87872065D01*
X104345432Y-87878706D01*
X104310815Y-87939395D01*
X104248880Y-87971735D01*
X104224778Y-87974100D01*
X103604798Y-87974100D01*
X103604780Y-87974101D01*
X103502003Y-87984600D01*
X103502000Y-87984601D01*
X103335468Y-88039785D01*
X103335463Y-88039787D01*
X103186142Y-88131889D01*
X103062089Y-88255942D01*
X102969987Y-88405263D01*
X102969985Y-88405268D01*
X102950562Y-88463883D01*
X102914801Y-88571803D01*
X102914801Y-88571804D01*
X102914800Y-88571804D01*
X102904300Y-88674583D01*
X102904300Y-89624601D01*
X102904301Y-89624619D01*
X102914800Y-89727396D01*
X102914801Y-89727399D01*
X102969985Y-89893931D01*
X102969987Y-89893936D01*
X102994144Y-89933100D01*
X103062088Y-90043256D01*
X103186144Y-90167312D01*
X103335466Y-90259414D01*
X103502003Y-90314599D01*
X103604791Y-90325100D01*
X106554808Y-90325099D01*
X106657597Y-90314599D01*
X106824134Y-90259414D01*
X106973456Y-90167312D01*
X107097512Y-90043256D01*
X107189614Y-89893934D01*
X107244799Y-89727397D01*
X107255300Y-89624609D01*
X107255299Y-88674592D01*
X107253781Y-88659736D01*
X107244799Y-88571803D01*
X107244798Y-88571800D01*
X107217128Y-88488298D01*
X107189614Y-88405266D01*
X107097512Y-88255944D01*
X106973456Y-88131888D01*
X106973451Y-88131884D01*
X106972598Y-88131358D01*
X106972136Y-88130844D01*
X106967789Y-88127407D01*
X106968376Y-88126663D01*
X106925878Y-88079406D01*
X106914662Y-88010443D01*
X106942511Y-87946363D01*
X106950001Y-87938166D01*
X107062312Y-87825856D01*
X107154414Y-87676534D01*
X107209599Y-87509997D01*
X107220100Y-87407209D01*
X107220099Y-86782192D01*
X107216727Y-86749186D01*
X107209599Y-86679403D01*
X107209598Y-86679400D01*
X107206552Y-86670207D01*
X107154414Y-86512866D01*
X107062312Y-86363544D01*
X106968649Y-86269881D01*
X106935164Y-86208558D01*
X106940148Y-86138866D01*
X106968649Y-86094519D01*
X107015134Y-86048034D01*
X107062312Y-86000856D01*
X107154414Y-85851534D01*
X107209599Y-85684997D01*
X107220100Y-85582209D01*
X107220099Y-84957192D01*
X107217851Y-84935189D01*
X107209599Y-84854403D01*
X107209598Y-84854400D01*
X107205662Y-84842523D01*
X107154414Y-84687866D01*
X107062312Y-84538544D01*
X106938256Y-84414488D01*
X106818435Y-84340582D01*
X106788936Y-84322387D01*
X106788931Y-84322385D01*
X106775583Y-84317962D01*
X106622397Y-84267201D01*
X106622395Y-84267200D01*
X106519610Y-84256700D01*
X105519598Y-84256700D01*
X105519580Y-84256701D01*
X105416803Y-84267200D01*
X105416800Y-84267201D01*
X105250268Y-84322385D01*
X105250263Y-84322387D01*
X105100942Y-84414489D01*
X105032551Y-84482881D01*
X104971228Y-84516366D01*
X104944870Y-84519200D01*
X104532005Y-84519200D01*
X104514035Y-84517891D01*
X104490272Y-84514410D01*
X104445190Y-84518355D01*
X104438233Y-84518964D01*
X104432832Y-84519200D01*
X104424587Y-84519200D01*
X104398522Y-84522246D01*
X104392005Y-84523008D01*
X104386703Y-84523471D01*
X104315501Y-84529701D01*
X104308434Y-84531161D01*
X104308422Y-84531104D01*
X104301053Y-84532738D01*
X104301067Y-84532795D01*
X104294039Y-84534460D01*
X104221868Y-84560728D01*
X104148965Y-84584886D01*
X104148963Y-84584886D01*
X104148960Y-84584888D01*
X104142423Y-84587936D01*
X104142399Y-84587884D01*
X104135608Y-84591172D01*
X104135634Y-84591223D01*
X104129180Y-84594464D01*
X104124847Y-84597314D01*
X104082498Y-84614998D01*
X103987196Y-84635256D01*
X103987192Y-84635257D01*
X103814270Y-84712248D01*
X103814265Y-84712251D01*
X103661129Y-84823511D01*
X103534466Y-84964185D01*
X103439821Y-85128115D01*
X103439819Y-85128119D01*
X103396703Y-85260814D01*
X103366455Y-85310174D01*
X103345373Y-85331257D01*
X103284051Y-85364744D01*
X103283472Y-85364868D01*
X103250596Y-85371856D01*
X103250592Y-85371857D01*
X103077670Y-85448848D01*
X103077665Y-85448851D01*
X102924529Y-85560111D01*
X102797866Y-85700785D01*
X102703221Y-85864715D01*
X102703217Y-85864725D01*
X102665993Y-85979284D01*
X102626555Y-86036959D01*
X102595619Y-86053860D01*
X102596133Y-86055013D01*
X102417270Y-86134648D01*
X102417265Y-86134651D01*
X102264129Y-86245911D01*
X102137466Y-86386585D01*
X102042821Y-86550515D01*
X102042818Y-86550522D01*
X101984327Y-86730540D01*
X101984326Y-86730544D01*
X101964540Y-86918800D01*
X99314000Y-86918800D01*
X99314000Y-81437623D01*
X100548503Y-81437623D01*
X100548504Y-81437624D01*
X101316800Y-81437624D01*
X101383839Y-81457309D01*
X101429594Y-81510113D01*
X101439538Y-81579271D01*
X101439273Y-81581021D01*
X101422390Y-81687620D01*
X101422390Y-81687627D01*
X101439273Y-81794227D01*
X101430318Y-81863520D01*
X101385322Y-81916972D01*
X101318570Y-81937611D01*
X101316800Y-81937624D01*
X100548504Y-81937624D01*
X100601106Y-82133941D01*
X100601110Y-82133950D01*
X100697241Y-82340106D01*
X100827718Y-82526444D01*
X100988555Y-82687281D01*
X101174893Y-82817758D01*
X101381049Y-82913889D01*
X101381058Y-82913893D01*
X101577375Y-82966496D01*
X101577376Y-82966495D01*
X101577376Y-82198199D01*
X101597061Y-82131160D01*
X101649865Y-82085405D01*
X101719023Y-82075461D01*
X101720707Y-82075715D01*
X101753075Y-82080842D01*
X101795891Y-82087624D01*
X101795895Y-82087624D01*
X101858861Y-82087624D01*
X101901676Y-82080842D01*
X101933978Y-82075726D01*
X102003270Y-82084680D01*
X102056723Y-82129676D01*
X102077363Y-82196427D01*
X102077376Y-82198199D01*
X102077376Y-82966496D01*
X102273693Y-82913893D01*
X102273702Y-82913889D01*
X102479858Y-82817758D01*
X102666196Y-82687281D01*
X102827033Y-82526444D01*
X102957510Y-82340106D01*
X103053641Y-82133950D01*
X103053645Y-82133941D01*
X103106248Y-81937624D01*
X102337952Y-81937624D01*
X102270913Y-81917939D01*
X102225158Y-81865135D01*
X102215214Y-81795977D01*
X102215479Y-81794227D01*
X102232362Y-81687627D01*
X102232362Y-81687620D01*
X102215479Y-81581021D01*
X102224434Y-81511728D01*
X102269430Y-81458276D01*
X102336182Y-81437637D01*
X102337952Y-81437624D01*
X103116677Y-81437624D01*
X103149381Y-81413743D01*
X103219127Y-81409586D01*
X103272272Y-81437185D01*
X103272502Y-81436901D01*
X103273911Y-81438036D01*
X103274197Y-81438185D01*
X103275079Y-81438977D01*
X103275087Y-81438985D01*
X103321770Y-81476605D01*
X103321771Y-81476605D01*
X103321773Y-81476607D01*
X103452683Y-81536392D01*
X103452684Y-81536392D01*
X103452686Y-81536393D01*
X103595143Y-81556874D01*
X103737600Y-81536393D01*
X103868516Y-81476605D01*
X103915199Y-81438986D01*
X105114271Y-80239913D01*
X105151891Y-80193230D01*
X105211679Y-80062314D01*
X105232160Y-79919857D01*
X105211679Y-79777400D01*
X105201905Y-79755999D01*
X105151892Y-79646486D01*
X105151891Y-79646485D01*
X105151891Y-79646484D01*
X105114272Y-79599801D01*
X105114267Y-79599796D01*
X105114263Y-79599791D01*
X103915206Y-78400736D01*
X103915199Y-78400729D01*
X103868516Y-78363109D01*
X103868514Y-78363108D01*
X103868512Y-78363106D01*
X103737602Y-78303321D01*
X103737598Y-78303320D01*
X103595143Y-78282840D01*
X103452687Y-78303320D01*
X103452683Y-78303321D01*
X103321772Y-78363107D01*
X103275077Y-78400736D01*
X102076022Y-79599793D01*
X102076016Y-79599800D01*
X102038394Y-79646485D01*
X102038392Y-79646487D01*
X101978607Y-79777397D01*
X101978606Y-79777401D01*
X101958126Y-79919857D01*
X101978606Y-80062312D01*
X101978607Y-80062316D01*
X102038393Y-80193227D01*
X102038394Y-80193228D01*
X102038395Y-80193230D01*
X102076014Y-80239913D01*
X102076020Y-80239920D01*
X102076826Y-80240817D01*
X102076946Y-80241069D01*
X102078098Y-80242498D01*
X102077760Y-80242770D01*
X102106972Y-80303849D01*
X102098255Y-80373172D01*
X102077376Y-80399882D01*
X102077376Y-81177048D01*
X102057691Y-81244087D01*
X102004887Y-81289842D01*
X101935729Y-81299786D01*
X101933978Y-81299521D01*
X101858862Y-81287624D01*
X101858857Y-81287624D01*
X101795895Y-81287624D01*
X101795890Y-81287624D01*
X101720774Y-81299521D01*
X101651480Y-81290566D01*
X101598028Y-81245570D01*
X101577389Y-81178818D01*
X101577376Y-81177048D01*
X101577376Y-80408751D01*
X101381047Y-80461358D01*
X101174893Y-80557489D01*
X100988555Y-80687966D01*
X100827718Y-80848803D01*
X100697241Y-81035141D01*
X100601110Y-81241297D01*
X100601106Y-81241306D01*
X100548503Y-81437623D01*
X99314000Y-81437623D01*
X99314000Y-78102000D01*
X99333685Y-78034961D01*
X99386489Y-77989206D01*
X99438000Y-77978000D01*
X106680000Y-77978000D01*
X106680000Y-73834800D01*
X106699685Y-73767761D01*
X106752489Y-73722006D01*
X106804000Y-73710800D01*
X142217600Y-73710800D01*
X142284639Y-73730485D01*
G37*
%TD.AperFunction*%
%TA.AperFunction,Conductor*%
G36*
X130836444Y-88982790D02*
G01*
X131008264Y-89154610D01*
X131018335Y-89167180D01*
X131018522Y-89167026D01*
X131023496Y-89173037D01*
X131023498Y-89173040D01*
X131047411Y-89195496D01*
X131075943Y-89222290D01*
X131097667Y-89244013D01*
X131103457Y-89248505D01*
X131107897Y-89252297D01*
X131133873Y-89276689D01*
X131143307Y-89285548D01*
X131143309Y-89285549D01*
X131161905Y-89295772D01*
X131178170Y-89306457D01*
X131187761Y-89313897D01*
X131194936Y-89319462D01*
X131213554Y-89327518D01*
X131214840Y-89328075D01*
X131268548Y-89372765D01*
X131289569Y-89439397D01*
X131271229Y-89506817D01*
X131219351Y-89553619D01*
X131190703Y-89561709D01*
X131191019Y-89563185D01*
X131184400Y-89564601D01*
X131017868Y-89619785D01*
X131017863Y-89619787D01*
X130868542Y-89711889D01*
X130744489Y-89835942D01*
X130652387Y-89985263D01*
X130652385Y-89985268D01*
X130633170Y-90043256D01*
X130597201Y-90151803D01*
X130597201Y-90151804D01*
X130597200Y-90151804D01*
X130586700Y-90254583D01*
X130586699Y-90254596D01*
X130586699Y-90698872D01*
X130567014Y-90765912D01*
X130514210Y-90811666D01*
X130445052Y-90821610D01*
X130436919Y-90820162D01*
X130302734Y-90791641D01*
X130302733Y-90791641D01*
X130113441Y-90791641D01*
X130080984Y-90798539D01*
X129928284Y-90830996D01*
X129928279Y-90830998D01*
X129755357Y-90907989D01*
X129755352Y-90907992D01*
X129669156Y-90970618D01*
X129603350Y-90994098D01*
X129596271Y-90994300D01*
X129539337Y-90994300D01*
X129472298Y-90974615D01*
X129466452Y-90970618D01*
X129452734Y-90960651D01*
X129452729Y-90960648D01*
X129279807Y-90883657D01*
X129279802Y-90883655D01*
X129249125Y-90877135D01*
X129187643Y-90843943D01*
X129153867Y-90782780D01*
X129158519Y-90713065D01*
X129187225Y-90668164D01*
X129356597Y-90498791D01*
X129356598Y-90498791D01*
X129365427Y-90488453D01*
X129379707Y-90471735D01*
X129450834Y-90342354D01*
X129499754Y-90293433D01*
X129629135Y-90222306D01*
X129650073Y-90204422D01*
X129656184Y-90199204D01*
X129656184Y-90199205D01*
X129922282Y-89933105D01*
X129922283Y-89933105D01*
X129945389Y-89906052D01*
X129945392Y-89906049D01*
X130016518Y-89776670D01*
X130065438Y-89727749D01*
X130194821Y-89656621D01*
X130215759Y-89638737D01*
X130221870Y-89633519D01*
X130221870Y-89633520D01*
X130487968Y-89367420D01*
X130487969Y-89367420D01*
X130511074Y-89340369D01*
X130511074Y-89340368D01*
X130511078Y-89340364D01*
X130587213Y-89201875D01*
X130626516Y-89048802D01*
X130626515Y-89048801D01*
X130628456Y-89041246D01*
X130631390Y-89041999D01*
X130653635Y-88990931D01*
X130711739Y-88952127D01*
X130781598Y-88950897D01*
X130836444Y-88982790D01*
G37*
%TD.AperFunction*%
%TA.AperFunction,Conductor*%
G36*
X132723560Y-89571369D02*
G01*
X132760774Y-89630504D01*
X132760110Y-89700370D01*
X132729152Y-89751987D01*
X132644879Y-89836260D01*
X132643026Y-89839265D01*
X132641218Y-89840890D01*
X132640402Y-89841923D01*
X132640225Y-89841783D01*
X132591074Y-89885985D01*
X132522111Y-89897201D01*
X132458031Y-89869352D01*
X132431953Y-89839253D01*
X132431937Y-89839228D01*
X132429912Y-89835944D01*
X132409235Y-89815267D01*
X132375750Y-89753944D01*
X132380734Y-89684252D01*
X132422606Y-89628319D01*
X132458607Y-89609652D01*
X132461393Y-89608745D01*
X132461403Y-89608744D01*
X132591037Y-89551026D01*
X132660283Y-89541741D01*
X132723560Y-89571369D01*
G37*
%TD.AperFunction*%
%TA.AperFunction,Conductor*%
G36*
X118499850Y-84876185D02*
G01*
X118545605Y-84928989D01*
X118555549Y-84998147D01*
X118526524Y-85061703D01*
X118492551Y-85089161D01*
X118487768Y-85091790D01*
X118448484Y-85120332D01*
X118443601Y-85123539D01*
X118401777Y-85148274D01*
X118386771Y-85163281D01*
X118371981Y-85175913D01*
X118354812Y-85188387D01*
X118354810Y-85188389D01*
X118323839Y-85225825D01*
X118319907Y-85230146D01*
X117502018Y-86048034D01*
X117440695Y-86081519D01*
X117371003Y-86076535D01*
X117315070Y-86034663D01*
X117290653Y-85969199D01*
X117296630Y-85921355D01*
X117321999Y-85844797D01*
X117332500Y-85742009D01*
X117332499Y-85456227D01*
X117352183Y-85389189D01*
X117368813Y-85368552D01*
X117844547Y-84892819D01*
X117905871Y-84859334D01*
X117932229Y-84856500D01*
X118432811Y-84856500D01*
X118499850Y-84876185D01*
G37*
%TD.AperFunction*%
%TA.AperFunction,Conductor*%
G36*
X120172822Y-84176184D02*
G01*
X120218577Y-84228988D01*
X120228521Y-84298146D01*
X120214443Y-84340239D01*
X120192900Y-84379423D01*
X120143978Y-84428345D01*
X120013783Y-84499921D01*
X119986733Y-84523024D01*
X119986733Y-84523023D01*
X119720635Y-84789123D01*
X119720634Y-84789123D01*
X119697528Y-84816173D01*
X119626398Y-84945558D01*
X119577480Y-84994478D01*
X119566504Y-85000513D01*
X119506760Y-85015855D01*
X119296151Y-85015855D01*
X119229112Y-84996170D01*
X119183357Y-84943366D01*
X119173413Y-84874208D01*
X119202438Y-84810652D01*
X119234444Y-84785754D01*
X119234083Y-84785205D01*
X119240114Y-84781237D01*
X119240117Y-84781237D01*
X119304283Y-84739034D01*
X119369656Y-84698712D01*
X119369662Y-84698705D01*
X119375325Y-84694229D01*
X119375363Y-84694277D01*
X119381200Y-84689522D01*
X119381161Y-84689475D01*
X119386696Y-84684830D01*
X119439385Y-84628983D01*
X119875549Y-84192818D01*
X119936872Y-84159333D01*
X119963230Y-84156499D01*
X120105783Y-84156499D01*
X120172822Y-84176184D01*
G37*
%TD.AperFunction*%
%TD*%
M02*
