%TF.GenerationSoftware,KiCad,Pcbnew,7.0.7*%
%TF.CreationDate,2023-09-18T12:00:33+02:00*%
%TF.ProjectId,AT90S4433_evaluation_board,41543930-5334-4343-9333-5f6576616c75,rev?*%
%TF.SameCoordinates,Original*%
%TF.FileFunction,Soldermask,Top*%
%TF.FilePolarity,Negative*%
%FSLAX46Y46*%
G04 Gerber Fmt 4.6, Leading zero omitted, Abs format (unit mm)*
G04 Created by KiCad (PCBNEW 7.0.7) date 2023-09-18 12:00:33*
%MOMM*%
%LPD*%
G01*
G04 APERTURE LIST*
G04 Aperture macros list*
%AMRoundRect*
0 Rectangle with rounded corners*
0 $1 Rounding radius*
0 $2 $3 $4 $5 $6 $7 $8 $9 X,Y pos of 4 corners*
0 Add a 4 corners polygon primitive as box body*
4,1,4,$2,$3,$4,$5,$6,$7,$8,$9,$2,$3,0*
0 Add four circle primitives for the rounded corners*
1,1,$1+$1,$2,$3*
1,1,$1+$1,$4,$5*
1,1,$1+$1,$6,$7*
1,1,$1+$1,$8,$9*
0 Add four rect primitives between the rounded corners*
20,1,$1+$1,$2,$3,$4,$5,0*
20,1,$1+$1,$4,$5,$6,$7,0*
20,1,$1+$1,$6,$7,$8,$9,0*
20,1,$1+$1,$8,$9,$2,$3,0*%
%AMRotRect*
0 Rectangle, with rotation*
0 The origin of the aperture is its center*
0 $1 length*
0 $2 width*
0 $3 Rotation angle, in degrees counterclockwise*
0 Add horizontal line*
21,1,$1,$2,0,0,$3*%
G04 Aperture macros list end*
%ADD10C,2.000000*%
%ADD11C,1.500000*%
%ADD12RoundRect,0.250000X-0.375000X-0.625000X0.375000X-0.625000X0.375000X0.625000X-0.375000X0.625000X0*%
%ADD13RoundRect,0.125000X-0.530330X0.353553X0.353553X-0.530330X0.530330X-0.353553X-0.353553X0.530330X0*%
%ADD14RoundRect,0.125000X-0.530330X-0.353553X-0.353553X-0.530330X0.530330X0.353553X0.353553X0.530330X0*%
%ADD15RoundRect,0.250000X-1.425000X0.425000X-1.425000X-0.425000X1.425000X-0.425000X1.425000X0.425000X0*%
%ADD16C,1.397000*%
%ADD17RoundRect,0.250000X-0.262500X-0.450000X0.262500X-0.450000X0.262500X0.450000X-0.262500X0.450000X0*%
%ADD18RoundRect,0.250000X-0.250000X-0.475000X0.250000X-0.475000X0.250000X0.475000X-0.250000X0.475000X0*%
%ADD19RotRect,1.600000X1.600000X225.000000*%
%ADD20C,1.600000*%
%ADD21RoundRect,0.218750X0.218750X0.381250X-0.218750X0.381250X-0.218750X-0.381250X0.218750X-0.381250X0*%
%ADD22R,2.000000X2.000000*%
%ADD23RoundRect,0.250000X0.262500X0.450000X-0.262500X0.450000X-0.262500X-0.450000X0.262500X-0.450000X0*%
%ADD24RoundRect,0.250000X0.250000X0.475000X-0.250000X0.475000X-0.250000X-0.475000X0.250000X-0.475000X0*%
%ADD25RoundRect,0.250000X0.450000X-0.262500X0.450000X0.262500X-0.450000X0.262500X-0.450000X-0.262500X0*%
G04 APERTURE END LIST*
D10*
%TO.C,JP8*%
X140218000Y-92202000D03*
X137678000Y-92202000D03*
%TD*%
D11*
%TO.C,Y1*%
X110109000Y-90334001D03*
X110109000Y-85434001D03*
%TD*%
D10*
%TO.C,JP7*%
X147076000Y-92202000D03*
X144536000Y-92202000D03*
%TD*%
%TO.C,JP9*%
X138176000Y-85217000D03*
X135636000Y-85217000D03*
X133096000Y-85217000D03*
%TD*%
D12*
%TO.C,D1*%
X152270000Y-91694000D03*
X155070000Y-91694000D03*
%TD*%
D13*
%TO.C,U1*%
X123566344Y-82711887D03*
X123000659Y-83277573D03*
X122434973Y-83843258D03*
X121869288Y-84408943D03*
X121303602Y-84974629D03*
X120737917Y-85540314D03*
X120172232Y-86106000D03*
X119606546Y-86671685D03*
D14*
X119606546Y-88616229D03*
X120172232Y-89181914D03*
X120737917Y-89747600D03*
X121303602Y-90313285D03*
X121869288Y-90878971D03*
X122434973Y-91444656D03*
X123000659Y-92010341D03*
X123566344Y-92576027D03*
D13*
X125510888Y-92576027D03*
X126076573Y-92010341D03*
X126642259Y-91444656D03*
X127207944Y-90878971D03*
X127773630Y-90313285D03*
X128339315Y-89747600D03*
X128905000Y-89181914D03*
X129470686Y-88616229D03*
D14*
X129470686Y-86671685D03*
X128905000Y-86106000D03*
X128339315Y-85540314D03*
X127773630Y-84974629D03*
X127207944Y-84408943D03*
X126642259Y-83843258D03*
X126076573Y-83277573D03*
X125510888Y-82711887D03*
%TD*%
D15*
%TO.C,D3*%
X105079800Y-89149600D03*
X105079800Y-94949600D03*
%TD*%
D16*
%TO.C,SW1*%
X145796000Y-79756000D03*
X153416000Y-79756000D03*
X145796000Y-84836000D03*
X153416000Y-84836000D03*
%TD*%
D12*
%TO.C,D2*%
X152270000Y-95758000D03*
X155070000Y-95758000D03*
%TD*%
D17*
%TO.C,R2*%
X147804500Y-87884000D03*
X149629500Y-87884000D03*
%TD*%
D18*
%TO.C,C2*%
X116652000Y-92456000D03*
X118552000Y-92456000D03*
%TD*%
D17*
%TO.C,R4*%
X146407500Y-95758000D03*
X148232500Y-95758000D03*
%TD*%
D10*
%TO.C,JP3*%
X139700000Y-76200000D03*
X137160000Y-76200000D03*
X134620000Y-76200000D03*
X132080000Y-76200000D03*
X129540000Y-76200000D03*
X127000000Y-76200000D03*
%TD*%
D19*
%TO.C,C6*%
X103595143Y-79919857D03*
D20*
X101827376Y-81687624D03*
%TD*%
D21*
%TO.C,L1*%
X130246900Y-93472000D03*
X128121900Y-93472000D03*
%TD*%
D10*
%TO.C,JP4*%
X109220000Y-99060000D03*
X111760000Y-99060000D03*
X114300000Y-99060000D03*
X116840000Y-99060000D03*
X119380000Y-99060000D03*
X121920000Y-99060000D03*
%TD*%
D18*
%TO.C,C1*%
X114239000Y-90297000D03*
X116139000Y-90297000D03*
%TD*%
D10*
%TO.C,TP3*%
X100863400Y-89204800D03*
D22*
X100863400Y-91744800D03*
%TD*%
D18*
%TO.C,C5*%
X114432000Y-85217000D03*
X116332000Y-85217000D03*
%TD*%
D23*
%TO.C,R3*%
X143152500Y-87884000D03*
X141327500Y-87884000D03*
%TD*%
D24*
%TO.C,C3*%
X133487200Y-90779600D03*
X131587200Y-90779600D03*
%TD*%
D10*
%TO.C,JP1*%
X121920000Y-76200000D03*
X119380000Y-76200000D03*
X116840000Y-76200000D03*
X114300000Y-76200000D03*
X111760000Y-76200000D03*
X109220000Y-76200000D03*
%TD*%
D18*
%TO.C,C4*%
X118176000Y-82931000D03*
X120076000Y-82931000D03*
%TD*%
D10*
%TO.C,JP2*%
X127000000Y-99060000D03*
X129540000Y-99060000D03*
X132080000Y-99060000D03*
X134620000Y-99060000D03*
X137160000Y-99060000D03*
X139700000Y-99060000D03*
%TD*%
D23*
%TO.C,R1*%
X140866500Y-82423000D03*
X139041500Y-82423000D03*
%TD*%
D25*
%TO.C,R5*%
X106019600Y-87094700D03*
X106019600Y-85269700D03*
%TD*%
M02*
