%TF.GenerationSoftware,KiCad,Pcbnew,7.0.7*%
%TF.CreationDate,2023-09-18T12:00:32+02:00*%
%TF.ProjectId,AT90S4433_evaluation_board,41543930-5334-4343-9333-5f6576616c75,rev?*%
%TF.SameCoordinates,Original*%
%TF.FileFunction,Copper,L2,Bot*%
%TF.FilePolarity,Positive*%
%FSLAX46Y46*%
G04 Gerber Fmt 4.6, Leading zero omitted, Abs format (unit mm)*
G04 Created by KiCad (PCBNEW 7.0.7) date 2023-09-18 12:00:32*
%MOMM*%
%LPD*%
G01*
G04 APERTURE LIST*
G04 Aperture macros list*
%AMRotRect*
0 Rectangle, with rotation*
0 The origin of the aperture is its center*
0 $1 length*
0 $2 width*
0 $3 Rotation angle, in degrees counterclockwise*
0 Add horizontal line*
21,1,$1,$2,0,0,$3*%
G04 Aperture macros list end*
%TA.AperFunction,ComponentPad*%
%ADD10C,2.000000*%
%TD*%
%TA.AperFunction,ComponentPad*%
%ADD11C,1.500000*%
%TD*%
%TA.AperFunction,ComponentPad*%
%ADD12C,1.397000*%
%TD*%
%TA.AperFunction,ComponentPad*%
%ADD13RotRect,1.600000X1.600000X225.000000*%
%TD*%
%TA.AperFunction,ComponentPad*%
%ADD14C,1.600000*%
%TD*%
%TA.AperFunction,ComponentPad*%
%ADD15R,2.000000X2.000000*%
%TD*%
%TA.AperFunction,ViaPad*%
%ADD16C,0.800000*%
%TD*%
%TA.AperFunction,Conductor*%
%ADD17C,0.300000*%
%TD*%
%TA.AperFunction,Conductor*%
%ADD18C,0.500000*%
%TD*%
G04 APERTURE END LIST*
D10*
%TO.P,JP8,1,A*%
%TO.N,Net-(JP8-A)*%
X140218000Y-92202000D03*
%TO.P,JP8,2,B*%
%TO.N,/PC5(BTN)*%
X137678000Y-92202000D03*
%TD*%
D11*
%TO.P,Y1,1,1*%
%TO.N,/XTAL2*%
X110109000Y-90334001D03*
%TO.P,Y1,2,2*%
%TO.N,/XTAL1*%
X110109000Y-85434001D03*
%TD*%
D10*
%TO.P,JP7,1,A*%
%TO.N,Net-(D1-A)*%
X147076000Y-92202000D03*
%TO.P,JP7,2,B*%
%TO.N,/PC4(LED)*%
X144536000Y-92202000D03*
%TD*%
%TO.P,JP9,1,A*%
%TO.N,Net-(JP9-A)*%
X138176000Y-85217000D03*
%TO.P,JP9,2,C*%
%TO.N,Net-(JP9-C)*%
X135636000Y-85217000D03*
%TO.P,JP9,3,B*%
%TO.N,/EXT_RESET*%
X133096000Y-85217000D03*
%TD*%
D12*
%TO.P,SW1,1,1*%
%TO.N,VCC*%
X145796000Y-79756000D03*
X153416000Y-79756000D03*
%TO.P,SW1,2,2*%
%TO.N,Net-(JP8-A)*%
X145796000Y-84836000D03*
X153416000Y-84836000D03*
%TD*%
D10*
%TO.P,JP3,1*%
%TO.N,/PD0(RXD)*%
X139700000Y-76200000D03*
%TO.P,JP3,2*%
%TO.N,/PD1(TXD)*%
X137160000Y-76200000D03*
%TO.P,JP3,3*%
%TO.N,/PD2*%
X134620000Y-76200000D03*
%TO.P,JP3,4*%
%TO.N,/PD3*%
X132080000Y-76200000D03*
%TO.P,JP3,5*%
%TO.N,/PD4*%
X129540000Y-76200000D03*
%TO.P,JP3,6*%
%TO.N,/PD5*%
X127000000Y-76200000D03*
%TD*%
D13*
%TO.P,C6,1*%
%TO.N,VCC*%
X103595143Y-79919857D03*
D14*
%TO.P,C6,2*%
%TO.N,GND*%
X101827376Y-81687624D03*
%TD*%
D10*
%TO.P,JP4,1*%
%TO.N,/PB0*%
X109220000Y-99060000D03*
%TO.P,JP4,2*%
%TO.N,/PB1*%
X111760000Y-99060000D03*
%TO.P,JP4,3*%
%TO.N,/PB2(SS)*%
X114300000Y-99060000D03*
%TO.P,JP4,4*%
%TO.N,/PB3(MOSI)*%
X116840000Y-99060000D03*
%TO.P,JP4,5*%
%TO.N,/PB4(MISO)*%
X119380000Y-99060000D03*
%TO.P,JP4,6*%
%TO.N,/PB5(SCK)*%
X121920000Y-99060000D03*
%TD*%
%TO.P,TP3,1,1*%
%TO.N,GND*%
X100863400Y-89204800D03*
D15*
%TO.P,TP3,2,2*%
%TO.N,VCC*%
X100863400Y-91744800D03*
%TD*%
D10*
%TO.P,JP1,1*%
%TO.N,/PD6(AIN0)*%
X121920000Y-76200000D03*
%TO.P,JP1,2*%
%TO.N,/PD7(AIN1)*%
X119380000Y-76200000D03*
%TO.P,JP1,3*%
%TO.N,unconnected-(JP1-Pad3)*%
X116840000Y-76200000D03*
%TO.P,JP1,4*%
%TO.N,/EXT_RESET*%
X114300000Y-76200000D03*
%TO.P,JP1,5*%
%TO.N,VCC*%
X111760000Y-76200000D03*
%TO.P,JP1,6*%
%TO.N,GND*%
X109220000Y-76200000D03*
%TD*%
%TO.P,JP2,1*%
%TO.N,/PC0*%
X127000000Y-99060000D03*
%TO.P,JP2,2*%
%TO.N,/PC1*%
X129540000Y-99060000D03*
%TO.P,JP2,3*%
%TO.N,/PC2*%
X132080000Y-99060000D03*
%TO.P,JP2,4*%
%TO.N,/PC3*%
X134620000Y-99060000D03*
%TO.P,JP2,5*%
%TO.N,/PC4(LED)*%
X137160000Y-99060000D03*
%TO.P,JP2,6*%
%TO.N,/PC5(BTN)*%
X139700000Y-99060000D03*
%TD*%
D16*
%TO.N,/PD6(AIN0)*%
X117500400Y-81381600D03*
X122072400Y-87325200D03*
X117043200Y-80518000D03*
%TO.N,/PD7(AIN1)*%
X121869200Y-88595200D03*
X114884200Y-78638400D03*
X114198400Y-79679800D03*
%TO.N,VCC*%
X130208087Y-91692141D03*
X130911600Y-95631000D03*
X115300000Y-83500000D03*
X155498800Y-94030800D03*
X102870000Y-86918800D03*
X143510000Y-79756000D03*
X124790200Y-96300000D03*
X124800000Y-97200000D03*
X129895600Y-95783400D03*
X103530400Y-86233000D03*
X129000000Y-91744800D03*
X156260800Y-93421200D03*
X125500000Y-95700000D03*
X124800000Y-98200000D03*
X151282400Y-79756000D03*
X113500000Y-82800000D03*
X142341600Y-79806800D03*
X128879600Y-95758000D03*
X141630400Y-80467200D03*
X104267000Y-85496400D03*
X114500000Y-82804000D03*
%TO.N,/PC0*%
X126390400Y-89712800D03*
%TO.N,/PC1*%
X126593600Y-88442800D03*
%TO.N,/PC2*%
X132181600Y-88747600D03*
%TO.N,/PC3*%
X135559873Y-89325027D03*
%TO.N,/PC4(LED)*%
X126796800Y-87071200D03*
%TO.N,/PC5(BTN)*%
X126695200Y-86055200D03*
%TO.N,/PD5*%
X122021600Y-81330800D03*
X121310400Y-81889600D03*
X123748800Y-84429600D03*
%TO.N,/PB0*%
X120142000Y-91440000D03*
%TD*%
D17*
%TO.N,/PD7(AIN1)*%
X114198400Y-79324200D02*
X114884200Y-78638400D01*
X114198400Y-79679800D02*
X114198400Y-79324200D01*
%TO.N,/PD6(AIN0)*%
X122072400Y-85953600D02*
X117500400Y-81381600D01*
X117500400Y-81381600D02*
X117043200Y-80924400D01*
X122072400Y-87325200D02*
X122072400Y-85953600D01*
X117043200Y-80518000D02*
X117043200Y-80416400D01*
X117043200Y-80822800D02*
X117043200Y-80518000D01*
%TO.N,/PD7(AIN1)*%
X114274600Y-79679800D02*
X114350800Y-79603600D01*
X114884200Y-78562200D02*
X114884200Y-78562200D01*
X114147600Y-80828939D02*
X121869200Y-88550539D01*
X114198400Y-79679800D02*
X114147600Y-80828939D01*
X114198400Y-79679800D02*
X114274600Y-79679800D01*
X114884200Y-78638400D02*
X114884200Y-78562200D01*
X114147600Y-79654400D02*
X114198400Y-79679800D01*
X121869200Y-88550539D02*
X121869200Y-88595200D01*
D18*
%TO.N,VCC*%
X130911600Y-95631000D02*
X130208087Y-94927487D01*
X128879600Y-95758000D02*
X128727200Y-95910400D01*
X130208087Y-94927487D02*
X130208087Y-91692141D01*
D17*
%TO.N,/PC0*%
X126390400Y-89712800D02*
X127000000Y-90322400D01*
X127000000Y-90322400D02*
X127000000Y-99060000D01*
%TO.N,/PC1*%
X127824800Y-97344800D02*
X129540000Y-99060000D01*
X126593600Y-88442800D02*
X127824800Y-89674000D01*
X127824800Y-89674000D02*
X127824800Y-97344800D01*
%TO.N,/PC2*%
X132080000Y-88849200D02*
X132080000Y-99060000D01*
X132181600Y-88747600D02*
X132080000Y-88849200D01*
%TO.N,/PC3*%
X134620000Y-93218000D02*
X134620000Y-99060000D01*
X135559873Y-89325027D02*
X135559873Y-92278127D01*
X135559873Y-92278127D02*
X134620000Y-93218000D01*
%TO.N,/PC4(LED)*%
X136334644Y-95351600D02*
X136328000Y-95344956D01*
X137160000Y-99060000D02*
X136328000Y-98228000D01*
X127150355Y-87071200D02*
X126796800Y-87071200D01*
X136328000Y-95344956D02*
X136328000Y-89033200D01*
X136328000Y-89033200D02*
X135280400Y-87985600D01*
X136328000Y-95358244D02*
X136334644Y-95351600D01*
X128064755Y-87985600D02*
X127150355Y-87071200D01*
X136328000Y-98228000D02*
X136328000Y-95358244D01*
X135280400Y-87985600D02*
X128064755Y-87985600D01*
%TO.N,/PC5(BTN)*%
X126695200Y-86055200D02*
X126841461Y-86055200D01*
X137718800Y-88544400D02*
X137718800Y-97078800D01*
X137718800Y-97078800D02*
X139700000Y-99060000D01*
X136448800Y-87274400D02*
X137718800Y-88544400D01*
X126841461Y-86055200D02*
X128060661Y-87274400D01*
X128060661Y-87274400D02*
X136448800Y-87274400D01*
%TO.N,/PD5*%
X121310400Y-81991200D02*
X121310400Y-81889600D01*
X121310400Y-81889600D02*
X121412000Y-81889600D01*
X121970800Y-81330800D02*
X122021600Y-81330800D01*
X122021600Y-81280000D02*
X122123200Y-81178400D01*
X123748800Y-84429600D02*
X121310400Y-81991200D01*
X121412000Y-81889600D02*
X121970800Y-81330800D01*
X122021600Y-81330800D02*
X122021600Y-81280000D01*
%TO.N,/PB0*%
X120142000Y-91440000D02*
X114554000Y-97028000D01*
X111252000Y-97028000D02*
X109220000Y-99060000D01*
X114554000Y-97028000D02*
X111252000Y-97028000D01*
D18*
%TO.N,/EXT_RESET*%
X128193800Y-80314800D02*
X118414800Y-80314800D01*
X118414800Y-80314800D02*
X114300000Y-76200000D01*
X133096000Y-85217000D02*
X128193800Y-80314800D01*
%TD*%
%TA.AperFunction,Conductor*%
%TO.N,VCC*%
G36*
X131219810Y-88655785D02*
G01*
X131265565Y-88708589D01*
X131276092Y-88747139D01*
X131276140Y-88747597D01*
X131276140Y-88747600D01*
X131295926Y-88935856D01*
X131295927Y-88935859D01*
X131354418Y-89115877D01*
X131354423Y-89115889D01*
X131412886Y-89217150D01*
X131429499Y-89279149D01*
X131429499Y-97632009D01*
X131409814Y-97699048D01*
X131364518Y-97741063D01*
X131256496Y-97799522D01*
X131256494Y-97799523D01*
X131060255Y-97952262D01*
X131060252Y-97952265D01*
X130901228Y-98125010D01*
X130841341Y-98161001D01*
X130771503Y-98158900D01*
X130718770Y-98125011D01*
X130559744Y-97952262D01*
X130363509Y-97799526D01*
X130363507Y-97799525D01*
X130363506Y-97799524D01*
X130144811Y-97681172D01*
X130144802Y-97681169D01*
X129909616Y-97600429D01*
X129664335Y-97559500D01*
X129415665Y-97559500D01*
X129170382Y-97600429D01*
X129117029Y-97618744D01*
X129047231Y-97621892D01*
X128989089Y-97589143D01*
X128511619Y-97111673D01*
X128478134Y-97050350D01*
X128475300Y-97023992D01*
X128475300Y-89759503D01*
X128477068Y-89743491D01*
X128476826Y-89743469D01*
X128477560Y-89735706D01*
X128476239Y-89693681D01*
X128475300Y-89663782D01*
X128475300Y-89633075D01*
X128474379Y-89625792D01*
X128473923Y-89619987D01*
X128472398Y-89571431D01*
X128466476Y-89551050D01*
X128462531Y-89531995D01*
X128459872Y-89510949D01*
X128459871Y-89510948D01*
X128459871Y-89510942D01*
X128441989Y-89465779D01*
X128440100Y-89460259D01*
X128437844Y-89452494D01*
X128426545Y-89413602D01*
X128425942Y-89412583D01*
X128415736Y-89395324D01*
X128407178Y-89377855D01*
X128399368Y-89358129D01*
X128370806Y-89318818D01*
X128367618Y-89313964D01*
X128342881Y-89272135D01*
X128327874Y-89257128D01*
X128315235Y-89242330D01*
X128302761Y-89225160D01*
X128265328Y-89194194D01*
X128261006Y-89190260D01*
X127918980Y-88848234D01*
X127885495Y-88786911D01*
X127890479Y-88717219D01*
X127932351Y-88661286D01*
X127997815Y-88636869D01*
X128026057Y-88638079D01*
X128044160Y-88640947D01*
X128088569Y-88636748D01*
X128092525Y-88636375D01*
X128098363Y-88636100D01*
X131152771Y-88636100D01*
X131219810Y-88655785D01*
G37*
%TD.AperFunction*%
%TA.AperFunction,Conductor*%
G36*
X142284639Y-73730485D02*
G01*
X142330394Y-73783289D01*
X142341600Y-73834800D01*
X142341600Y-77978000D01*
X156594000Y-77978000D01*
X156661039Y-77997685D01*
X156706794Y-78050489D01*
X156718000Y-78102000D01*
X156718000Y-97157780D01*
X156698315Y-97224819D01*
X156645511Y-97270574D01*
X156593781Y-97281780D01*
X142341600Y-97256599D01*
X142341600Y-101577688D01*
X142321915Y-101644727D01*
X142269111Y-101690482D01*
X142217688Y-101701688D01*
X106702488Y-101726911D01*
X106635435Y-101707274D01*
X106589642Y-101654503D01*
X106578400Y-101602911D01*
X106578400Y-99060005D01*
X107714357Y-99060005D01*
X107734890Y-99307812D01*
X107734892Y-99307824D01*
X107795936Y-99548881D01*
X107895826Y-99776606D01*
X108031833Y-99984782D01*
X108031836Y-99984785D01*
X108200256Y-100167738D01*
X108396491Y-100320474D01*
X108615190Y-100438828D01*
X108850386Y-100519571D01*
X109095665Y-100560500D01*
X109344335Y-100560500D01*
X109589614Y-100519571D01*
X109824810Y-100438828D01*
X110043509Y-100320474D01*
X110239744Y-100167738D01*
X110398771Y-99994988D01*
X110458657Y-99958999D01*
X110528495Y-99961099D01*
X110581228Y-99994988D01*
X110740256Y-100167738D01*
X110936491Y-100320474D01*
X111155190Y-100438828D01*
X111390386Y-100519571D01*
X111635665Y-100560500D01*
X111884335Y-100560500D01*
X112129614Y-100519571D01*
X112364810Y-100438828D01*
X112583509Y-100320474D01*
X112779744Y-100167738D01*
X112938771Y-99994988D01*
X112998657Y-99958999D01*
X113068495Y-99961099D01*
X113121228Y-99994988D01*
X113280256Y-100167738D01*
X113476491Y-100320474D01*
X113695190Y-100438828D01*
X113930386Y-100519571D01*
X114175665Y-100560500D01*
X114424335Y-100560500D01*
X114669614Y-100519571D01*
X114904810Y-100438828D01*
X115123509Y-100320474D01*
X115319744Y-100167738D01*
X115478771Y-99994988D01*
X115538657Y-99958999D01*
X115608495Y-99961099D01*
X115661228Y-99994988D01*
X115820256Y-100167738D01*
X116016491Y-100320474D01*
X116235190Y-100438828D01*
X116470386Y-100519571D01*
X116715665Y-100560500D01*
X116964335Y-100560500D01*
X117209614Y-100519571D01*
X117444810Y-100438828D01*
X117663509Y-100320474D01*
X117859744Y-100167738D01*
X118018771Y-99994988D01*
X118078657Y-99958999D01*
X118148495Y-99961099D01*
X118201228Y-99994988D01*
X118360256Y-100167738D01*
X118556491Y-100320474D01*
X118775190Y-100438828D01*
X119010386Y-100519571D01*
X119255665Y-100560500D01*
X119504335Y-100560500D01*
X119749614Y-100519571D01*
X119984810Y-100438828D01*
X120203509Y-100320474D01*
X120399744Y-100167738D01*
X120558771Y-99994988D01*
X120618657Y-99958999D01*
X120688495Y-99961099D01*
X120741228Y-99994988D01*
X120900256Y-100167738D01*
X121096491Y-100320474D01*
X121315190Y-100438828D01*
X121550386Y-100519571D01*
X121795665Y-100560500D01*
X122044335Y-100560500D01*
X122289614Y-100519571D01*
X122524810Y-100438828D01*
X122743509Y-100320474D01*
X122939744Y-100167738D01*
X123108164Y-99984785D01*
X123244173Y-99776607D01*
X123344063Y-99548881D01*
X123405108Y-99307821D01*
X123413244Y-99209633D01*
X123425643Y-99060005D01*
X123425643Y-99059994D01*
X123405109Y-98812187D01*
X123405107Y-98812175D01*
X123344063Y-98571118D01*
X123244173Y-98343393D01*
X123108166Y-98135217D01*
X123020526Y-98040015D01*
X122939744Y-97952262D01*
X122743509Y-97799526D01*
X122743507Y-97799525D01*
X122743506Y-97799524D01*
X122524811Y-97681172D01*
X122524802Y-97681169D01*
X122289616Y-97600429D01*
X122044335Y-97559500D01*
X121795665Y-97559500D01*
X121550383Y-97600429D01*
X121315197Y-97681169D01*
X121315188Y-97681172D01*
X121096493Y-97799524D01*
X120900257Y-97952261D01*
X120741230Y-98125010D01*
X120681342Y-98161001D01*
X120611504Y-98158900D01*
X120558770Y-98125010D01*
X120480526Y-98040015D01*
X120399744Y-97952262D01*
X120203509Y-97799526D01*
X120203507Y-97799525D01*
X120203506Y-97799524D01*
X119984811Y-97681172D01*
X119984802Y-97681169D01*
X119749616Y-97600429D01*
X119504335Y-97559500D01*
X119255665Y-97559500D01*
X119010383Y-97600429D01*
X118775197Y-97681169D01*
X118775188Y-97681172D01*
X118556493Y-97799524D01*
X118360257Y-97952261D01*
X118201230Y-98125010D01*
X118141342Y-98161001D01*
X118071504Y-98158900D01*
X118018770Y-98125010D01*
X117940526Y-98040015D01*
X117859744Y-97952262D01*
X117663509Y-97799526D01*
X117663507Y-97799525D01*
X117663506Y-97799524D01*
X117444811Y-97681172D01*
X117444802Y-97681169D01*
X117209616Y-97600429D01*
X116964335Y-97559500D01*
X116715665Y-97559500D01*
X116470383Y-97600429D01*
X116235197Y-97681169D01*
X116235188Y-97681172D01*
X116016493Y-97799524D01*
X115820255Y-97952262D01*
X115820252Y-97952265D01*
X115661228Y-98125010D01*
X115601341Y-98161001D01*
X115531503Y-98158900D01*
X115478770Y-98125011D01*
X115319744Y-97952262D01*
X115123509Y-97799526D01*
X115123507Y-97799525D01*
X115123506Y-97799524D01*
X114996533Y-97730810D01*
X114946943Y-97681590D01*
X114931835Y-97613374D01*
X114956005Y-97547818D01*
X114967868Y-97534076D01*
X114970892Y-97531052D01*
X114985668Y-97518436D01*
X114988157Y-97516628D01*
X115002837Y-97505963D01*
X115033809Y-97468522D01*
X115037713Y-97464231D01*
X120125126Y-92376819D01*
X120186450Y-92343334D01*
X120212808Y-92340500D01*
X120236644Y-92340500D01*
X120236646Y-92340500D01*
X120421803Y-92301144D01*
X120594730Y-92224151D01*
X120747871Y-92112888D01*
X120874533Y-91972216D01*
X120969179Y-91808284D01*
X121027674Y-91628256D01*
X121047460Y-91440000D01*
X121027674Y-91251744D01*
X120969179Y-91071716D01*
X120874533Y-90907784D01*
X120747871Y-90767112D01*
X120747870Y-90767111D01*
X120594734Y-90655851D01*
X120594729Y-90655848D01*
X120421807Y-90578857D01*
X120421802Y-90578855D01*
X120276000Y-90547865D01*
X120236646Y-90539500D01*
X120047354Y-90539500D01*
X120014897Y-90546398D01*
X119862197Y-90578855D01*
X119862192Y-90578857D01*
X119689270Y-90655848D01*
X119689265Y-90655851D01*
X119536129Y-90767111D01*
X119409466Y-90907785D01*
X119314821Y-91071715D01*
X119314818Y-91071722D01*
X119256327Y-91251739D01*
X119256326Y-91251741D01*
X119242831Y-91380142D01*
X119216246Y-91444757D01*
X119207191Y-91454861D01*
X114320873Y-96341181D01*
X114259550Y-96374666D01*
X114233192Y-96377500D01*
X111337505Y-96377500D01*
X111321494Y-96375732D01*
X111321472Y-96375974D01*
X111313705Y-96375240D01*
X111313704Y-96375240D01*
X111241797Y-96377500D01*
X111211075Y-96377500D01*
X111211071Y-96377500D01*
X111211061Y-96377501D01*
X111203793Y-96378419D01*
X111197976Y-96378876D01*
X111149436Y-96380402D01*
X111149425Y-96380404D01*
X111129049Y-96386323D01*
X111110008Y-96390266D01*
X111088953Y-96392926D01*
X111088937Y-96392930D01*
X111043771Y-96410812D01*
X111038244Y-96412704D01*
X110991599Y-96426256D01*
X110973327Y-96437062D01*
X110955861Y-96445619D01*
X110936128Y-96453432D01*
X110896830Y-96481983D01*
X110891953Y-96485186D01*
X110878281Y-96493272D01*
X110850132Y-96509920D01*
X110835126Y-96524926D01*
X110820336Y-96537558D01*
X110803167Y-96550032D01*
X110803165Y-96550034D01*
X110772194Y-96587470D01*
X110768262Y-96591791D01*
X109770909Y-97589143D01*
X109709586Y-97622628D01*
X109642967Y-97618744D01*
X109589613Y-97600428D01*
X109344335Y-97559500D01*
X109095665Y-97559500D01*
X108850383Y-97600429D01*
X108615197Y-97681169D01*
X108615188Y-97681172D01*
X108396493Y-97799524D01*
X108200257Y-97952261D01*
X108031833Y-98135217D01*
X107895826Y-98343393D01*
X107795936Y-98571118D01*
X107734892Y-98812175D01*
X107734890Y-98812187D01*
X107714357Y-99059994D01*
X107714357Y-99060005D01*
X106578400Y-99060005D01*
X106578400Y-97282000D01*
X99438000Y-97282000D01*
X99370961Y-97262315D01*
X99325206Y-97209511D01*
X99314000Y-97158000D01*
X99314000Y-93205821D01*
X99333685Y-93138782D01*
X99386489Y-93093027D01*
X99455647Y-93083083D01*
X99512312Y-93106555D01*
X99621310Y-93188152D01*
X99621313Y-93188154D01*
X99756020Y-93238396D01*
X99756027Y-93238398D01*
X99815555Y-93244799D01*
X99815572Y-93244800D01*
X100613400Y-93244800D01*
X100613400Y-92357101D01*
X100633085Y-92290062D01*
X100685889Y-92244307D01*
X100755047Y-92234363D01*
X100827637Y-92244800D01*
X100827638Y-92244800D01*
X100899162Y-92244800D01*
X100899163Y-92244800D01*
X100971753Y-92234363D01*
X101040912Y-92244307D01*
X101093715Y-92290062D01*
X101113400Y-92357101D01*
X101113400Y-93244800D01*
X101911228Y-93244800D01*
X101911244Y-93244799D01*
X101970772Y-93238398D01*
X101970779Y-93238396D01*
X102105486Y-93188154D01*
X102105493Y-93188150D01*
X102220587Y-93101990D01*
X102220590Y-93101987D01*
X102306750Y-92986893D01*
X102306754Y-92986886D01*
X102356996Y-92852179D01*
X102356998Y-92852172D01*
X102363399Y-92792644D01*
X102363400Y-92792627D01*
X102363400Y-91994800D01*
X101476747Y-91994800D01*
X101409708Y-91975115D01*
X101363953Y-91922311D01*
X101354009Y-91853153D01*
X101357769Y-91835867D01*
X101363400Y-91816688D01*
X101363400Y-91672911D01*
X101357769Y-91653733D01*
X101357770Y-91583864D01*
X101395545Y-91525086D01*
X101459101Y-91496062D01*
X101476747Y-91494800D01*
X102363400Y-91494800D01*
X102363400Y-90696972D01*
X102363399Y-90696955D01*
X102356998Y-90637427D01*
X102356996Y-90637420D01*
X102306754Y-90502713D01*
X102306750Y-90502706D01*
X102220590Y-90387612D01*
X102220587Y-90387609D01*
X102148979Y-90334003D01*
X108853723Y-90334003D01*
X108860150Y-90407462D01*
X108871701Y-90539500D01*
X108872793Y-90551976D01*
X108872793Y-90551980D01*
X108929422Y-90763323D01*
X108929424Y-90763327D01*
X108929425Y-90763331D01*
X108958563Y-90825818D01*
X109021897Y-90961639D01*
X109021898Y-90961640D01*
X109147402Y-91140878D01*
X109302123Y-91295599D01*
X109481361Y-91421103D01*
X109679670Y-91513576D01*
X109891023Y-91570208D01*
X110073926Y-91586209D01*
X110108998Y-91589278D01*
X110109000Y-91589278D01*
X110109002Y-91589278D01*
X110137254Y-91586806D01*
X110326977Y-91570208D01*
X110538330Y-91513576D01*
X110736639Y-91421103D01*
X110915877Y-91295599D01*
X111070598Y-91140878D01*
X111196102Y-90961640D01*
X111288575Y-90763331D01*
X111345207Y-90551978D01*
X111364277Y-90334001D01*
X111345207Y-90116024D01*
X111293060Y-89921408D01*
X111288577Y-89904678D01*
X111288576Y-89904677D01*
X111288575Y-89904671D01*
X111196102Y-89706363D01*
X111196100Y-89706360D01*
X111196099Y-89706358D01*
X111070599Y-89527125D01*
X110996086Y-89452612D01*
X110915877Y-89372403D01*
X110751249Y-89257129D01*
X110736638Y-89246898D01*
X110594426Y-89180584D01*
X110538330Y-89154426D01*
X110538326Y-89154425D01*
X110538322Y-89154423D01*
X110326977Y-89097794D01*
X110109002Y-89078724D01*
X110108998Y-89078724D01*
X109963681Y-89091437D01*
X109891023Y-89097794D01*
X109891020Y-89097794D01*
X109679677Y-89154423D01*
X109679668Y-89154427D01*
X109481361Y-89246899D01*
X109481357Y-89246901D01*
X109302121Y-89372403D01*
X109147402Y-89527122D01*
X109021900Y-89706358D01*
X109021898Y-89706362D01*
X108929426Y-89904669D01*
X108929422Y-89904678D01*
X108872793Y-90116021D01*
X108872793Y-90116025D01*
X108853723Y-90333998D01*
X108853723Y-90334003D01*
X102148979Y-90334003D01*
X102105488Y-90301445D01*
X102100759Y-90298863D01*
X102051355Y-90249457D01*
X102036505Y-90181183D01*
X102056381Y-90122212D01*
X102187573Y-89921407D01*
X102287463Y-89693681D01*
X102348508Y-89452621D01*
X102353256Y-89395324D01*
X102369043Y-89204805D01*
X102369043Y-89204794D01*
X102348509Y-88956987D01*
X102348507Y-88956975D01*
X102287463Y-88715918D01*
X102187573Y-88488193D01*
X102051566Y-88280017D01*
X101934258Y-88152587D01*
X101883144Y-88097062D01*
X101686909Y-87944326D01*
X101686907Y-87944325D01*
X101686906Y-87944324D01*
X101468211Y-87825972D01*
X101468202Y-87825969D01*
X101233016Y-87745229D01*
X100987735Y-87704300D01*
X100739065Y-87704300D01*
X100493783Y-87745229D01*
X100258597Y-87825969D01*
X100258588Y-87825972D01*
X100039893Y-87944324D01*
X99843657Y-88097061D01*
X99675233Y-88280017D01*
X99541809Y-88484240D01*
X99488662Y-88529597D01*
X99419431Y-88539021D01*
X99356095Y-88509519D01*
X99318764Y-88450459D01*
X99314000Y-88416419D01*
X99314000Y-85434003D01*
X108853723Y-85434003D01*
X108856860Y-85469860D01*
X108871546Y-85637729D01*
X108872793Y-85651976D01*
X108872793Y-85651980D01*
X108929422Y-85863323D01*
X108929424Y-85863327D01*
X108929425Y-85863331D01*
X108975661Y-85962485D01*
X109021897Y-86061639D01*
X109021898Y-86061640D01*
X109147402Y-86240878D01*
X109302123Y-86395599D01*
X109481361Y-86521103D01*
X109679670Y-86613576D01*
X109891023Y-86670208D01*
X110073926Y-86686209D01*
X110108998Y-86689278D01*
X110109000Y-86689278D01*
X110109002Y-86689278D01*
X110137254Y-86686806D01*
X110326977Y-86670208D01*
X110538330Y-86613576D01*
X110736639Y-86521103D01*
X110915877Y-86395599D01*
X111070598Y-86240878D01*
X111196102Y-86061640D01*
X111288575Y-85863331D01*
X111345207Y-85651978D01*
X111364277Y-85434001D01*
X111345207Y-85216024D01*
X111310548Y-85086676D01*
X111288577Y-85004678D01*
X111288576Y-85004677D01*
X111288575Y-85004671D01*
X111196102Y-84806363D01*
X111196100Y-84806360D01*
X111196099Y-84806358D01*
X111070599Y-84627125D01*
X111058212Y-84614738D01*
X110915877Y-84472403D01*
X110736639Y-84346899D01*
X110736640Y-84346899D01*
X110736638Y-84346898D01*
X110597484Y-84282010D01*
X110538330Y-84254426D01*
X110538326Y-84254425D01*
X110538322Y-84254423D01*
X110326977Y-84197794D01*
X110109002Y-84178724D01*
X110108998Y-84178724D01*
X109963681Y-84191437D01*
X109891023Y-84197794D01*
X109891020Y-84197794D01*
X109679677Y-84254423D01*
X109679668Y-84254427D01*
X109481361Y-84346899D01*
X109481357Y-84346901D01*
X109302121Y-84472403D01*
X109147402Y-84627122D01*
X109021900Y-84806358D01*
X109021898Y-84806362D01*
X108929426Y-85004669D01*
X108929422Y-85004678D01*
X108872793Y-85216021D01*
X108872793Y-85216025D01*
X108853723Y-85433998D01*
X108853723Y-85434003D01*
X99314000Y-85434003D01*
X99314000Y-81687625D01*
X100521908Y-81687625D01*
X100541740Y-81914310D01*
X100541742Y-81914321D01*
X100600634Y-82134112D01*
X100600637Y-82134121D01*
X100696807Y-82340356D01*
X100696808Y-82340358D01*
X100827330Y-82526765D01*
X100988234Y-82687669D01*
X100988237Y-82687671D01*
X101174642Y-82818192D01*
X101380880Y-82914363D01*
X101600684Y-82973259D01*
X101762606Y-82987425D01*
X101827374Y-82993092D01*
X101827376Y-82993092D01*
X101827378Y-82993092D01*
X101884048Y-82988133D01*
X102054068Y-82973259D01*
X102273872Y-82914363D01*
X102480110Y-82818192D01*
X102666515Y-82687671D01*
X102827423Y-82526763D01*
X102957944Y-82340358D01*
X103054115Y-82134120D01*
X103113011Y-81914316D01*
X103132844Y-81687624D01*
X103123967Y-81586164D01*
X103137733Y-81517666D01*
X103186348Y-81467483D01*
X103254377Y-81451549D01*
X103314876Y-81473027D01*
X103315446Y-81472106D01*
X103319720Y-81474746D01*
X103320220Y-81474924D01*
X103321115Y-81475608D01*
X103322043Y-81476181D01*
X103452826Y-81535908D01*
X103595142Y-81556369D01*
X103737459Y-81535908D01*
X103868240Y-81476182D01*
X103914875Y-81438602D01*
X104337605Y-81015872D01*
X104337605Y-81015871D01*
X103779009Y-80457276D01*
X103745524Y-80395953D01*
X103750508Y-80326261D01*
X103792380Y-80270328D01*
X103810388Y-80259115D01*
X103833188Y-80247498D01*
X103922784Y-80157902D01*
X103934397Y-80135109D01*
X103982368Y-80084315D01*
X104050189Y-80067518D01*
X104116324Y-80090054D01*
X104132562Y-80103723D01*
X104691157Y-80662319D01*
X104691158Y-80662319D01*
X105113888Y-80239589D01*
X105151468Y-80192954D01*
X105211194Y-80062173D01*
X105231655Y-79919857D01*
X105231655Y-79919856D01*
X105211194Y-79777540D01*
X105151468Y-79646759D01*
X105113888Y-79600124D01*
X104691158Y-79177394D01*
X104132562Y-79735989D01*
X104071239Y-79769474D01*
X104001547Y-79764490D01*
X103945614Y-79722618D01*
X103934399Y-79704608D01*
X103922784Y-79681812D01*
X103922780Y-79681808D01*
X103922779Y-79681806D01*
X103833193Y-79592220D01*
X103833187Y-79592215D01*
X103822529Y-79586785D01*
X103810393Y-79580601D01*
X103759599Y-79532630D01*
X103742803Y-79464809D01*
X103765340Y-79398674D01*
X103779008Y-79382437D01*
X104337604Y-78823840D01*
X103914875Y-78401111D01*
X103868240Y-78363531D01*
X103737459Y-78303805D01*
X103595143Y-78283345D01*
X103452826Y-78303805D01*
X103322045Y-78363531D01*
X103275405Y-78401115D01*
X102852680Y-78823840D01*
X103411276Y-79382437D01*
X103444761Y-79443760D01*
X103439777Y-79513452D01*
X103397905Y-79569385D01*
X103379891Y-79580602D01*
X103357099Y-79592215D01*
X103357092Y-79592220D01*
X103267506Y-79681806D01*
X103267501Y-79681813D01*
X103255888Y-79704605D01*
X103207913Y-79755401D01*
X103140092Y-79772195D01*
X103073957Y-79749657D01*
X103057723Y-79735990D01*
X102499127Y-79177394D01*
X102499126Y-79177394D01*
X102076401Y-79600119D01*
X102038817Y-79646759D01*
X101979091Y-79777540D01*
X101958631Y-79919856D01*
X101958631Y-79919857D01*
X101979091Y-80062173D01*
X102038818Y-80192956D01*
X102042894Y-80199554D01*
X102040809Y-80200841D01*
X102062931Y-80254251D01*
X102050524Y-80323010D01*
X102002913Y-80374147D01*
X101935213Y-80391425D01*
X101928834Y-80391032D01*
X101827378Y-80382156D01*
X101827374Y-80382156D01*
X101600689Y-80401988D01*
X101600678Y-80401990D01*
X101380887Y-80460882D01*
X101380878Y-80460885D01*
X101174643Y-80557055D01*
X101174641Y-80557056D01*
X100988234Y-80687578D01*
X100827330Y-80848482D01*
X100696808Y-81034889D01*
X100696807Y-81034891D01*
X100600637Y-81241126D01*
X100600634Y-81241135D01*
X100541742Y-81460926D01*
X100541740Y-81460937D01*
X100521908Y-81687622D01*
X100521908Y-81687625D01*
X99314000Y-81687625D01*
X99314000Y-78102000D01*
X99333685Y-78034961D01*
X99386489Y-77989206D01*
X99438000Y-77978000D01*
X106680000Y-77978000D01*
X106680000Y-76200005D01*
X107714357Y-76200005D01*
X107734890Y-76447812D01*
X107734892Y-76447824D01*
X107795936Y-76688881D01*
X107895826Y-76916606D01*
X108031833Y-77124782D01*
X108031836Y-77124785D01*
X108200256Y-77307738D01*
X108396491Y-77460474D01*
X108396493Y-77460475D01*
X108614332Y-77578364D01*
X108615190Y-77578828D01*
X108782833Y-77636380D01*
X108848964Y-77659083D01*
X108850386Y-77659571D01*
X109095665Y-77700500D01*
X109344335Y-77700500D01*
X109589614Y-77659571D01*
X109824810Y-77578828D01*
X110043509Y-77460474D01*
X110239744Y-77307738D01*
X110408164Y-77124785D01*
X110408533Y-77124219D01*
X110408745Y-77124038D01*
X110411322Y-77120729D01*
X110412002Y-77121258D01*
X110461676Y-77078860D01*
X110525138Y-77068697D01*
X110536564Y-77069882D01*
X111151050Y-76455395D01*
X111212373Y-76421910D01*
X111282064Y-76426894D01*
X111337998Y-76468765D01*
X111343039Y-76476025D01*
X111378239Y-76530797D01*
X111378239Y-76530798D01*
X111493602Y-76630759D01*
X111491293Y-76633422D01*
X111526006Y-76673499D01*
X111535935Y-76742660D01*
X111506898Y-76806210D01*
X111500882Y-76812669D01*
X110889942Y-77423609D01*
X110936768Y-77460055D01*
X110936770Y-77460056D01*
X111155385Y-77578364D01*
X111155396Y-77578369D01*
X111390506Y-77659083D01*
X111635707Y-77700000D01*
X111884293Y-77700000D01*
X112129493Y-77659083D01*
X112364603Y-77578369D01*
X112364614Y-77578364D01*
X112583228Y-77460057D01*
X112583231Y-77460055D01*
X112630056Y-77423609D01*
X112019116Y-76812669D01*
X111985631Y-76751346D01*
X111990615Y-76681654D01*
X112027641Y-76632193D01*
X112026398Y-76630759D01*
X112033100Y-76624952D01*
X112141761Y-76530798D01*
X112176954Y-76476037D01*
X112229755Y-76430283D01*
X112298914Y-76420339D01*
X112362470Y-76449363D01*
X112368949Y-76455396D01*
X112983434Y-77069882D01*
X112994861Y-77068697D01*
X113063573Y-77081360D01*
X113108092Y-77121194D01*
X113108683Y-77120735D01*
X113111218Y-77123992D01*
X113111456Y-77124205D01*
X113111831Y-77124780D01*
X113111836Y-77124785D01*
X113280256Y-77307738D01*
X113476491Y-77460474D01*
X113476493Y-77460475D01*
X113694332Y-77578364D01*
X113695190Y-77578828D01*
X113862833Y-77636380D01*
X113928964Y-77659083D01*
X113930386Y-77659571D01*
X114175665Y-77700500D01*
X114261454Y-77700500D01*
X114328493Y-77720185D01*
X114374248Y-77772989D01*
X114384192Y-77842147D01*
X114355167Y-77905703D01*
X114334340Y-77924818D01*
X114278327Y-77965513D01*
X114151666Y-78106185D01*
X114057021Y-78270115D01*
X114057018Y-78270122D01*
X113998527Y-78450139D01*
X113998526Y-78450141D01*
X113998526Y-78450144D01*
X113987243Y-78557500D01*
X113985031Y-78578542D01*
X113958446Y-78643157D01*
X113949391Y-78653261D01*
X113798883Y-78803769D01*
X113786310Y-78813843D01*
X113786465Y-78814030D01*
X113780459Y-78818998D01*
X113755834Y-78845221D01*
X113731209Y-78871444D01*
X113720349Y-78882304D01*
X113709488Y-78893165D01*
X113709478Y-78893177D01*
X113704987Y-78898965D01*
X113701201Y-78903397D01*
X113667953Y-78938805D01*
X113663368Y-78945117D01*
X113662342Y-78944372D01*
X113633350Y-78977252D01*
X113592530Y-79006910D01*
X113592528Y-79006912D01*
X113465866Y-79147585D01*
X113371221Y-79311515D01*
X113371218Y-79311522D01*
X113312727Y-79491540D01*
X113312726Y-79491544D01*
X113301087Y-79602289D01*
X113293073Y-79678539D01*
X113292940Y-79679800D01*
X113312726Y-79868056D01*
X113312727Y-79868059D01*
X113371218Y-80048077D01*
X113371221Y-80048084D01*
X113465865Y-80212014D01*
X113465870Y-80212021D01*
X113487056Y-80235550D01*
X113517286Y-80298542D01*
X113518785Y-80323998D01*
X113500747Y-80732050D01*
X113497882Y-80753621D01*
X113494840Y-80767230D01*
X113494839Y-80767235D01*
X113496573Y-80822435D01*
X113496544Y-80827115D01*
X113495927Y-80841081D01*
X113495927Y-80841106D01*
X113497806Y-80864120D01*
X113497981Y-80867216D01*
X113500002Y-80931506D01*
X113500003Y-80931510D01*
X113501111Y-80935323D01*
X113505622Y-80959817D01*
X113505946Y-80963789D01*
X113505947Y-80963791D01*
X113526969Y-81024609D01*
X113527909Y-81027566D01*
X113545854Y-81089334D01*
X113545855Y-81089337D01*
X113547882Y-81092763D01*
X113558344Y-81115368D01*
X113559643Y-81119128D01*
X113595119Y-81172789D01*
X113596766Y-81175421D01*
X113629514Y-81230798D01*
X113629517Y-81230801D01*
X113629519Y-81230804D01*
X113632330Y-81233615D01*
X113648091Y-81252916D01*
X113650281Y-81256229D01*
X113697994Y-81299389D01*
X113700223Y-81301508D01*
X117360529Y-84961814D01*
X120929146Y-88530431D01*
X120962631Y-88591754D01*
X120964785Y-88605145D01*
X120983526Y-88783456D01*
X120983527Y-88783459D01*
X121042018Y-88963477D01*
X121042021Y-88963484D01*
X121136667Y-89127416D01*
X121263328Y-89268087D01*
X121263329Y-89268088D01*
X121416465Y-89379348D01*
X121416470Y-89379351D01*
X121589392Y-89456342D01*
X121589397Y-89456344D01*
X121774554Y-89495700D01*
X121774555Y-89495700D01*
X121963844Y-89495700D01*
X121963846Y-89495700D01*
X122149003Y-89456344D01*
X122321930Y-89379351D01*
X122475071Y-89268088D01*
X122601733Y-89127416D01*
X122696379Y-88963484D01*
X122754874Y-88783456D01*
X122774660Y-88595200D01*
X122754874Y-88406944D01*
X122696379Y-88226916D01*
X122653464Y-88152586D01*
X122636993Y-88084687D01*
X122659846Y-88018660D01*
X122677893Y-87998427D01*
X122678256Y-87998098D01*
X122678271Y-87998088D01*
X122804933Y-87857416D01*
X122899579Y-87693484D01*
X122958074Y-87513456D01*
X122977860Y-87325200D01*
X122958074Y-87136944D01*
X122899579Y-86956916D01*
X122804933Y-86792984D01*
X122754750Y-86737250D01*
X122724520Y-86674258D01*
X122722900Y-86654278D01*
X122722900Y-86039101D01*
X122724668Y-86023088D01*
X122724426Y-86023066D01*
X122725158Y-86015310D01*
X122725160Y-86015303D01*
X122722900Y-85943395D01*
X122722900Y-85912675D01*
X122721979Y-85905388D01*
X122721522Y-85899579D01*
X122719997Y-85851030D01*
X122714076Y-85830652D01*
X122710131Y-85811603D01*
X122707471Y-85790542D01*
X122689586Y-85745372D01*
X122687697Y-85739852D01*
X122683544Y-85725558D01*
X122674144Y-85693201D01*
X122663339Y-85674932D01*
X122654779Y-85657458D01*
X122652609Y-85651978D01*
X122646968Y-85637729D01*
X122618414Y-85598428D01*
X122615210Y-85593550D01*
X122590482Y-85551737D01*
X122590481Y-85551735D01*
X122575474Y-85536728D01*
X122562835Y-85521930D01*
X122550361Y-85504760D01*
X122512928Y-85473794D01*
X122508606Y-85469860D01*
X118435208Y-81396462D01*
X118401723Y-81335139D01*
X118399568Y-81321742D01*
X118397327Y-81300423D01*
X118387011Y-81202260D01*
X118399581Y-81133531D01*
X118447313Y-81082507D01*
X118510332Y-81065300D01*
X120562352Y-81065300D01*
X120629391Y-81084985D01*
X120675146Y-81137789D01*
X120685090Y-81206947D01*
X120656065Y-81270503D01*
X120654502Y-81272272D01*
X120577866Y-81357385D01*
X120483221Y-81521315D01*
X120483218Y-81521322D01*
X120425460Y-81699084D01*
X120424726Y-81701344D01*
X120404940Y-81889600D01*
X120424726Y-82077856D01*
X120424727Y-82077859D01*
X120483218Y-82257877D01*
X120483221Y-82257884D01*
X120577867Y-82421816D01*
X120672362Y-82526763D01*
X120704529Y-82562488D01*
X120857665Y-82673748D01*
X120857670Y-82673751D01*
X121030597Y-82750744D01*
X121146301Y-82775337D01*
X121207780Y-82808528D01*
X121208199Y-82808945D01*
X122813991Y-84414737D01*
X122847476Y-84476060D01*
X122849630Y-84489451D01*
X122863126Y-84617856D01*
X122863127Y-84617859D01*
X122921618Y-84797877D01*
X122921621Y-84797884D01*
X123016267Y-84961816D01*
X123142929Y-85102487D01*
X123142929Y-85102488D01*
X123296065Y-85213748D01*
X123296070Y-85213751D01*
X123468992Y-85290742D01*
X123468997Y-85290744D01*
X123654154Y-85330100D01*
X123654155Y-85330100D01*
X123843444Y-85330100D01*
X123843446Y-85330100D01*
X124028603Y-85290744D01*
X124201530Y-85213751D01*
X124354671Y-85102488D01*
X124481333Y-84961816D01*
X124575979Y-84797884D01*
X124634474Y-84617856D01*
X124654260Y-84429600D01*
X124634474Y-84241344D01*
X124575979Y-84061316D01*
X124481333Y-83897384D01*
X124354671Y-83756712D01*
X124299324Y-83716500D01*
X124201534Y-83645451D01*
X124201529Y-83645448D01*
X124028607Y-83568457D01*
X124028602Y-83568455D01*
X123882801Y-83537465D01*
X123843446Y-83529100D01*
X123843445Y-83529100D01*
X123819608Y-83529100D01*
X123752569Y-83509415D01*
X123731927Y-83492781D01*
X122507353Y-82268207D01*
X122473868Y-82206884D01*
X122478852Y-82137192D01*
X122520724Y-82081259D01*
X122522012Y-82080308D01*
X122627471Y-82003688D01*
X122754133Y-81863016D01*
X122848779Y-81699084D01*
X122907274Y-81519056D01*
X122927060Y-81330800D01*
X122913550Y-81202259D01*
X122926120Y-81133531D01*
X122973852Y-81082508D01*
X123036871Y-81065300D01*
X127831570Y-81065300D01*
X127898609Y-81084985D01*
X127919251Y-81101619D01*
X131596618Y-84778986D01*
X131630103Y-84840309D01*
X131629143Y-84897107D01*
X131610891Y-84969182D01*
X131590357Y-85216994D01*
X131590357Y-85217005D01*
X131610890Y-85464812D01*
X131610892Y-85464824D01*
X131671936Y-85705881D01*
X131771826Y-85933606D01*
X131907833Y-86141782D01*
X131907836Y-86141785D01*
X132076256Y-86324738D01*
X132175583Y-86402047D01*
X132216395Y-86458757D01*
X132220070Y-86528530D01*
X132185438Y-86589213D01*
X132123497Y-86621540D01*
X132099420Y-86623900D01*
X128381469Y-86623900D01*
X128314430Y-86604215D01*
X128293788Y-86587581D01*
X127605641Y-85899434D01*
X127575392Y-85850073D01*
X127524421Y-85693201D01*
X127522381Y-85686921D01*
X127522378Y-85686915D01*
X127427733Y-85522984D01*
X127301071Y-85382312D01*
X127301070Y-85382311D01*
X127147934Y-85271051D01*
X127147929Y-85271048D01*
X126975007Y-85194057D01*
X126975002Y-85194055D01*
X126829200Y-85163065D01*
X126789846Y-85154700D01*
X126600554Y-85154700D01*
X126568097Y-85161598D01*
X126415397Y-85194055D01*
X126415392Y-85194057D01*
X126242470Y-85271048D01*
X126242465Y-85271051D01*
X126089329Y-85382311D01*
X125962666Y-85522985D01*
X125868021Y-85686915D01*
X125868018Y-85686922D01*
X125809527Y-85866940D01*
X125809526Y-85866944D01*
X125789740Y-86055200D01*
X125809526Y-86243456D01*
X125809527Y-86243459D01*
X125868018Y-86423477D01*
X125868021Y-86423484D01*
X125964036Y-86589788D01*
X125980509Y-86657689D01*
X125971261Y-86696615D01*
X125971629Y-86696735D01*
X125970157Y-86701264D01*
X125969931Y-86702217D01*
X125969622Y-86702909D01*
X125911127Y-86882940D01*
X125911126Y-86882944D01*
X125891340Y-87071200D01*
X125911126Y-87259456D01*
X125911127Y-87259459D01*
X125969618Y-87439477D01*
X125969621Y-87439484D01*
X126053544Y-87584843D01*
X126070017Y-87652743D01*
X126047164Y-87718770D01*
X126019043Y-87747160D01*
X125987732Y-87769909D01*
X125987729Y-87769911D01*
X125861066Y-87910585D01*
X125766421Y-88074515D01*
X125766418Y-88074522D01*
X125709968Y-88248258D01*
X125707926Y-88254544D01*
X125688140Y-88442800D01*
X125707926Y-88631056D01*
X125707927Y-88631059D01*
X125766418Y-88811077D01*
X125766420Y-88811081D01*
X125766421Y-88811084D01*
X125772872Y-88822257D01*
X125809334Y-88885412D01*
X125825805Y-88953312D01*
X125802953Y-89019339D01*
X125784926Y-89039554D01*
X125784530Y-89039909D01*
X125657866Y-89180585D01*
X125563221Y-89344515D01*
X125563218Y-89344522D01*
X125509143Y-89510949D01*
X125504726Y-89524544D01*
X125484940Y-89712800D01*
X125504726Y-89901056D01*
X125504727Y-89901059D01*
X125563218Y-90081077D01*
X125563221Y-90081084D01*
X125657867Y-90245016D01*
X125746278Y-90343206D01*
X125784529Y-90385688D01*
X125937665Y-90496948D01*
X125937670Y-90496951D01*
X126110591Y-90573942D01*
X126110593Y-90573942D01*
X126110597Y-90573944D01*
X126251285Y-90603848D01*
X126312762Y-90637038D01*
X126346539Y-90698200D01*
X126349500Y-90725136D01*
X126349499Y-97632009D01*
X126329814Y-97699048D01*
X126284518Y-97741063D01*
X126176496Y-97799522D01*
X126176494Y-97799523D01*
X125980257Y-97952261D01*
X125811833Y-98135217D01*
X125675826Y-98343393D01*
X125575936Y-98571118D01*
X125514892Y-98812175D01*
X125514890Y-98812187D01*
X125494357Y-99059994D01*
X125494357Y-99060005D01*
X125514890Y-99307812D01*
X125514892Y-99307824D01*
X125575936Y-99548881D01*
X125675826Y-99776606D01*
X125811833Y-99984782D01*
X125811836Y-99984785D01*
X125980256Y-100167738D01*
X126176491Y-100320474D01*
X126395190Y-100438828D01*
X126630386Y-100519571D01*
X126875665Y-100560500D01*
X127124335Y-100560500D01*
X127369614Y-100519571D01*
X127604810Y-100438828D01*
X127823509Y-100320474D01*
X128019744Y-100167738D01*
X128178771Y-99994988D01*
X128238657Y-99958999D01*
X128308495Y-99961099D01*
X128361228Y-99994988D01*
X128520256Y-100167738D01*
X128716491Y-100320474D01*
X128935190Y-100438828D01*
X129170386Y-100519571D01*
X129415665Y-100560500D01*
X129664335Y-100560500D01*
X129909614Y-100519571D01*
X130144810Y-100438828D01*
X130363509Y-100320474D01*
X130559744Y-100167738D01*
X130718771Y-99994988D01*
X130778657Y-99958999D01*
X130848495Y-99961099D01*
X130901228Y-99994988D01*
X131060256Y-100167738D01*
X131256491Y-100320474D01*
X131475190Y-100438828D01*
X131710386Y-100519571D01*
X131955665Y-100560500D01*
X132204335Y-100560500D01*
X132449614Y-100519571D01*
X132684810Y-100438828D01*
X132903509Y-100320474D01*
X133099744Y-100167738D01*
X133258771Y-99994988D01*
X133318657Y-99958999D01*
X133388495Y-99961099D01*
X133441228Y-99994988D01*
X133600256Y-100167738D01*
X133796491Y-100320474D01*
X134015190Y-100438828D01*
X134250386Y-100519571D01*
X134495665Y-100560500D01*
X134744335Y-100560500D01*
X134989614Y-100519571D01*
X135224810Y-100438828D01*
X135443509Y-100320474D01*
X135639744Y-100167738D01*
X135798771Y-99994988D01*
X135858657Y-99958999D01*
X135928495Y-99961099D01*
X135981228Y-99994988D01*
X136140256Y-100167738D01*
X136336491Y-100320474D01*
X136555190Y-100438828D01*
X136790386Y-100519571D01*
X137035665Y-100560500D01*
X137284335Y-100560500D01*
X137529614Y-100519571D01*
X137764810Y-100438828D01*
X137983509Y-100320474D01*
X138179744Y-100167738D01*
X138338771Y-99994988D01*
X138398657Y-99958999D01*
X138468495Y-99961099D01*
X138521228Y-99994988D01*
X138680256Y-100167738D01*
X138876491Y-100320474D01*
X139095190Y-100438828D01*
X139330386Y-100519571D01*
X139575665Y-100560500D01*
X139824335Y-100560500D01*
X140069614Y-100519571D01*
X140304810Y-100438828D01*
X140523509Y-100320474D01*
X140719744Y-100167738D01*
X140888164Y-99984785D01*
X141024173Y-99776607D01*
X141124063Y-99548881D01*
X141185108Y-99307821D01*
X141193244Y-99209633D01*
X141205643Y-99060005D01*
X141205643Y-99059994D01*
X141185109Y-98812187D01*
X141185107Y-98812175D01*
X141124063Y-98571118D01*
X141024173Y-98343393D01*
X140888166Y-98135217D01*
X140800526Y-98040015D01*
X140719744Y-97952262D01*
X140523509Y-97799526D01*
X140523507Y-97799525D01*
X140523506Y-97799524D01*
X140304811Y-97681172D01*
X140304802Y-97681169D01*
X140069616Y-97600429D01*
X139824335Y-97559500D01*
X139575665Y-97559500D01*
X139330382Y-97600429D01*
X139277029Y-97618744D01*
X139207231Y-97621892D01*
X139149089Y-97589143D01*
X138405619Y-96845673D01*
X138372134Y-96784350D01*
X138369300Y-96757992D01*
X138369300Y-93607909D01*
X138388985Y-93540870D01*
X138434284Y-93498854D01*
X138501502Y-93462478D01*
X138501503Y-93462476D01*
X138501509Y-93462474D01*
X138697744Y-93309738D01*
X138856772Y-93136986D01*
X138916656Y-93100999D01*
X138986494Y-93103099D01*
X139039228Y-93136989D01*
X139182043Y-93292126D01*
X139198256Y-93309738D01*
X139394491Y-93462474D01*
X139613190Y-93580828D01*
X139848386Y-93661571D01*
X140093665Y-93702500D01*
X140342335Y-93702500D01*
X140587614Y-93661571D01*
X140822810Y-93580828D01*
X141041509Y-93462474D01*
X141237744Y-93309738D01*
X141406164Y-93126785D01*
X141542173Y-92918607D01*
X141642063Y-92690881D01*
X141703108Y-92449821D01*
X141716346Y-92290062D01*
X141723643Y-92202005D01*
X143030357Y-92202005D01*
X143050890Y-92449812D01*
X143050892Y-92449824D01*
X143111936Y-92690881D01*
X143211826Y-92918606D01*
X143347833Y-93126782D01*
X143347836Y-93126785D01*
X143516256Y-93309738D01*
X143712491Y-93462474D01*
X143931190Y-93580828D01*
X144166386Y-93661571D01*
X144411665Y-93702500D01*
X144660335Y-93702500D01*
X144905614Y-93661571D01*
X145140810Y-93580828D01*
X145359509Y-93462474D01*
X145555744Y-93309738D01*
X145714772Y-93136986D01*
X145774656Y-93100999D01*
X145844494Y-93103099D01*
X145897228Y-93136989D01*
X146040043Y-93292126D01*
X146056256Y-93309738D01*
X146252491Y-93462474D01*
X146471190Y-93580828D01*
X146706386Y-93661571D01*
X146951665Y-93702500D01*
X147200335Y-93702500D01*
X147445614Y-93661571D01*
X147680810Y-93580828D01*
X147899509Y-93462474D01*
X148095744Y-93309738D01*
X148264164Y-93126785D01*
X148400173Y-92918607D01*
X148500063Y-92690881D01*
X148561108Y-92449821D01*
X148574346Y-92290062D01*
X148581643Y-92202005D01*
X148581643Y-92201994D01*
X148561109Y-91954187D01*
X148561107Y-91954175D01*
X148500063Y-91713118D01*
X148400173Y-91485393D01*
X148264166Y-91277217D01*
X148234324Y-91244800D01*
X148095744Y-91094262D01*
X147899509Y-90941526D01*
X147899507Y-90941525D01*
X147899506Y-90941524D01*
X147680811Y-90823172D01*
X147680802Y-90823169D01*
X147445616Y-90742429D01*
X147200335Y-90701500D01*
X146951665Y-90701500D01*
X146706383Y-90742429D01*
X146471197Y-90823169D01*
X146471188Y-90823172D01*
X146252493Y-90941524D01*
X146056257Y-91094261D01*
X145897230Y-91267010D01*
X145837342Y-91303001D01*
X145767504Y-91300900D01*
X145714770Y-91267010D01*
X145675108Y-91223926D01*
X145555744Y-91094262D01*
X145359509Y-90941526D01*
X145359507Y-90941525D01*
X145359506Y-90941524D01*
X145140811Y-90823172D01*
X145140802Y-90823169D01*
X144905616Y-90742429D01*
X144660335Y-90701500D01*
X144411665Y-90701500D01*
X144166383Y-90742429D01*
X143931197Y-90823169D01*
X143931188Y-90823172D01*
X143712493Y-90941524D01*
X143516257Y-91094261D01*
X143347833Y-91277217D01*
X143211826Y-91485393D01*
X143111936Y-91713118D01*
X143050892Y-91954175D01*
X143050890Y-91954187D01*
X143030357Y-92201994D01*
X143030357Y-92202005D01*
X141723643Y-92202005D01*
X141723643Y-92201994D01*
X141703109Y-91954187D01*
X141703107Y-91954175D01*
X141642063Y-91713118D01*
X141542173Y-91485393D01*
X141406166Y-91277217D01*
X141376324Y-91244800D01*
X141237744Y-91094262D01*
X141041509Y-90941526D01*
X141041507Y-90941525D01*
X141041506Y-90941524D01*
X140822811Y-90823172D01*
X140822802Y-90823169D01*
X140587616Y-90742429D01*
X140342335Y-90701500D01*
X140093665Y-90701500D01*
X139848383Y-90742429D01*
X139613197Y-90823169D01*
X139613188Y-90823172D01*
X139394493Y-90941524D01*
X139198255Y-91094262D01*
X139198252Y-91094265D01*
X139039228Y-91267010D01*
X138979341Y-91303001D01*
X138909503Y-91300900D01*
X138856770Y-91267011D01*
X138697744Y-91094262D01*
X138501509Y-90941526D01*
X138501508Y-90941525D01*
X138501505Y-90941523D01*
X138501503Y-90941522D01*
X138434281Y-90905143D01*
X138384691Y-90855923D01*
X138369300Y-90796089D01*
X138369300Y-88629901D01*
X138371068Y-88613888D01*
X138370826Y-88613866D01*
X138371558Y-88606110D01*
X138371560Y-88606103D01*
X138369300Y-88534195D01*
X138369300Y-88503475D01*
X138368379Y-88496188D01*
X138367922Y-88490379D01*
X138366397Y-88441830D01*
X138360476Y-88421452D01*
X138356531Y-88402403D01*
X138353871Y-88381342D01*
X138335986Y-88336172D01*
X138334097Y-88330652D01*
X138320543Y-88283999D01*
X138309741Y-88265735D01*
X138301179Y-88248258D01*
X138300151Y-88245662D01*
X138293368Y-88228529D01*
X138264814Y-88189228D01*
X138261610Y-88184350D01*
X138236882Y-88142537D01*
X138236881Y-88142535D01*
X138221874Y-88127528D01*
X138209235Y-88112730D01*
X138196761Y-88095560D01*
X138159328Y-88064594D01*
X138155006Y-88060660D01*
X136969234Y-86874888D01*
X136959161Y-86862314D01*
X136958974Y-86862470D01*
X136954001Y-86856459D01*
X136901556Y-86807210D01*
X136879835Y-86785489D01*
X136874040Y-86780994D01*
X136869598Y-86777199D01*
X136834196Y-86743954D01*
X136834188Y-86743948D01*
X136815592Y-86733725D01*
X136799331Y-86723044D01*
X136782563Y-86710037D01*
X136751823Y-86696735D01*
X136737978Y-86690743D01*
X136732756Y-86688186D01*
X136690168Y-86664773D01*
X136690165Y-86664772D01*
X136669601Y-86659492D01*
X136651196Y-86653190D01*
X136631727Y-86644765D01*
X136631722Y-86644764D01*
X136592411Y-86638537D01*
X136529277Y-86608606D01*
X136492347Y-86549294D01*
X136493346Y-86479432D01*
X136531957Y-86421200D01*
X136535592Y-86418256D01*
X136655744Y-86324738D01*
X136814771Y-86151988D01*
X136874657Y-86115999D01*
X136944495Y-86118099D01*
X136997228Y-86151988D01*
X137156256Y-86324738D01*
X137352491Y-86477474D01*
X137352493Y-86477475D01*
X137558966Y-86589213D01*
X137571190Y-86595828D01*
X137806386Y-86676571D01*
X138051665Y-86717500D01*
X138300335Y-86717500D01*
X138545614Y-86676571D01*
X138780810Y-86595828D01*
X138999509Y-86477474D01*
X139195744Y-86324738D01*
X139364164Y-86141785D01*
X139500173Y-85933607D01*
X139600063Y-85705881D01*
X139661108Y-85464821D01*
X139667945Y-85382311D01*
X139681643Y-85217005D01*
X139681643Y-85216994D01*
X139661109Y-84969187D01*
X139661107Y-84969175D01*
X139627382Y-84836000D01*
X144591863Y-84836000D01*
X144612365Y-85057259D01*
X144612366Y-85057261D01*
X144673174Y-85270979D01*
X144673180Y-85270994D01*
X144772222Y-85469896D01*
X144906133Y-85647224D01*
X145007742Y-85739852D01*
X145063346Y-85790542D01*
X145070344Y-85796921D01*
X145070346Y-85796923D01*
X145259266Y-85913897D01*
X145259272Y-85913900D01*
X145288206Y-85925109D01*
X145466472Y-85994170D01*
X145684896Y-86035000D01*
X145684899Y-86035000D01*
X145907101Y-86035000D01*
X145907104Y-86035000D01*
X146125528Y-85994170D01*
X146332730Y-85913899D01*
X146521655Y-85796922D01*
X146685868Y-85647222D01*
X146819778Y-85469896D01*
X146918824Y-85270984D01*
X146979634Y-85057260D01*
X147000137Y-84836000D01*
X152211863Y-84836000D01*
X152232365Y-85057259D01*
X152232366Y-85057261D01*
X152293174Y-85270979D01*
X152293180Y-85270994D01*
X152392222Y-85469896D01*
X152526133Y-85647224D01*
X152627742Y-85739852D01*
X152683346Y-85790542D01*
X152690344Y-85796921D01*
X152690346Y-85796923D01*
X152879266Y-85913897D01*
X152879272Y-85913900D01*
X152908206Y-85925109D01*
X153086472Y-85994170D01*
X153304896Y-86035000D01*
X153304899Y-86035000D01*
X153527101Y-86035000D01*
X153527104Y-86035000D01*
X153745528Y-85994170D01*
X153952730Y-85913899D01*
X154141655Y-85796922D01*
X154305868Y-85647222D01*
X154439778Y-85469896D01*
X154538824Y-85270984D01*
X154599634Y-85057260D01*
X154620137Y-84836000D01*
X154619470Y-84828807D01*
X154599634Y-84614740D01*
X154599633Y-84614738D01*
X154559135Y-84472404D01*
X154538824Y-84401016D01*
X154496441Y-84315900D01*
X154479566Y-84282010D01*
X154439778Y-84202104D01*
X154333460Y-84061316D01*
X154305866Y-84024775D01*
X154141655Y-83875078D01*
X154141653Y-83875076D01*
X153952733Y-83758102D01*
X153952727Y-83758099D01*
X153845047Y-83716384D01*
X153745528Y-83677830D01*
X153527104Y-83637000D01*
X153304896Y-83637000D01*
X153086472Y-83677830D01*
X153036695Y-83697113D01*
X152879272Y-83758099D01*
X152879266Y-83758102D01*
X152690346Y-83875076D01*
X152690344Y-83875078D01*
X152526133Y-84024775D01*
X152392222Y-84202103D01*
X152293180Y-84401005D01*
X152293174Y-84401020D01*
X152232366Y-84614738D01*
X152232365Y-84614740D01*
X152211863Y-84835999D01*
X152211863Y-84836000D01*
X147000137Y-84836000D01*
X146999470Y-84828807D01*
X146979634Y-84614740D01*
X146979633Y-84614738D01*
X146939135Y-84472404D01*
X146918824Y-84401016D01*
X146876441Y-84315900D01*
X146859566Y-84282010D01*
X146819778Y-84202104D01*
X146713460Y-84061316D01*
X146685866Y-84024775D01*
X146521655Y-83875078D01*
X146521653Y-83875076D01*
X146332733Y-83758102D01*
X146332727Y-83758099D01*
X146225047Y-83716384D01*
X146125528Y-83677830D01*
X145907104Y-83637000D01*
X145684896Y-83637000D01*
X145466472Y-83677830D01*
X145416695Y-83697113D01*
X145259272Y-83758099D01*
X145259266Y-83758102D01*
X145070346Y-83875076D01*
X145070344Y-83875078D01*
X144906133Y-84024775D01*
X144772222Y-84202103D01*
X144673180Y-84401005D01*
X144673174Y-84401020D01*
X144612366Y-84614738D01*
X144612365Y-84614740D01*
X144591863Y-84835999D01*
X144591863Y-84836000D01*
X139627382Y-84836000D01*
X139600063Y-84728118D01*
X139500173Y-84500393D01*
X139364166Y-84292217D01*
X139259688Y-84178724D01*
X139195744Y-84109262D01*
X138999509Y-83956526D01*
X138999507Y-83956525D01*
X138999506Y-83956524D01*
X138780811Y-83838172D01*
X138780802Y-83838169D01*
X138545616Y-83757429D01*
X138300335Y-83716500D01*
X138051665Y-83716500D01*
X137806383Y-83757429D01*
X137571197Y-83838169D01*
X137571188Y-83838172D01*
X137352493Y-83956524D01*
X137156257Y-84109261D01*
X136997230Y-84282010D01*
X136937342Y-84318001D01*
X136867504Y-84315900D01*
X136814770Y-84282010D01*
X136719688Y-84178724D01*
X136655744Y-84109262D01*
X136459509Y-83956526D01*
X136459507Y-83956525D01*
X136459506Y-83956524D01*
X136240811Y-83838172D01*
X136240802Y-83838169D01*
X136005616Y-83757429D01*
X135760335Y-83716500D01*
X135511665Y-83716500D01*
X135266383Y-83757429D01*
X135031197Y-83838169D01*
X135031188Y-83838172D01*
X134812493Y-83956524D01*
X134616257Y-84109261D01*
X134457230Y-84282010D01*
X134397342Y-84318001D01*
X134327504Y-84315900D01*
X134274770Y-84282010D01*
X134179688Y-84178724D01*
X134115744Y-84109262D01*
X133919509Y-83956526D01*
X133919507Y-83956525D01*
X133919506Y-83956524D01*
X133700811Y-83838172D01*
X133700802Y-83838169D01*
X133465616Y-83757429D01*
X133220335Y-83716500D01*
X132971665Y-83716500D01*
X132764841Y-83751012D01*
X132695476Y-83742630D01*
X132656751Y-83716384D01*
X128769529Y-79829161D01*
X128757749Y-79815530D01*
X128750282Y-79805501D01*
X128743412Y-79796272D01*
X128743410Y-79796270D01*
X128703387Y-79762686D01*
X128699412Y-79759044D01*
X128696368Y-79756000D01*
X144592366Y-79756000D01*
X144612859Y-79977166D01*
X144612860Y-79977168D01*
X144673643Y-80190798D01*
X144673649Y-80190813D01*
X144772646Y-80389626D01*
X144772651Y-80389634D01*
X144788209Y-80410235D01*
X145253821Y-79944624D01*
X145315144Y-79911139D01*
X145384835Y-79916123D01*
X145440769Y-79957994D01*
X145451987Y-79976011D01*
X145463115Y-79997852D01*
X145554147Y-80088884D01*
X145575984Y-80100010D01*
X145626781Y-80147983D01*
X145643578Y-80215804D01*
X145621042Y-80281939D01*
X145607373Y-80298177D01*
X145143760Y-80761790D01*
X145143761Y-80761791D01*
X145259488Y-80833445D01*
X145259495Y-80833449D01*
X145466607Y-80913684D01*
X145684945Y-80954500D01*
X145907055Y-80954500D01*
X146125392Y-80913684D01*
X146332503Y-80833450D01*
X146332509Y-80833447D01*
X146448237Y-80761791D01*
X146448238Y-80761790D01*
X145984625Y-80298178D01*
X145951140Y-80236855D01*
X145956124Y-80167164D01*
X145997995Y-80111230D01*
X146016014Y-80100011D01*
X146037852Y-80088884D01*
X146037851Y-80088884D01*
X146037854Y-80088883D01*
X146128883Y-79997854D01*
X146140010Y-79976014D01*
X146187984Y-79925217D01*
X146255805Y-79908420D01*
X146321940Y-79930956D01*
X146338178Y-79944625D01*
X146803788Y-80410235D01*
X146803789Y-80410235D01*
X146819349Y-80389632D01*
X146819350Y-80389629D01*
X146918350Y-80190813D01*
X146918356Y-80190798D01*
X146979139Y-79977168D01*
X146979140Y-79977166D01*
X146999634Y-79756000D01*
X152212366Y-79756000D01*
X152232859Y-79977166D01*
X152232860Y-79977168D01*
X152293643Y-80190798D01*
X152293649Y-80190813D01*
X152392646Y-80389626D01*
X152392651Y-80389634D01*
X152408209Y-80410235D01*
X152873821Y-79944624D01*
X152935144Y-79911139D01*
X153004835Y-79916123D01*
X153060769Y-79957994D01*
X153071987Y-79976011D01*
X153083115Y-79997852D01*
X153174147Y-80088884D01*
X153195984Y-80100010D01*
X153246781Y-80147983D01*
X153263578Y-80215804D01*
X153241042Y-80281939D01*
X153227373Y-80298177D01*
X152763760Y-80761790D01*
X152763761Y-80761791D01*
X152879488Y-80833445D01*
X152879495Y-80833449D01*
X153086607Y-80913684D01*
X153304945Y-80954500D01*
X153527055Y-80954500D01*
X153745392Y-80913684D01*
X153952503Y-80833450D01*
X153952509Y-80833447D01*
X154068237Y-80761791D01*
X154068238Y-80761790D01*
X153604625Y-80298178D01*
X153571140Y-80236855D01*
X153576124Y-80167164D01*
X153617995Y-80111230D01*
X153636014Y-80100011D01*
X153657852Y-80088884D01*
X153657851Y-80088884D01*
X153657854Y-80088883D01*
X153748883Y-79997854D01*
X153760010Y-79976014D01*
X153807984Y-79925217D01*
X153875805Y-79908420D01*
X153941940Y-79930956D01*
X153958178Y-79944625D01*
X154423788Y-80410235D01*
X154423789Y-80410235D01*
X154439349Y-80389632D01*
X154439350Y-80389629D01*
X154538350Y-80190813D01*
X154538356Y-80190798D01*
X154599139Y-79977168D01*
X154599140Y-79977166D01*
X154619634Y-79756000D01*
X154619634Y-79755999D01*
X154599140Y-79534833D01*
X154599139Y-79534831D01*
X154538356Y-79321201D01*
X154538350Y-79321186D01*
X154439351Y-79122370D01*
X154439349Y-79122367D01*
X154423788Y-79101762D01*
X153958177Y-79567374D01*
X153896854Y-79600859D01*
X153827162Y-79595875D01*
X153771229Y-79554003D01*
X153760013Y-79535990D01*
X153748883Y-79514146D01*
X153657854Y-79423117D01*
X153657852Y-79423115D01*
X153636011Y-79411987D01*
X153585215Y-79364014D01*
X153568419Y-79296193D01*
X153590956Y-79230058D01*
X153604624Y-79213821D01*
X154068238Y-78750208D01*
X153952503Y-78678550D01*
X153952504Y-78678550D01*
X153745392Y-78598315D01*
X153527055Y-78557500D01*
X153304945Y-78557500D01*
X153086607Y-78598315D01*
X152879497Y-78678549D01*
X152879494Y-78678551D01*
X152763760Y-78750208D01*
X153227374Y-79213821D01*
X153260859Y-79275144D01*
X153255875Y-79344835D01*
X153214004Y-79400769D01*
X153195990Y-79411986D01*
X153174146Y-79423116D01*
X153083116Y-79514146D01*
X153071986Y-79535990D01*
X153024011Y-79586785D01*
X152956189Y-79603579D01*
X152890055Y-79581040D01*
X152873821Y-79567374D01*
X152408210Y-79101762D01*
X152392651Y-79122367D01*
X152392646Y-79122374D01*
X152293649Y-79321186D01*
X152293643Y-79321201D01*
X152232860Y-79534831D01*
X152232859Y-79534833D01*
X152212366Y-79755999D01*
X152212366Y-79756000D01*
X146999634Y-79756000D01*
X146999634Y-79755999D01*
X146979140Y-79534833D01*
X146979139Y-79534831D01*
X146918356Y-79321201D01*
X146918350Y-79321186D01*
X146819351Y-79122370D01*
X146819349Y-79122367D01*
X146803788Y-79101762D01*
X146338177Y-79567374D01*
X146276854Y-79600859D01*
X146207162Y-79595875D01*
X146151229Y-79554003D01*
X146140013Y-79535990D01*
X146128883Y-79514146D01*
X146037854Y-79423117D01*
X146037852Y-79423115D01*
X146016011Y-79411987D01*
X145965215Y-79364014D01*
X145948419Y-79296193D01*
X145970956Y-79230058D01*
X145984624Y-79213821D01*
X146448238Y-78750208D01*
X146332503Y-78678550D01*
X146332504Y-78678550D01*
X146125392Y-78598315D01*
X145907055Y-78557500D01*
X145684945Y-78557500D01*
X145466607Y-78598315D01*
X145259497Y-78678549D01*
X145259494Y-78678551D01*
X145143760Y-78750208D01*
X145607374Y-79213821D01*
X145640859Y-79275144D01*
X145635875Y-79344835D01*
X145594004Y-79400769D01*
X145575990Y-79411986D01*
X145554146Y-79423116D01*
X145463116Y-79514146D01*
X145451986Y-79535990D01*
X145404011Y-79586785D01*
X145336189Y-79603579D01*
X145270055Y-79581040D01*
X145253821Y-79567374D01*
X144788210Y-79101762D01*
X144772651Y-79122367D01*
X144772646Y-79122374D01*
X144673649Y-79321186D01*
X144673643Y-79321201D01*
X144612860Y-79534831D01*
X144612859Y-79534833D01*
X144592366Y-79755999D01*
X144592366Y-79756000D01*
X128696368Y-79756000D01*
X128695769Y-79755401D01*
X128693580Y-79753211D01*
X128667840Y-79732859D01*
X128609009Y-79683494D01*
X128602980Y-79679529D01*
X128603012Y-79679480D01*
X128596653Y-79675428D01*
X128596622Y-79675479D01*
X128590480Y-79671691D01*
X128590478Y-79671690D01*
X128590477Y-79671689D01*
X128537016Y-79646759D01*
X128520858Y-79639224D01*
X128486694Y-79622067D01*
X128452233Y-79604760D01*
X128452231Y-79604759D01*
X128452230Y-79604759D01*
X128445445Y-79602289D01*
X128445465Y-79602233D01*
X128438349Y-79599759D01*
X128438331Y-79599815D01*
X128431471Y-79597542D01*
X128403641Y-79591796D01*
X128356234Y-79582007D01*
X128302977Y-79569385D01*
X128281519Y-79564299D01*
X128274347Y-79563461D01*
X128274353Y-79563401D01*
X128266855Y-79562635D01*
X128266850Y-79562695D01*
X128259660Y-79562065D01*
X128182883Y-79564300D01*
X118777030Y-79564300D01*
X118709991Y-79544615D01*
X118689349Y-79527981D01*
X117046861Y-77885493D01*
X117013376Y-77824170D01*
X117018360Y-77754478D01*
X117060232Y-77698545D01*
X117114132Y-77675503D01*
X117209614Y-77659571D01*
X117444810Y-77578828D01*
X117663509Y-77460474D01*
X117859744Y-77307738D01*
X118018771Y-77134988D01*
X118078657Y-77098999D01*
X118148495Y-77101099D01*
X118201228Y-77134988D01*
X118360256Y-77307738D01*
X118556491Y-77460474D01*
X118556493Y-77460475D01*
X118774332Y-77578364D01*
X118775190Y-77578828D01*
X118942833Y-77636380D01*
X119008964Y-77659083D01*
X119010386Y-77659571D01*
X119255665Y-77700500D01*
X119504335Y-77700500D01*
X119749614Y-77659571D01*
X119984810Y-77578828D01*
X120203509Y-77460474D01*
X120399744Y-77307738D01*
X120558771Y-77134988D01*
X120618657Y-77098999D01*
X120688495Y-77101099D01*
X120741228Y-77134988D01*
X120900256Y-77307738D01*
X121096491Y-77460474D01*
X121096493Y-77460475D01*
X121314332Y-77578364D01*
X121315190Y-77578828D01*
X121482833Y-77636380D01*
X121548964Y-77659083D01*
X121550386Y-77659571D01*
X121795665Y-77700500D01*
X122044335Y-77700500D01*
X122289614Y-77659571D01*
X122524810Y-77578828D01*
X122743509Y-77460474D01*
X122939744Y-77307738D01*
X123108164Y-77124785D01*
X123244173Y-76916607D01*
X123344063Y-76688881D01*
X123405108Y-76447821D01*
X123405109Y-76447812D01*
X123425643Y-76200005D01*
X125494357Y-76200005D01*
X125514890Y-76447812D01*
X125514892Y-76447824D01*
X125575936Y-76688881D01*
X125675826Y-76916606D01*
X125811833Y-77124782D01*
X125811836Y-77124785D01*
X125980256Y-77307738D01*
X126176491Y-77460474D01*
X126176493Y-77460475D01*
X126394332Y-77578364D01*
X126395190Y-77578828D01*
X126562833Y-77636380D01*
X126628964Y-77659083D01*
X126630386Y-77659571D01*
X126875665Y-77700500D01*
X127124335Y-77700500D01*
X127369614Y-77659571D01*
X127604810Y-77578828D01*
X127823509Y-77460474D01*
X128019744Y-77307738D01*
X128178771Y-77134988D01*
X128238657Y-77098999D01*
X128308495Y-77101099D01*
X128361228Y-77134988D01*
X128520256Y-77307738D01*
X128716491Y-77460474D01*
X128716493Y-77460475D01*
X128934332Y-77578364D01*
X128935190Y-77578828D01*
X129102833Y-77636380D01*
X129168964Y-77659083D01*
X129170386Y-77659571D01*
X129415665Y-77700500D01*
X129664335Y-77700500D01*
X129909614Y-77659571D01*
X130144810Y-77578828D01*
X130363509Y-77460474D01*
X130559744Y-77307738D01*
X130718771Y-77134988D01*
X130778657Y-77098999D01*
X130848495Y-77101099D01*
X130901228Y-77134988D01*
X131060256Y-77307738D01*
X131256491Y-77460474D01*
X131256493Y-77460475D01*
X131474332Y-77578364D01*
X131475190Y-77578828D01*
X131642833Y-77636380D01*
X131708964Y-77659083D01*
X131710386Y-77659571D01*
X131955665Y-77700500D01*
X132204335Y-77700500D01*
X132449614Y-77659571D01*
X132684810Y-77578828D01*
X132903509Y-77460474D01*
X133099744Y-77307738D01*
X133258771Y-77134988D01*
X133318657Y-77098999D01*
X133388495Y-77101099D01*
X133441228Y-77134988D01*
X133600256Y-77307738D01*
X133796491Y-77460474D01*
X133796493Y-77460475D01*
X134014332Y-77578364D01*
X134015190Y-77578828D01*
X134182833Y-77636380D01*
X134248964Y-77659083D01*
X134250386Y-77659571D01*
X134495665Y-77700500D01*
X134744335Y-77700500D01*
X134989614Y-77659571D01*
X135224810Y-77578828D01*
X135443509Y-77460474D01*
X135639744Y-77307738D01*
X135798771Y-77134988D01*
X135858657Y-77098999D01*
X135928495Y-77101099D01*
X135981228Y-77134988D01*
X136140256Y-77307738D01*
X136336491Y-77460474D01*
X136336493Y-77460475D01*
X136554332Y-77578364D01*
X136555190Y-77578828D01*
X136722833Y-77636380D01*
X136788964Y-77659083D01*
X136790386Y-77659571D01*
X137035665Y-77700500D01*
X137284335Y-77700500D01*
X137529614Y-77659571D01*
X137764810Y-77578828D01*
X137983509Y-77460474D01*
X138179744Y-77307738D01*
X138338771Y-77134988D01*
X138398657Y-77098999D01*
X138468495Y-77101099D01*
X138521228Y-77134988D01*
X138680256Y-77307738D01*
X138876491Y-77460474D01*
X138876493Y-77460475D01*
X139094332Y-77578364D01*
X139095190Y-77578828D01*
X139262833Y-77636380D01*
X139328964Y-77659083D01*
X139330386Y-77659571D01*
X139575665Y-77700500D01*
X139824335Y-77700500D01*
X140069614Y-77659571D01*
X140304810Y-77578828D01*
X140523509Y-77460474D01*
X140719744Y-77307738D01*
X140888164Y-77124785D01*
X141024173Y-76916607D01*
X141124063Y-76688881D01*
X141185108Y-76447821D01*
X141185109Y-76447812D01*
X141205643Y-76200005D01*
X141205643Y-76199994D01*
X141185109Y-75952187D01*
X141185107Y-75952175D01*
X141124063Y-75711118D01*
X141024173Y-75483393D01*
X140888166Y-75275217D01*
X140851530Y-75235420D01*
X140719744Y-75092262D01*
X140523509Y-74939526D01*
X140523507Y-74939525D01*
X140523506Y-74939524D01*
X140304811Y-74821172D01*
X140304802Y-74821169D01*
X140069616Y-74740429D01*
X139824335Y-74699500D01*
X139575665Y-74699500D01*
X139330383Y-74740429D01*
X139095197Y-74821169D01*
X139095188Y-74821172D01*
X138876493Y-74939524D01*
X138680257Y-75092261D01*
X138521230Y-75265010D01*
X138461342Y-75301001D01*
X138391504Y-75298900D01*
X138338770Y-75265010D01*
X138299108Y-75221926D01*
X138179744Y-75092262D01*
X137983509Y-74939526D01*
X137983507Y-74939525D01*
X137983506Y-74939524D01*
X137764811Y-74821172D01*
X137764802Y-74821169D01*
X137529616Y-74740429D01*
X137284335Y-74699500D01*
X137035665Y-74699500D01*
X136790383Y-74740429D01*
X136555197Y-74821169D01*
X136555188Y-74821172D01*
X136336493Y-74939524D01*
X136140257Y-75092261D01*
X135981230Y-75265010D01*
X135921342Y-75301001D01*
X135851504Y-75298900D01*
X135798770Y-75265010D01*
X135759108Y-75221926D01*
X135639744Y-75092262D01*
X135443509Y-74939526D01*
X135443507Y-74939525D01*
X135443506Y-74939524D01*
X135224811Y-74821172D01*
X135224802Y-74821169D01*
X134989616Y-74740429D01*
X134744335Y-74699500D01*
X134495665Y-74699500D01*
X134250383Y-74740429D01*
X134015197Y-74821169D01*
X134015188Y-74821172D01*
X133796493Y-74939524D01*
X133600255Y-75092262D01*
X133600252Y-75092265D01*
X133441228Y-75265010D01*
X133381341Y-75301001D01*
X133311503Y-75298900D01*
X133258770Y-75265011D01*
X133099744Y-75092262D01*
X132903509Y-74939526D01*
X132903507Y-74939525D01*
X132903506Y-74939524D01*
X132684811Y-74821172D01*
X132684802Y-74821169D01*
X132449616Y-74740429D01*
X132204335Y-74699500D01*
X131955665Y-74699500D01*
X131710383Y-74740429D01*
X131475197Y-74821169D01*
X131475188Y-74821172D01*
X131256493Y-74939524D01*
X131060257Y-75092261D01*
X130901230Y-75265010D01*
X130841342Y-75301001D01*
X130771504Y-75298900D01*
X130718770Y-75265010D01*
X130679108Y-75221926D01*
X130559744Y-75092262D01*
X130363509Y-74939526D01*
X130363507Y-74939525D01*
X130363506Y-74939524D01*
X130144811Y-74821172D01*
X130144802Y-74821169D01*
X129909616Y-74740429D01*
X129664335Y-74699500D01*
X129415665Y-74699500D01*
X129170383Y-74740429D01*
X128935197Y-74821169D01*
X128935188Y-74821172D01*
X128716493Y-74939524D01*
X128520257Y-75092261D01*
X128361230Y-75265010D01*
X128301342Y-75301001D01*
X128231504Y-75298900D01*
X128178770Y-75265010D01*
X128139108Y-75221926D01*
X128019744Y-75092262D01*
X127823509Y-74939526D01*
X127823507Y-74939525D01*
X127823506Y-74939524D01*
X127604811Y-74821172D01*
X127604802Y-74821169D01*
X127369616Y-74740429D01*
X127124335Y-74699500D01*
X126875665Y-74699500D01*
X126630383Y-74740429D01*
X126395197Y-74821169D01*
X126395188Y-74821172D01*
X126176493Y-74939524D01*
X125980257Y-75092261D01*
X125811833Y-75275217D01*
X125675826Y-75483393D01*
X125575936Y-75711118D01*
X125514892Y-75952175D01*
X125514890Y-75952187D01*
X125494357Y-76199994D01*
X125494357Y-76200005D01*
X123425643Y-76200005D01*
X123425643Y-76199994D01*
X123405109Y-75952187D01*
X123405107Y-75952175D01*
X123344063Y-75711118D01*
X123244173Y-75483393D01*
X123108166Y-75275217D01*
X123071530Y-75235420D01*
X122939744Y-75092262D01*
X122743509Y-74939526D01*
X122743507Y-74939525D01*
X122743506Y-74939524D01*
X122524811Y-74821172D01*
X122524802Y-74821169D01*
X122289616Y-74740429D01*
X122044335Y-74699500D01*
X121795665Y-74699500D01*
X121550383Y-74740429D01*
X121315197Y-74821169D01*
X121315188Y-74821172D01*
X121096493Y-74939524D01*
X120900257Y-75092261D01*
X120741230Y-75265010D01*
X120681342Y-75301001D01*
X120611504Y-75298900D01*
X120558770Y-75265010D01*
X120519108Y-75221926D01*
X120399744Y-75092262D01*
X120203509Y-74939526D01*
X120203507Y-74939525D01*
X120203506Y-74939524D01*
X119984811Y-74821172D01*
X119984802Y-74821169D01*
X119749616Y-74740429D01*
X119504335Y-74699500D01*
X119255665Y-74699500D01*
X119010383Y-74740429D01*
X118775197Y-74821169D01*
X118775188Y-74821172D01*
X118556493Y-74939524D01*
X118360257Y-75092261D01*
X118201230Y-75265010D01*
X118141342Y-75301001D01*
X118071504Y-75298900D01*
X118018770Y-75265010D01*
X117979108Y-75221926D01*
X117859744Y-75092262D01*
X117663509Y-74939526D01*
X117663507Y-74939525D01*
X117663506Y-74939524D01*
X117444811Y-74821172D01*
X117444802Y-74821169D01*
X117209616Y-74740429D01*
X116964335Y-74699500D01*
X116715665Y-74699500D01*
X116470383Y-74740429D01*
X116235197Y-74821169D01*
X116235188Y-74821172D01*
X116016493Y-74939524D01*
X115820257Y-75092261D01*
X115661230Y-75265010D01*
X115601342Y-75301001D01*
X115531504Y-75298900D01*
X115478770Y-75265010D01*
X115439108Y-75221926D01*
X115319744Y-75092262D01*
X115123509Y-74939526D01*
X115123507Y-74939525D01*
X115123506Y-74939524D01*
X114904811Y-74821172D01*
X114904802Y-74821169D01*
X114669616Y-74740429D01*
X114424335Y-74699500D01*
X114175665Y-74699500D01*
X113930383Y-74740429D01*
X113695197Y-74821169D01*
X113695188Y-74821172D01*
X113476493Y-74939524D01*
X113280257Y-75092261D01*
X113111837Y-75275213D01*
X113111829Y-75275224D01*
X113111455Y-75275797D01*
X113111242Y-75275978D01*
X113108690Y-75279258D01*
X113108014Y-75278732D01*
X113058304Y-75321147D01*
X112994865Y-75331302D01*
X112983434Y-75330116D01*
X112368949Y-75944602D01*
X112307626Y-75978087D01*
X112237934Y-75973103D01*
X112182001Y-75931231D01*
X112176953Y-75923961D01*
X112141761Y-75869202D01*
X112026398Y-75769241D01*
X112028698Y-75766585D01*
X111993960Y-75726428D01*
X111984074Y-75657261D01*
X112013152Y-75593729D01*
X112019116Y-75587329D01*
X112630056Y-74976389D01*
X112583229Y-74939943D01*
X112364614Y-74821635D01*
X112364603Y-74821630D01*
X112129493Y-74740916D01*
X111884293Y-74700000D01*
X111635707Y-74700000D01*
X111390506Y-74740916D01*
X111155396Y-74821630D01*
X111155390Y-74821632D01*
X110936761Y-74939949D01*
X110889942Y-74976388D01*
X110889942Y-74976390D01*
X111500883Y-75587330D01*
X111534368Y-75648653D01*
X111529384Y-75718344D01*
X111492358Y-75767805D01*
X111493602Y-75769241D01*
X111378238Y-75869202D01*
X111343046Y-75923962D01*
X111290242Y-75969717D01*
X111221083Y-75979660D01*
X111157528Y-75950634D01*
X111151050Y-75944603D01*
X110536564Y-75330116D01*
X110525135Y-75331302D01*
X110456423Y-75318637D01*
X110411910Y-75278802D01*
X110411317Y-75279265D01*
X110408768Y-75275991D01*
X110408535Y-75275782D01*
X110408166Y-75275218D01*
X110408165Y-75275217D01*
X110408164Y-75275215D01*
X110239744Y-75092262D01*
X110043509Y-74939526D01*
X110043507Y-74939525D01*
X110043506Y-74939524D01*
X109824811Y-74821172D01*
X109824802Y-74821169D01*
X109589616Y-74740429D01*
X109344335Y-74699500D01*
X109095665Y-74699500D01*
X108850383Y-74740429D01*
X108615197Y-74821169D01*
X108615188Y-74821172D01*
X108396493Y-74939524D01*
X108200257Y-75092261D01*
X108031833Y-75275217D01*
X107895826Y-75483393D01*
X107795936Y-75711118D01*
X107734892Y-75952175D01*
X107734890Y-75952187D01*
X107714357Y-76199994D01*
X107714357Y-76200005D01*
X106680000Y-76200005D01*
X106680000Y-73834800D01*
X106699685Y-73767761D01*
X106752489Y-73722006D01*
X106804000Y-73710800D01*
X142217600Y-73710800D01*
X142284639Y-73730485D01*
G37*
%TD.AperFunction*%
%TD*%
M02*
