%TF.GenerationSoftware,KiCad,Pcbnew,7.0.7*%
%TF.CreationDate,2023-09-18T12:00:33+02:00*%
%TF.ProjectId,AT90S4433_evaluation_board,41543930-5334-4343-9333-5f6576616c75,rev?*%
%TF.SameCoordinates,Original*%
%TF.FileFunction,Paste,Top*%
%TF.FilePolarity,Positive*%
%FSLAX46Y46*%
G04 Gerber Fmt 4.6, Leading zero omitted, Abs format (unit mm)*
G04 Created by KiCad (PCBNEW 7.0.7) date 2023-09-18 12:00:33*
%MOMM*%
%LPD*%
G01*
G04 APERTURE LIST*
G04 Aperture macros list*
%AMRoundRect*
0 Rectangle with rounded corners*
0 $1 Rounding radius*
0 $2 $3 $4 $5 $6 $7 $8 $9 X,Y pos of 4 corners*
0 Add a 4 corners polygon primitive as box body*
4,1,4,$2,$3,$4,$5,$6,$7,$8,$9,$2,$3,0*
0 Add four circle primitives for the rounded corners*
1,1,$1+$1,$2,$3*
1,1,$1+$1,$4,$5*
1,1,$1+$1,$6,$7*
1,1,$1+$1,$8,$9*
0 Add four rect primitives between the rounded corners*
20,1,$1+$1,$2,$3,$4,$5,0*
20,1,$1+$1,$4,$5,$6,$7,0*
20,1,$1+$1,$6,$7,$8,$9,0*
20,1,$1+$1,$8,$9,$2,$3,0*%
G04 Aperture macros list end*
%ADD10RoundRect,0.250000X-0.375000X-0.625000X0.375000X-0.625000X0.375000X0.625000X-0.375000X0.625000X0*%
%ADD11RoundRect,0.125000X-0.530330X0.353553X0.353553X-0.530330X0.530330X-0.353553X-0.353553X0.530330X0*%
%ADD12RoundRect,0.125000X-0.530330X-0.353553X-0.353553X-0.530330X0.530330X0.353553X0.353553X0.530330X0*%
%ADD13RoundRect,0.250000X-1.425000X0.425000X-1.425000X-0.425000X1.425000X-0.425000X1.425000X0.425000X0*%
%ADD14RoundRect,0.250000X-0.262500X-0.450000X0.262500X-0.450000X0.262500X0.450000X-0.262500X0.450000X0*%
%ADD15RoundRect,0.250000X-0.250000X-0.475000X0.250000X-0.475000X0.250000X0.475000X-0.250000X0.475000X0*%
%ADD16RoundRect,0.218750X0.218750X0.381250X-0.218750X0.381250X-0.218750X-0.381250X0.218750X-0.381250X0*%
%ADD17RoundRect,0.250000X0.262500X0.450000X-0.262500X0.450000X-0.262500X-0.450000X0.262500X-0.450000X0*%
%ADD18RoundRect,0.250000X0.250000X0.475000X-0.250000X0.475000X-0.250000X-0.475000X0.250000X-0.475000X0*%
%ADD19RoundRect,0.250000X0.450000X-0.262500X0.450000X0.262500X-0.450000X0.262500X-0.450000X-0.262500X0*%
G04 APERTURE END LIST*
D10*
%TO.C,D1*%
X152270000Y-91694000D03*
X155070000Y-91694000D03*
%TD*%
D11*
%TO.C,U1*%
X123566344Y-82711887D03*
X123000659Y-83277573D03*
X122434973Y-83843258D03*
X121869288Y-84408943D03*
X121303602Y-84974629D03*
X120737917Y-85540314D03*
X120172232Y-86106000D03*
X119606546Y-86671685D03*
D12*
X119606546Y-88616229D03*
X120172232Y-89181914D03*
X120737917Y-89747600D03*
X121303602Y-90313285D03*
X121869288Y-90878971D03*
X122434973Y-91444656D03*
X123000659Y-92010341D03*
X123566344Y-92576027D03*
D11*
X125510888Y-92576027D03*
X126076573Y-92010341D03*
X126642259Y-91444656D03*
X127207944Y-90878971D03*
X127773630Y-90313285D03*
X128339315Y-89747600D03*
X128905000Y-89181914D03*
X129470686Y-88616229D03*
D12*
X129470686Y-86671685D03*
X128905000Y-86106000D03*
X128339315Y-85540314D03*
X127773630Y-84974629D03*
X127207944Y-84408943D03*
X126642259Y-83843258D03*
X126076573Y-83277573D03*
X125510888Y-82711887D03*
%TD*%
D13*
%TO.C,D3*%
X105079800Y-89149600D03*
X105079800Y-94949600D03*
%TD*%
D10*
%TO.C,D2*%
X152270000Y-95758000D03*
X155070000Y-95758000D03*
%TD*%
D14*
%TO.C,R2*%
X147804500Y-87884000D03*
X149629500Y-87884000D03*
%TD*%
D15*
%TO.C,C2*%
X116652000Y-92456000D03*
X118552000Y-92456000D03*
%TD*%
D14*
%TO.C,R4*%
X146407500Y-95758000D03*
X148232500Y-95758000D03*
%TD*%
D16*
%TO.C,L1*%
X130246900Y-93472000D03*
X128121900Y-93472000D03*
%TD*%
D15*
%TO.C,C1*%
X114239000Y-90297000D03*
X116139000Y-90297000D03*
%TD*%
%TO.C,C5*%
X114432000Y-85217000D03*
X116332000Y-85217000D03*
%TD*%
D17*
%TO.C,R3*%
X143152500Y-87884000D03*
X141327500Y-87884000D03*
%TD*%
D18*
%TO.C,C3*%
X133487200Y-90779600D03*
X131587200Y-90779600D03*
%TD*%
D15*
%TO.C,C4*%
X118176000Y-82931000D03*
X120076000Y-82931000D03*
%TD*%
D17*
%TO.C,R1*%
X140866500Y-82423000D03*
X139041500Y-82423000D03*
%TD*%
D19*
%TO.C,R5*%
X106019600Y-87094700D03*
X106019600Y-85269700D03*
%TD*%
M02*
