M48
; DRILL file {KiCad 7.0.7} date Mon Sep 18 12:00:37 2023
; FORMAT={-:-/ absolute / metric / decimal}
; #@! TF.CreationDate,2023-09-18T12:00:37+02:00
; #@! TF.GenerationSoftware,Kicad,Pcbnew,7.0.7
; #@! TF.FileFunction,Plated,1,2,PTH
FMAT,2
METRIC
; #@! TA.AperFunction,Plated,PTH,ViaDrill
T1C0.400
; #@! TA.AperFunction,Plated,PTH,ComponentDrill
T2C0.800
; #@! TA.AperFunction,Plated,PTH,ComponentDrill
T3C0.813
; #@! TA.AperFunction,Plated,PTH,ComponentDrill
T4C1.000
%
G90
G05
T1
X102.87Y-86.919
X103.53Y-86.233
X104.267Y-85.496
X113.5Y-82.8
X114.198Y-79.68
X114.5Y-82.804
X114.884Y-78.638
X115.3Y-83.5
X117.043Y-80.518
X117.5Y-81.382
X120.142Y-91.44
X121.31Y-81.89
X121.869Y-88.595
X122.022Y-81.331
X122.072Y-87.325
X123.749Y-84.43
X124.79Y-96.3
X124.8Y-97.2
X124.8Y-98.2
X125.5Y-95.7
X126.39Y-89.713
X126.594Y-88.443
X126.695Y-86.055
X126.797Y-87.071
X128.88Y-95.758
X129.0Y-91.745
X129.896Y-95.783
X130.208Y-91.692
X130.912Y-95.631
X132.182Y-88.748
X135.56Y-89.325
X141.63Y-80.467
X142.342Y-79.807
X143.51Y-79.756
X151.282Y-79.756
X155.499Y-94.031
X156.261Y-93.421
T2
X101.827Y-81.688
X103.595Y-79.92
X110.109Y-85.434
X110.109Y-90.334
T3
X145.796Y-79.756
X145.796Y-84.836
X153.416Y-79.756
X153.416Y-84.836
T4
X100.863Y-89.205
X100.863Y-91.745
X109.22Y-76.2
X109.22Y-99.06
X111.76Y-76.2
X111.76Y-99.06
X114.3Y-76.2
X114.3Y-99.06
X116.84Y-76.2
X116.84Y-99.06
X119.38Y-76.2
X119.38Y-99.06
X121.92Y-76.2
X121.92Y-99.06
X127.0Y-76.2
X127.0Y-99.06
X129.54Y-76.2
X129.54Y-99.06
X132.08Y-76.2
X132.08Y-99.06
X133.096Y-85.217
X134.62Y-76.2
X134.62Y-99.06
X135.636Y-85.217
X137.16Y-76.2
X137.16Y-99.06
X137.678Y-92.202
X138.176Y-85.217
X139.7Y-76.2
X139.7Y-99.06
X140.218Y-92.202
X144.536Y-92.202
X147.076Y-92.202
T0
M30
